<svg xmlns="http://www.w3.org/2000/svg" xmlns:xlink="http://www.w3.org/1999/xlink" width="2000" zoomAndPan="magnify" viewBox="0 0 1500 1499.999933" height="2000" preserveAspectRatio="xMidYMid meet" version="1.0"><defs><g/></defs><path fill="#efe2ba" d="M 146.71875 573.789062 L 1347.113281 539.234375 C 1361.140625 538.828125 1374.753906 544.015625 1384.960938 553.648438 C 1395.164062 563.28125 1401.125 576.574219 1401.527344 590.601562 L 1404.574219 696.390625 C 1404.976562 710.417969 1399.792969 724.03125 1390.15625 734.234375 C 1380.523438 744.441406 1367.230469 750.398438 1353.203125 750.804688 L 152.8125 785.359375 C 123.597656 786.203125 99.238281 763.203125 98.394531 733.992188 L 95.351562 628.203125 C 94.507812 598.992188 117.507812 574.628906 146.71875 573.789062 Z M 146.71875 573.789062 " fill-opacity="1" fill-rule="nonzero"/><g fill="#4056a1" fill-opacity="1"><g transform="translate(154.121152, 723.123802)"><g><path d="M 61.875 -84.15625 C 61.828125 -86.25 62.046875 -87.671875 62 -89.203125 C 61.890625 -93.25 56.8125 -94.796875 55.53125 -95.171875 C 52.125 -96.328125 51.578125 -96.453125 48.921875 -96.375 C 47.65625 -96.34375 46.125 -96.4375 44.859375 -96.40625 C 42.90625 -96.34375 41.0625 -96.859375 39.109375 -96.796875 C 22.15625 -96.3125 15.546875 -93.046875 11.96875 -90.578125 C 8.390625 -88.21875 4.171875 -83.609375 2.609375 -79.921875 C 1.953125 -78.375 1.296875 -76.65625 0.515625 -74.265625 C 0 -72.84375 -0.78125 -71 -0.6875 -67.640625 C -0.625 -65.53125 -0.234375 -62.1875 0.078125 -60.65625 C 0.890625 -56.765625 2.96875 -52.625 3.5625 -51.515625 C 4.140625 -50.40625 5.15625 -49.609375 6.609375 -47.96875 C 9.0625 -45.234375 9.8125 -43.84375 13.375 -41.71875 C 17.078125 -39.578125 19.203125 -38.09375 21.203125 -37.03125 C 23.328125 -35.96875 28.875 -33.46875 30.984375 -32.828125 L 34.671875 -31.671875 C 35.9375 -31.296875 36.390625 -30.1875 36.40625 -29.765625 C 36.4375 -28.78125 35.921875 -26.953125 32.703125 -26.859375 C 32 -26.828125 31.15625 -26.953125 30.328125 -27.0625 C 25.53125 -27.625 27.078125 -27.53125 25.53125 -27.765625 C 23.6875 -28.140625 23.984375 -27.875 20.3125 -28.734375 C 18.34375 -29.09375 18.0625 -29.09375 16.53125 -29.1875 C 13.4375 -29.515625 10.890625 -30.71875 8.359375 -30.640625 C 5.28125 -30.546875 1.71875 -27.515625 2.75 -21.078125 L 3.09375 -18.859375 L 3.171875 -16.5 C 3.46875 -6.265625 2.375 -4.703125 5.8125 -2.125 C 7.109375 -1.1875 7.96875 -0.9375 12.03125 -0.625 C 14.984375 -0.4375 17.9375 -0.09375 20.578125 0.109375 C 31.828125 1.171875 32.078125 0.34375 37.703125 0.328125 C 39.09375 0.28125 40.359375 0.390625 41.765625 0.34375 C 44.984375 0.25 52.390625 -0.515625 56.09375 -2.59375 C 59.953125 -4.8125 62.6875 -7.140625 64.875 -9.015625 C 66.390625 -10.328125 67.34375 -11.1875 68.828125 -13.046875 C 70.046875 -14.640625 71.78125 -17.484375 72.140625 -19.3125 C 72.5 -21.703125 72.546875 -25.0625 72.640625 -26.59375 C 72.71875 -28.703125 73.109375 -29.828125 73.078125 -31.09375 C 73.046875 -32.078125 72.25 -35.28125 71.9375 -36.25 C 71.46875 -38.203125 70.453125 -39.71875 69.546875 -41.78125 C 68.640625 -43.734375 68.3125 -45.25 66.296875 -47.59375 C 64.40625 -49.765625 61.25 -52.1875 59.8125 -53.28125 C 57.109375 -55.15625 54.828125 -56.21875 51.71875 -57.796875 C 46.453125 -60.59375 47.4375 -60.328125 46.171875 -60.71875 C 43.90625 -61.359375 41.515625 -61.71875 39.25 -62.625 C 38.96875 -62.75 38.53125 -62.875 38.25 -63.015625 C 37.265625 -63.265625 37.546875 -62.84375 35.96875 -64.640625 C 35.671875 -64.90625 35.390625 -65.328125 35.375 -65.875 C 35.34375 -67 36.171875 -67.15625 37 -67.609375 C 37.6875 -67.90625 38.25 -68.203125 39.9375 -68.25 C 40.625 -68.265625 41.1875 -68 41.75 -67.875 C 42.609375 -67.625 43.453125 -67.515625 44.28125 -67.390625 C 44.859375 -67.265625 45.421875 -67.28125 45.984375 -67.296875 C 46.6875 -67.3125 47.390625 -67.34375 48.078125 -67.21875 C 50.046875 -67 53.578125 -65.84375 55.390625 -65.890625 C 56.65625 -65.9375 58.328125 -66.53125 59.953125 -67.984375 C 63.359375 -71.15625 61.875 -74.484375 61.859375 -79.8125 Z M 61.875 -84.15625 "/></g></g></g><g fill="#4056a1" fill-opacity="1"><g transform="translate(229.282682, 720.960085)"><g><path d="M 18.53125 -47.328125 C 23.359375 -40.03125 25.46875 -34.921875 25.921875 -33.8125 C 27.421875 -30.34375 27.4375 -29.359375 27.8125 -26.4375 C 28.015625 -24.34375 28 -24.484375 28.109375 -20.703125 C 28.234375 -16.375 28.46875 -13.578125 28.234375 -11.890625 C 28.125 -10.46875 27.484375 -8.640625 27.546875 -6.390625 C 27.625 -3.734375 28.203125 -3.046875 28.921875 -2.375 C 29.5 -1.828125 31.234375 -0.46875 34.171875 -0.5625 C 37.25 -0.65625 35.6875 -0.890625 39.609375 -1 C 41.71875 -1.0625 43.96875 -0.984375 46.0625 -1.046875 C 49.578125 -1.140625 51.359375 -1.90625 55 -1.578125 C 56.6875 -1.484375 58.09375 -1.109375 59.640625 -1.15625 C 62.71875 -1.234375 63.671875 -2.109375 64.359375 -2.984375 C 65.5625 -4.546875 65.53125 -5.953125 65.453125 -8.609375 C 65.375 -11 64.5625 -9.984375 64.390625 -16 C 64.265625 -20.0625 64.296875 -29.171875 64.625 -32.40625 C 64.96875 -35.0625 65.359375 -35.921875 66.15625 -37.625 C 71.3125 -48.421875 65.953125 -40 81.640625 -64.125 C 85.671875 -70.265625 84.484375 -67.984375 85.921875 -71.25 C 90.390625 -81.34375 89.796875 -77.8125 91.90625 -81.796875 C 92.84375 -83.5 92.421875 -83.78125 94.15625 -86.765625 C 94.703125 -87.625 95.21875 -88.484375 95.484375 -89.328125 C 95.609375 -89.890625 95.84375 -91.15625 95.828125 -92 C 95.796875 -93.109375 95.484375 -94.09375 94.921875 -94.765625 C 93.3125 -96.6875 90.515625 -96.609375 88.828125 -96.5625 C 87.03125 -96.5 85.359375 -96.171875 83.6875 -95.984375 C 81.578125 -95.78125 79.625 -95.875 77.515625 -95.8125 C 72.34375 -95.515625 72.640625 -95.25 69.8125 -95.453125 C 68.84375 -95.5625 68 -95.671875 67.15625 -95.65625 C 65.203125 -95.59375 63.53125 -94.84375 62 -94.09375 C 60.625 -93.359375 60.21875 -92.796875 59.6875 -92.078125 C 58.875 -90.9375 58.34375 -89.65625 57.15625 -87.390625 C 54.765625 -82.6875 52.859375 -80.8125 50.890625 -77.25 C 47.40625 -71.40625 45.921875 -69.40625 44.65625 -69.375 C 44.375 -69.359375 43.53125 -69.609375 43.25 -69.734375 C 41.96875 -70.40625 40.90625 -72.765625 37.65625 -78.6875 C 34.84375 -83.953125 33.96875 -85.3125 33.671875 -85.71875 C 33.078125 -86.546875 33.21875 -86.703125 33.0625 -87.109375 C 31.8125 -91.96875 30.25 -92.90625 29.953125 -93.171875 C 29.53125 -93.4375 27.671875 -94.65625 26.96875 -94.640625 C 25.421875 -94.59375 23.625 -94.109375 19.5625 -94 C 18.71875 -93.96875 18.015625 -93.953125 17.1875 -93.9375 C 15.640625 -93.890625 13.96875 -93.84375 12.4375 -93.9375 C 11.875 -93.921875 11.453125 -94.046875 10.890625 -94.03125 C 9.78125 -94 8.65625 -93.6875 7.53125 -93.65625 C 6 -93.609375 4.578125 -93.984375 3.03125 -94.09375 C 2.484375 -94.078125 1.78125 -94.046875 1.21875 -94.03125 C -0.046875 -94 -2.703125 -94.046875 -4.34375 -92.46875 C -5.015625 -91.75 -5.53125 -90.078125 -5.5 -88.8125 C -5.421875 -86.15625 -3.53125 -83.671875 -2.65625 -82.4375 C 3.046875 -74.484375 -1.984375 -78.6875 8.5625 -62.578125 Z M 18.53125 -47.328125 "/></g></g></g><g fill="#4056a1" fill-opacity="1"><g transform="translate(324.459303, 718.220183)"><g><path d="M 3.578125 -70.28125 C 3.859375 -65.53125 3.34375 -64.40625 3.484375 -54.453125 C 3.546875 -52.21875 3.609375 -50.109375 3.671875 -47.875 C 4.1875 -34.734375 4.65625 -42.453125 4.96875 -31.796875 L 5.15625 -24.9375 C 5.328125 -19.0625 5.59375 -14.875 5.140625 -11.5 C 5.015625 -10.796875 4.90625 -9.8125 4.953125 -8.140625 C 4.75 -5.328125 6.0625 -3.671875 6.921875 -2.71875 C 8.953125 -0.828125 12.046875 -0.203125 17.5 -0.359375 C 19.171875 -0.40625 21.125 -0.75 22.953125 -0.796875 C 24.890625 -1 25.734375 -1.015625 26.859375 -1.0625 L 29.796875 -1.140625 C 34.984375 -1.28125 36.953125 -1.0625 42.28125 -1.21875 C 57.234375 -1.640625 64.453125 -4.09375 76.46875 -10.1875 C 80.625 -12.265625 90.140625 -17.3125 95.296875 -32.4375 C 97.109375 -37.6875 97.875 -45.140625 97.71875 -50.59375 C 97.578125 -55.640625 96.375 -63.015625 94.15625 -67.15625 C 92.96875 -69.5 84.984375 -79.359375 82.546875 -81.65625 C 78.65625 -85.328125 74.84375 -86.34375 71.71875 -87.671875 C 67.46875 -89.5 66.59375 -90.734375 63.328125 -92.046875 C 60.359375 -93.203125 57.125 -93.671875 51.21875 -94.34375 C 46.59375 -94.78125 36.0625 -94.890625 30.46875 -94.734375 C 21.640625 -94.484375 24.90625 -93.734375 19.015625 -93.703125 L 10.0625 -93.71875 C 7.671875 -93.796875 5.609375 -92.328125 4.9375 -91.609375 C 2.890625 -89.75 2.859375 -86.109375 2.90625 -84.421875 Z M 39.5625 -51.71875 C 39.375 -53.109375 39.296875 -56.03125 41.046875 -58.46875 C 41.71875 -59.46875 42.53125 -60.1875 44.625 -60.25 C 46.171875 -60.296875 47.453125 -60.046875 49.140625 -59.828125 C 50.125 -59.703125 50.40625 -59.71875 50.828125 -59.734375 C 54.3125 -59.828125 56.59375 -58.21875 57.890625 -57.140625 C 60.328125 -54.984375 61.515625 -52.625 61.640625 -48.5625 C 61.6875 -46.75 61.4375 -45.609375 61.203125 -44.34375 C 60.1875 -40.265625 57.4375 -38.5 56.046875 -38.03125 C 55.78125 -37.890625 55.359375 -37.875 55.09375 -37.71875 C 54.953125 -37.71875 54.953125 -37.71875 54.8125 -37.71875 C 54.671875 -37.578125 54.25 -37.421875 53.96875 -37.265625 C 53.4375 -37.109375 53.015625 -37.09375 52.59375 -36.953125 C 51.765625 -36.921875 50.78125 -36.890625 49.53125 -36.453125 C 48.96875 -36.296875 47.3125 -35.6875 45.203125 -35.34375 C 45.0625 -35.34375 44.796875 -35.328125 44.65625 -35.328125 C 43.390625 -35.4375 42.265625 -35.6875 41.53125 -36.765625 C 40.515625 -38.15625 40.3125 -40.375 40.28125 -41.359375 C 40.265625 -41.78125 40.265625 -42.0625 40.25 -42.484375 C 40.234375 -43.1875 40.34375 -43.890625 40.328125 -44.59375 C 40.3125 -45.296875 40.15625 -45.84375 40.125 -46.546875 Z M 39.5625 -51.71875 "/></g></g></g><g fill="#4056a1" fill-opacity="1"><g transform="translate(425.094588, 715.32314)"><g><path d="M 4.84375 -60.65625 C 4.640625 -47.765625 4.734375 -44.828125 4.828125 -41.328125 L 5.421875 -25.5 C 5.59375 -19.90625 5.328125 -14.453125 4.9375 -8.84375 C 4.8125 -8.125 4.84375 -7.28125 4.859375 -6.578125 C 4.921875 -4.625 5.515625 -2.953125 6.390625 -2.015625 C 7.109375 -1.1875 8.6875 -0.25 10.640625 -0.3125 L 21.6875 -0.765625 C 24.484375 -0.84375 24.625 -0.5625 35.96875 -0.890625 C 38.640625 -0.96875 39.609375 -1.28125 40.703125 -2.296875 C 41.53125 -3.03125 42.0625 -3.875 42.015625 -5.703125 C 41.984375 -6.546875 41.828125 -7.21875 41.65625 -8.0625 C 41.5 -9.046875 41.3125 -10.171875 41.296875 -11.140625 C 41.28125 -11.28125 41.28125 -11.5625 41.265625 -12.125 L 41.1875 -14.640625 L 41.265625 -16.890625 C 41.3125 -19.953125 41.296875 -20.65625 41.296875 -20.9375 L 40.890625 -25.140625 C 40.5 -28.890625 41.03125 -30.03125 41.15625 -30.453125 C 41.671875 -31.734375 42.21875 -32.171875 42.78125 -32.1875 C 43.484375 -32.21875 44.625 -31.6875 45.1875 -31.140625 C 46.203125 -30.328125 46.359375 -29.484375 47.53125 -28.125 L 48.546875 -26.890625 C 51.015625 -23.875 49.296875 -24.953125 53.046875 -20.859375 C 56.515625 -17.1875 56.09375 -17.171875 57.703125 -14.828125 C 61.65625 -9.0625 62.21875 -8.65625 62.953125 -7.96875 C 65.390625 -5.671875 66.578125 -3.609375 68.84375 -2.40625 C 70.140625 -1.734375 71.40625 -1.625 75.46875 -1.75 L 76.578125 -1.78125 C 78.265625 -1.828125 79.515625 -2 82.03125 -2.21875 C 83.984375 -2.421875 84.828125 -2.4375 86.09375 -2.484375 L 88.75 -2.546875 C 89.453125 -2.578125 89.875 -2.453125 91 -2.34375 C 92.390625 -2.375 92.8125 -2.25 93.515625 -2.265625 C 93.65625 -2.265625 93.65625 -2.265625 93.796875 -2.28125 C 94.765625 -2.3125 95.75 -2.46875 97.53125 -3.65625 C 98.625 -4.671875 99.28125 -5.9375 99.375 -7.484375 C 99.375 -7.765625 99.359375 -8.1875 99.359375 -8.453125 C 99.34375 -8.59375 99.34375 -8.734375 99.34375 -8.875 C 99.296875 -10.28125 98.84375 -11.40625 98.65625 -13.34375 L 98.421875 -16.28125 C 98.421875 -16.421875 98.421875 -16.421875 98.421875 -16.5625 C 98.34375 -19.09375 98.265625 -21.59375 98.203125 -24.109375 C 98.078125 -28.59375 98.21875 -33.09375 98.09375 -37.578125 C 98.09375 -37.859375 98.078125 -37.984375 98.078125 -38.265625 C 98.046875 -39.390625 97.859375 -40.78125 97.609375 -44.703125 C 97.21875 -48.328125 97.046875 -49.296875 97.015625 -50.5625 C 96.921875 -53.640625 97.359375 -53.515625 97.359375 -57.984375 C 97.34375 -58.828125 97.328125 -59.53125 97.296875 -60.359375 C 97.265625 -61.484375 97.375 -62.765625 97.34375 -63.875 C 97.28125 -65.984375 96.921875 -68.34375 96.859375 -70.734375 C 96.828125 -71.703125 96.796875 -72.6875 96.78125 -73.671875 C 96.671875 -82.0625 97.515625 -82.234375 97.234375 -87.28125 C 97.15625 -89.65625 96.796875 -92.3125 94.796875 -94.1875 C 93.0625 -95.828125 90.953125 -96.328125 88.015625 -96.25 C 87.46875 -96.234375 87.046875 -96.21875 86.484375 -96.203125 C 85.21875 -96.171875 84.234375 -96.140625 81.4375 -95.921875 L 79.203125 -95.71875 C 78.921875 -95.703125 78.5 -95.703125 76.953125 -95.65625 C 76.265625 -95.625 75.5625 -95.75 74.859375 -95.734375 C 73.3125 -95.828125 71.625 -95.921875 70.078125 -95.875 L 67.703125 -95.8125 C 66.015625 -95.765625 64.359375 -95.140625 63.8125 -94.84375 C 62.703125 -94.390625 60.640625 -92.8125 60.609375 -89.15625 C 60.625 -88.875 60.625 -88.453125 60.640625 -88.1875 C 60.6875 -86.640625 61.171875 -84.140625 61.25 -81.609375 L 61.484375 -73.640625 C 61.5 -72.9375 61.390625 -72.09375 61.546875 -71.390625 C 61.546875 -71.109375 61.703125 -70.6875 61.71875 -70.40625 C 61.875 -69.734375 61.75 -69.15625 61.765625 -68.453125 C 61.796875 -67.75 61.8125 -66.765625 61.265625 -66.203125 C 61 -65.921875 60.296875 -65.609375 59.875 -65.609375 C 59.03125 -65.578125 58.0625 -65.96875 57.625 -66.515625 L 54.125 -70.890625 C 49.34375 -76.9375 53.515625 -72.703125 49.453125 -78.1875 L 45.65625 -83.265625 C 44.203125 -85.1875 44.46875 -85.328125 40.671875 -90.84375 C 40.078125 -91.65625 39.359375 -92.734375 37.796875 -93.671875 C 35.796875 -95.03125 33.96875 -95.109375 31.171875 -95.015625 C 23.1875 -94.796875 25.453125 -93.890625 14.671875 -94.140625 C 11.296875 -94.1875 7.21875 -94.609375 5.328125 -92.75 C 4.5 -92.015625 3.15625 -89.90625 3.28125 -85.421875 C 3.421875 -80.375 5.203125 -77.484375 5.046875 -72.703125 Z M 4.84375 -60.65625 "/></g></g></g><g fill="#4056a1" fill-opacity="1"><g transform="translate(529.788853, 712.309249)"><g><path d="M 3.390625 -76.71875 C 3.40625 -76.15625 3.484375 -73.21875 3.5 -72.65625 C 3.515625 -68.1875 3.03125 -69.984375 3.203125 -64.25 C 3.375 -58.5 3.84375 -56.5625 4.078125 -52.65625 C 4.5 -47.765625 3.703125 -51.53125 4.828125 -41.328125 C 5.1875 -38.828125 5.296875 -35.1875 5.34375 -33.078125 C 5.40625 -30.984375 5.046875 -28.859375 5.125 -26.34375 L 5.15625 -10.9375 C 5.1875 -9.8125 5.21875 -8.703125 5.109375 -7.578125 C 5.140625 -6.875 5.015625 -6.3125 5.03125 -5.625 C 5.109375 -2.953125 5.6875 -2 6.6875 -1.171875 C 7.984375 -0.09375 9.125 0.296875 11.359375 0.234375 C 11.640625 0.234375 11.78125 0.21875 12.0625 0.21875 C 19.75 -0.140625 18.46875 -0.53125 23.09375 -0.671875 L 34.71875 -0.859375 C 36.671875 -0.921875 41.4375 -1.046875 43.8125 -1.265625 C 45.078125 -1.296875 46.46875 -1.484375 47.734375 -1.375 C 49.5625 -1.28125 51.671875 -0.921875 53.90625 -0.984375 C 54.609375 -1.015625 55.296875 -1.171875 56 -1.1875 C 56.984375 -1.21875 57.953125 -1.25 59.078125 -1.421875 C 63.6875 -1.6875 59.609375 -2 63.671875 -2.109375 L 65.765625 -2.171875 C 67.453125 -2.21875 66.203125 -1.90625 69.84375 -1.875 C 70.96875 -1.90625 71.953125 -1.78125 73.0625 -1.96875 C 77.546875 -2.375 79.296875 -4.375 78.265625 -16.40625 L 78.046875 -19.0625 C 77.8125 -22.40625 78.1875 -19.203125 78.0625 -23.390625 C 78.015625 -24.796875 77.640625 -28.28125 75.1875 -30.3125 C 73.90625 -31.40625 72.5 -31.5 71.09375 -31.453125 C 70.6875 -31.453125 70.125 -31.4375 69.703125 -31.421875 C 69 -31.40625 68.15625 -31.234375 67.453125 -31.21875 C 66.625 -31.1875 65.78125 -31.171875 64.9375 -31.140625 L 61.578125 -31.046875 C 58.921875 -30.96875 55.84375 -30.734375 53.625 -30.53125 C 52.09375 -30.34375 49.984375 -30.015625 47.46875 -29.9375 C 45.921875 -29.890625 44.109375 -29.984375 42.671875 -31.0625 C 41.53125 -31.875 41.21875 -32.984375 41.203125 -33.6875 C 41.1875 -34.25 41.578125 -35.09375 41.984375 -35.671875 C 42.390625 -36.109375 43.34375 -36.96875 44.890625 -37.015625 C 45.296875 -37.015625 45.875 -36.890625 46.296875 -36.90625 C 47.28125 -36.796875 48.125 -36.953125 49.09375 -36.984375 L 55.53125 -37.03125 C 61.40625 -37.0625 60.96875 -37.609375 67 -37.921875 C 67.96875 -37.953125 68.8125 -37.984375 69.796875 -38 C 71.328125 -38.046875 72.015625 -38.359375 72.84375 -39.21875 C 73.796875 -40.09375 74.203125 -40.9375 74.125 -43.1875 C 74.09375 -44.3125 73.9375 -45.125 73.765625 -45.96875 C 73.4375 -47.515625 73.578125 -47.9375 73.546875 -48.765625 L 73.046875 -56.453125 C 73.03125 -57.140625 72.84375 -58.546875 71.8125 -60.1875 C 70.640625 -61.984375 68.53125 -62.0625 66.703125 -62.015625 C 64.609375 -61.953125 62.390625 -61.46875 60.28125 -61.40625 C 57.90625 -61.34375 55.375 -61.40625 53.015625 -61.203125 C 50.921875 -61 50.65625 -60.84375 49.25 -60.671875 C 48.40625 -60.640625 47.71875 -60.625 46.875 -60.59375 C 44.484375 -60.53125 41.828125 -60.3125 40.265625 -61.390625 C 39.265625 -62.0625 39.09375 -63.03125 39.0625 -64.015625 C 38.96875 -67.234375 41.34375 -67.59375 43.03125 -67.640625 C 44.84375 -67.6875 46.53125 -67.453125 48.34375 -67.515625 C 50.453125 -67.5625 52.671875 -68.34375 54.78125 -68.109375 L 56.59375 -67.890625 C 58.71875 -67.671875 59.828125 -67.703125 60.671875 -67.71875 C 60.8125 -67.71875 60.953125 -67.734375 61.09375 -67.734375 C 61.796875 -67.75 62.484375 -67.921875 63.171875 -67.9375 C 63.453125 -67.9375 63.875 -67.953125 64.15625 -67.96875 C 65.5625 -68 66.96875 -67.765625 68.375 -67.796875 C 70.75 -67.875 71.578125 -68.453125 72.390625 -69.46875 C 73.203125 -70.453125 73.859375 -71.890625 73.78125 -74.546875 C 73.625 -79.875 73.171875 -76.640625 73.046875 -80.984375 L 72.953125 -84.0625 C 72.90625 -85.734375 72.890625 -86.15625 72.890625 -86.578125 C 72.859375 -87.5625 72.96875 -88.546875 72.9375 -89.515625 C 72.90625 -90.921875 72.546875 -93.28125 70.25 -94.890625 C 69.390625 -95.4375 68.125 -96.078125 65.046875 -96 C 62.09375 -95.90625 64.484375 -95.71875 57.921875 -95.390625 C 57.078125 -95.359375 56.234375 -95.34375 55.390625 -95.3125 C 53.4375 -95.25 51.34375 -94.90625 49.390625 -94.859375 C 47.421875 -94.796875 45.328125 -94.875 43.359375 -94.828125 C 42.8125 -94.8125 42.25 -94.796875 41.6875 -94.78125 C 40.421875 -94.734375 39.3125 -94.84375 38.046875 -94.8125 C 37.203125 -94.78125 36.21875 -94.765625 35.390625 -94.734375 C 33.5625 -94.6875 31.734375 -94.765625 29.90625 -94.71875 C 25.984375 -94.609375 22.359375 -94.21875 19 -94.125 C 16.625 -94.0625 14.234375 -94.671875 11.859375 -94.609375 C 11.296875 -94.59375 7.234375 -94.46875 4.90625 -92.3125 C 3.546875 -91.015625 2.359375 -88.46875 2.59375 -85.390625 Z M 3.390625 -76.71875 "/></g></g></g><g fill="#4056a1" fill-opacity="1"><g transform="translate(611.948675, 709.944068)"><g><path d="M 18.53125 -47.328125 C 23.359375 -40.03125 25.46875 -34.921875 25.921875 -33.8125 C 27.421875 -30.34375 27.4375 -29.359375 27.8125 -26.4375 C 28.015625 -24.34375 28 -24.484375 28.109375 -20.703125 C 28.234375 -16.375 28.46875 -13.578125 28.234375 -11.890625 C 28.125 -10.46875 27.484375 -8.640625 27.546875 -6.390625 C 27.625 -3.734375 28.203125 -3.046875 28.921875 -2.375 C 29.5 -1.828125 31.234375 -0.46875 34.171875 -0.5625 C 37.25 -0.65625 35.6875 -0.890625 39.609375 -1 C 41.71875 -1.0625 43.96875 -0.984375 46.0625 -1.046875 C 49.578125 -1.140625 51.359375 -1.90625 55 -1.578125 C 56.6875 -1.484375 58.09375 -1.109375 59.640625 -1.15625 C 62.71875 -1.234375 63.671875 -2.109375 64.359375 -2.984375 C 65.5625 -4.546875 65.53125 -5.953125 65.453125 -8.609375 C 65.375 -11 64.5625 -9.984375 64.390625 -16 C 64.265625 -20.0625 64.296875 -29.171875 64.625 -32.40625 C 64.96875 -35.0625 65.359375 -35.921875 66.15625 -37.625 C 71.3125 -48.421875 65.953125 -40 81.640625 -64.125 C 85.671875 -70.265625 84.484375 -67.984375 85.921875 -71.25 C 90.390625 -81.34375 89.796875 -77.8125 91.90625 -81.796875 C 92.84375 -83.5 92.421875 -83.78125 94.15625 -86.765625 C 94.703125 -87.625 95.21875 -88.484375 95.484375 -89.328125 C 95.609375 -89.890625 95.84375 -91.15625 95.828125 -92 C 95.796875 -93.109375 95.484375 -94.09375 94.921875 -94.765625 C 93.3125 -96.6875 90.515625 -96.609375 88.828125 -96.5625 C 87.03125 -96.5 85.359375 -96.171875 83.6875 -95.984375 C 81.578125 -95.78125 79.625 -95.875 77.515625 -95.8125 C 72.34375 -95.515625 72.640625 -95.25 69.8125 -95.453125 C 68.84375 -95.5625 68 -95.671875 67.15625 -95.65625 C 65.203125 -95.59375 63.53125 -94.84375 62 -94.09375 C 60.625 -93.359375 60.21875 -92.796875 59.6875 -92.078125 C 58.875 -90.9375 58.34375 -89.65625 57.15625 -87.390625 C 54.765625 -82.6875 52.859375 -80.8125 50.890625 -77.25 C 47.40625 -71.40625 45.921875 -69.40625 44.65625 -69.375 C 44.375 -69.359375 43.53125 -69.609375 43.25 -69.734375 C 41.96875 -70.40625 40.90625 -72.765625 37.65625 -78.6875 C 34.84375 -83.953125 33.96875 -85.3125 33.671875 -85.71875 C 33.078125 -86.546875 33.21875 -86.703125 33.0625 -87.109375 C 31.8125 -91.96875 30.25 -92.90625 29.953125 -93.171875 C 29.53125 -93.4375 27.671875 -94.65625 26.96875 -94.640625 C 25.421875 -94.59375 23.625 -94.109375 19.5625 -94 C 18.71875 -93.96875 18.015625 -93.953125 17.1875 -93.9375 C 15.640625 -93.890625 13.96875 -93.84375 12.4375 -93.9375 C 11.875 -93.921875 11.453125 -94.046875 10.890625 -94.03125 C 9.78125 -94 8.65625 -93.6875 7.53125 -93.65625 C 6 -93.609375 4.578125 -93.984375 3.03125 -94.09375 C 2.484375 -94.078125 1.78125 -94.046875 1.21875 -94.03125 C -0.046875 -94 -2.703125 -94.046875 -4.34375 -92.46875 C -5.015625 -91.75 -5.53125 -90.078125 -5.5 -88.8125 C -5.421875 -86.15625 -3.53125 -83.671875 -2.65625 -82.4375 C 3.046875 -74.484375 -1.984375 -78.6875 8.5625 -62.578125 Z M 18.53125 -47.328125 "/></g></g></g><g fill="#4056a1" fill-opacity="1"><g transform="translate(707.125276, 707.204167)"><g/></g></g><g fill="#4056a1" fill-opacity="1"><g transform="translate(739.73725, 706.265348)"><g><path d="M 3.921875 -73.09375 C 4.15625 -69.875 3.8125 -66.796875 3.90625 -63.578125 C 4 -60.21875 4.234375 -57 4.34375 -53.640625 C 4.5 -47.765625 4.109375 -51.53125 4.234375 -42.84375 C 4.25 -42.5625 4.25 -42.296875 4.265625 -42.015625 C 4.671875 -32.34375 5.140625 -35.71875 5.265625 -31.25 C 5.265625 -31.109375 5.28125 -30.828125 5.28125 -30.6875 C 5.296875 -29.84375 5.328125 -28.859375 5.21875 -28.015625 C 5.125 -26.203125 4.890625 -24.5 4.9375 -22.6875 L 5.296875 -15.4375 C 5.375 -12.5 5.25 -12.203125 5.171875 -10.515625 C 5.0625 -9.265625 4.875 -6.15625 4.890625 -5.328125 C 4.9375 -4.0625 5.109375 -2.671875 6.40625 -1.453125 C 8 0.046875 9.8125 0.140625 10.796875 0.109375 C 11.78125 0.078125 12.625 0.0625 13.59375 -0.109375 C 14.703125 -0.28125 15.828125 -0.453125 16.9375 -0.484375 L 20.703125 -0.59375 C 21.125 -0.609375 21.546875 -0.484375 21.96875 -0.484375 C 22.828125 -0.375 23.8125 -0.265625 24.640625 -0.28125 C 25.765625 -0.3125 27.03125 -0.5 28.125 -0.671875 C 29.25 -0.84375 30.375 -0.875 31.484375 -0.90625 C 33.171875 -0.953125 34.71875 -0.859375 36.390625 -0.90625 C 38.765625 -0.96875 40.4375 -1.4375 41.8125 -2.609375 C 42.625 -3.1875 43.171875 -4.046875 43.265625 -5.734375 C 43.25 -6.015625 43.25 -6.15625 43.234375 -6.4375 C 42.90625 -8.375 42.609375 -9.078125 42.4375 -10.0625 L 42.09375 -11.859375 C 41.9375 -13.125 41.890625 -14.796875 41.875 -15.359375 C 41.84375 -16.34375 41.921875 -18.296875 44.265625 -19.609375 C 45.78125 -20.5 47.59375 -20.703125 49.15625 -20.609375 L 51.390625 -20.53125 C 54.453125 -20.46875 61.71875 -21.25 65.34375 -22.171875 C 74.796875 -24.84375 80.125 -29.203125 82.71875 -31.9375 L 88.15625 -37.6875 C 88.4375 -37.984375 91.671875 -41.71875 92.671875 -46.234375 C 93.515625 -50.46875 93.453125 -52.5625 93.796875 -55.390625 C 94.015625 -57.34375 94.390625 -59.03125 94.203125 -60.984375 L 93.625 -66.4375 C 93.265625 -69.21875 91.953125 -71.28125 91.34375 -72.8125 L 90.125 -75.71875 C 89.53125 -77.25 87.515625 -79.421875 87.234375 -79.703125 C 86.359375 -80.65625 84.34375 -82.421875 77.328125 -87.546875 C 73.171875 -90.640625 72.34375 -90.765625 63.578125 -92.890625 C 60.765625 -93.5 60.046875 -93.890625 56.109375 -94.484375 C 53.015625 -94.96875 49.234375 -95.6875 39.015625 -95.390625 C 35.796875 -95.296875 32.703125 -94.9375 29.484375 -94.84375 C 28.234375 -94.8125 26.96875 -94.78125 25.703125 -94.734375 C 24.453125 -94.703125 22.90625 -94.515625 20.828125 -94.3125 C 19 -94.125 17.875 -93.953125 16.765625 -93.921875 C 14.671875 -93.859375 12.5625 -94.21875 10.3125 -94.15625 C 8.921875 -94.109375 6.53125 -94.046875 4.765625 -92.453125 C 3.53125 -91.296875 2.5 -88.75 2.5625 -86.65625 C 2.59375 -85.53125 3.21875 -82.890625 3.4375 -80.234375 Z M 49.6875 -65.03125 C 53.1875 -64.5625 56.296875 -63.390625 58.046875 -61.625 C 59.1875 -60.390625 59.640625 -59.28125 59.6875 -57.75 C 59.734375 -55.9375 59.359375 -54.390625 58.15625 -52.953125 C 56.109375 -50.796875 53.453125 -50.71875 51.515625 -50.234375 C 49.84375 -49.90625 47.203125 -48.984375 45.09375 -48.9375 C 43.984375 -48.90625 42.015625 -49.125 41.140625 -49.9375 C 40.59375 -50.34375 40.140625 -51.171875 40.09375 -52.578125 C 40.0625 -53.984375 40.3125 -55.234375 40.265625 -56.625 C 40.21875 -58.171875 39.890625 -59.703125 40.140625 -61.109375 C 40.375 -62.65625 40.375 -62.515625 40.765625 -63.21875 C 41.4375 -64.234375 41.828125 -65.078125 46.453125 -65.21875 C 47.578125 -65.25 48.5625 -65.140625 49.6875 -65.03125 Z M 49.6875 -65.03125 "/></g></g></g><g fill="#4056a1" fill-opacity="1"><g transform="translate(835.893654, 703.497241)"><g><path d="M 3.6875 -76.453125 C 3.71875 -75.0625 3.890625 -74.21875 3.953125 -71.984375 C 4 -70.296875 3.90625 -68.75 3.953125 -67.078125 C 3.984375 -65.671875 4.03125 -64.421875 4.0625 -63.015625 L 4.484375 -48.328125 C 4.71875 -40.34375 5.5625 -40.21875 5.328125 -34.0625 C 5.25 -31.515625 5.046875 -28.71875 5.125 -26.0625 L 5.28125 -20.734375 C 5.390625 -16.828125 5.703125 -16 5.65625 -12.78125 C 5.578125 -10.390625 5.359375 -8.5625 5.40625 -6.453125 C 5.484375 -3.9375 5.796875 -2.6875 6.8125 -1.75 C 8.40625 -0.234375 11.5 0.234375 13.453125 0.03125 L 22.953125 -0.65625 L 29.671875 -0.859375 C 30.234375 -0.875 30.9375 -0.75 31.484375 -0.765625 C 32.1875 -0.78125 33.03125 -0.8125 33.734375 -0.828125 C 34.578125 -0.859375 35.5625 -0.734375 36.40625 -0.765625 C 37.671875 -0.796875 39.765625 -0.859375 41.546875 -2.46875 C 43.03125 -3.75 43.25 -6.015625 43.359375 -7.125 C 43.34375 -7.546875 43.34375 -7.96875 43.328125 -8.390625 C 43.125 -10.21875 43.1875 -8.390625 42.65625 -11.875 C 42.3125 -14.390625 41.984375 -15.921875 41.9375 -17.46875 C 41.875 -19.546875 42.09375 -21.65625 42.171875 -23.765625 C 42.15625 -24.75 42.125 -25.71875 42.09375 -26.703125 C 42.09375 -26.984375 42.078125 -27.265625 42.078125 -27.546875 C 41.90625 -33.28125 41.53125 -31.734375 41.40625 -36.078125 L 41.0625 -48.109375 C 41 -49.9375 41.09375 -51.46875 41.21875 -52.46875 C 41.328125 -53.59375 41.46875 -58.203125 41.421875 -59.734375 C 41.28125 -64.78125 40.296875 -70.078125 40.328125 -73.578125 L 40.46875 -78.359375 C 40.4375 -79.34375 40.6875 -80.59375 40.625 -82.84375 C 40.59375 -83.546875 40.578125 -84.375 40.5625 -85.078125 C 40.484375 -87.75 40.375 -91.109375 37.515625 -93.25 C 34.671875 -95.265625 29.90625 -94.984375 26.546875 -94.625 L 23.90625 -94.265625 C 23.0625 -94.09375 20 -93.734375 18.03125 -93.671875 C 14.125 -93.5625 12.421875 -94.21875 9.484375 -94.125 C 6.8125 -94.0625 5.71875 -93.453125 4.765625 -92.453125 C 3.40625 -91.015625 2.765625 -89.46875 2.96875 -86.9375 Z M 3.6875 -76.453125 "/></g></g></g><g fill="#4056a1" fill-opacity="1"><g transform="translate(884.881597, 702.086998)"><g><path d="M -2.328125 -70.953125 C -2.375 -67.875 -1.640625 -66.78125 -1.203125 -66.21875 C 0.09375 -64.453125 1.09375 -64.1875 7 -63.796875 L 10.21875 -63.609375 C 11.625 -63.515625 13.015625 -63.6875 14.328125 -62.46875 C 15.46875 -61.515625 16.515625 -59.3125 16.4375 -56.921875 L 16.28125 -47.53125 C 16.328125 -46 16.625 -45.734375 16.703125 -42.921875 C 16.734375 -41.8125 16.765625 -40.546875 16.453125 -36.75 C 15.984375 -28.75 16.53125 -29.46875 16.59375 -27.234375 L 16.953125 -19.390625 C 17.40625 -8.90625 16.671875 -14.625 16.90625 -6.640625 C 16.9375 -5.53125 16.96875 -4.265625 18.6875 -2.5 C 20.140625 -1 21.546875 -0.484375 24.484375 -0.5625 C 27.296875 -0.640625 26.171875 -0.75 29.53125 -0.84375 L 35.546875 -1.015625 C 40.59375 -1.171875 42.015625 -0.921875 44.671875 -1 C 50.125 -1.15625 50.671875 -1.453125 52.4375 -3.46875 C 53.796875 -5.046875 54.1875 -5.90625 54.125 -8.28125 C 54.078125 -9.6875 53.765625 -10.65625 53.609375 -11.484375 C 53.28125 -12.75 52.96875 -14.421875 52.921875 -16.234375 L 52.53125 -29.515625 C 52.359375 -35.546875 52.09375 -40.03125 52.53125 -43.953125 C 52.640625 -44.796875 52.75 -46.203125 52.703125 -47.734375 C 52.65625 -49.140625 52.359375 -49.703125 52.234375 -54.1875 C 52.109375 -58.640625 52.15625 -61.734375 54.484375 -63.625 C 56.109375 -64.9375 58.78125 -65.4375 61.015625 -65.5 C 63.53125 -65.5625 63.390625 -65.140625 66.328125 -65.234375 C 68.296875 -65.28125 69.40625 -65.875 69.96875 -66.3125 C 71.453125 -67.75 71.421875 -69.15625 71.390625 -70 C 71.3125 -72.9375 70.9375 -75.734375 70.71875 -78.65625 C 70.6875 -79.921875 70.515625 -81.046875 70.609375 -82.296875 C 70.703125 -83.859375 71.046875 -86.65625 70.984375 -89.171875 C 70.9375 -90.859375 70.453125 -92.953125 68.75 -94 C 67.171875 -95.09375 63.78125 -95.6875 60.28125 -95.59375 C 49.796875 -95.296875 54.015625 -94.5625 46.890625 -94.5 L 27.6875 -94.375 C 22.921875 -94.375 23.0625 -93.953125 17.875 -93.8125 L 15.515625 -93.75 C 14.953125 -93.71875 14.109375 -93.703125 11.3125 -93.90625 C 9.21875 -93.984375 6.8125 -94.328125 4.578125 -94.25 C 3.734375 -94.234375 0.375 -94.140625 -1.25 -92.5625 C -2.625 -91.390625 -2.984375 -89.015625 -2.921875 -87.046875 C -2.90625 -86.21875 -2.671875 -83.265625 -2.5 -82.03125 C -2.34375 -81.46875 -2.34375 -81.1875 -2.3125 -80.625 L -2.25 -77.96875 Z M -2.328125 -70.953125 "/></g></g></g><g fill="#4056a1" fill-opacity="1"><g transform="translate(957.803687, 699.98775)"><g><path d="M -2.328125 -70.953125 C -2.375 -67.875 -1.640625 -66.78125 -1.203125 -66.21875 C 0.09375 -64.453125 1.09375 -64.1875 7 -63.796875 L 10.21875 -63.609375 C 11.625 -63.515625 13.015625 -63.6875 14.328125 -62.46875 C 15.46875 -61.515625 16.515625 -59.3125 16.4375 -56.921875 L 16.28125 -47.53125 C 16.328125 -46 16.625 -45.734375 16.703125 -42.921875 C 16.734375 -41.8125 16.765625 -40.546875 16.453125 -36.75 C 15.984375 -28.75 16.53125 -29.46875 16.59375 -27.234375 L 16.953125 -19.390625 C 17.40625 -8.90625 16.671875 -14.625 16.90625 -6.640625 C 16.9375 -5.53125 16.96875 -4.265625 18.6875 -2.5 C 20.140625 -1 21.546875 -0.484375 24.484375 -0.5625 C 27.296875 -0.640625 26.171875 -0.75 29.53125 -0.84375 L 35.546875 -1.015625 C 40.59375 -1.171875 42.015625 -0.921875 44.671875 -1 C 50.125 -1.15625 50.671875 -1.453125 52.4375 -3.46875 C 53.796875 -5.046875 54.1875 -5.90625 54.125 -8.28125 C 54.078125 -9.6875 53.765625 -10.65625 53.609375 -11.484375 C 53.28125 -12.75 52.96875 -14.421875 52.921875 -16.234375 L 52.53125 -29.515625 C 52.359375 -35.546875 52.09375 -40.03125 52.53125 -43.953125 C 52.640625 -44.796875 52.75 -46.203125 52.703125 -47.734375 C 52.65625 -49.140625 52.359375 -49.703125 52.234375 -54.1875 C 52.109375 -58.640625 52.15625 -61.734375 54.484375 -63.625 C 56.109375 -64.9375 58.78125 -65.4375 61.015625 -65.5 C 63.53125 -65.5625 63.390625 -65.140625 66.328125 -65.234375 C 68.296875 -65.28125 69.40625 -65.875 69.96875 -66.3125 C 71.453125 -67.75 71.421875 -69.15625 71.390625 -70 C 71.3125 -72.9375 70.9375 -75.734375 70.71875 -78.65625 C 70.6875 -79.921875 70.515625 -81.046875 70.609375 -82.296875 C 70.703125 -83.859375 71.046875 -86.65625 70.984375 -89.171875 C 70.9375 -90.859375 70.453125 -92.953125 68.75 -94 C 67.171875 -95.09375 63.78125 -95.6875 60.28125 -95.59375 C 49.796875 -95.296875 54.015625 -94.5625 46.890625 -94.5 L 27.6875 -94.375 C 22.921875 -94.375 23.0625 -93.953125 17.875 -93.8125 L 15.515625 -93.75 C 14.953125 -93.71875 14.109375 -93.703125 11.3125 -93.90625 C 9.21875 -93.984375 6.8125 -94.328125 4.578125 -94.25 C 3.734375 -94.234375 0.375 -94.140625 -1.25 -92.5625 C -2.625 -91.390625 -2.984375 -89.015625 -2.921875 -87.046875 C -2.90625 -86.21875 -2.671875 -83.265625 -2.5 -82.03125 C -2.34375 -81.46875 -2.34375 -81.1875 -2.3125 -80.625 L -2.25 -77.96875 Z M -2.328125 -70.953125 "/></g></g></g><g fill="#4056a1" fill-opacity="1"><g transform="translate(1030.725777, 697.888501)"><g><path d="M 3.671875 -81.78125 C 4.140625 -75.359375 4.453125 -78.859375 4.8125 -71.3125 C 4.84375 -70.46875 4.859375 -69.484375 4.890625 -68.640625 C 4.921875 -67.671875 4.8125 -66.53125 4.84375 -65.546875 C 4.859375 -64.578125 4.890625 -63.734375 4.921875 -62.75 C 4.953125 -61.765625 4.96875 -60.796875 5 -59.8125 C 5.0625 -57.703125 5.125 -55.75 5.1875 -53.65625 C 5.203125 -48.0625 4.796875 -47.203125 4.984375 -40.765625 C 5.078125 -37.828125 5.265625 -35.875 5.3125 -34.34375 C 5.515625 -32.375 5.859375 -30 5.921875 -27.890625 C 5.984375 -25.796875 5.75 -23.84375 5.578125 -20.328125 L 5.40625 -16.703125 C 5.328125 -14.171875 4.734375 -10.78125 4.8125 -8.125 C 4.875 -6.15625 5.21875 -4.078125 6.515625 -2.5625 C 8.109375 -0.65625 9.9375 -0.28125 12.1875 -0.34375 C 14.703125 -0.421875 15.265625 -0.578125 17.640625 -0.640625 L 21.40625 -0.75 C 22.53125 -0.796875 23.515625 -0.671875 24.625 -0.703125 C 25.1875 -0.71875 25.609375 -0.734375 26.171875 -0.75 C 26.59375 -0.765625 27.015625 -0.78125 27.4375 -0.796875 C 28.265625 -0.8125 29.109375 -0.984375 29.953125 -1 L 38.078125 -1.09375 C 41.296875 -1.1875 42.5 -3.046875 42.4375 -4.859375 L 41.953125 -12.5625 C 41.734375 -15.359375 42.484375 -13 42.375 -16.78125 C 42.28125 -19.984375 42.140625 -20.265625 42.078125 -22.5 L 41.859375 -29.78125 C 41.84375 -30.625 41.6875 -31.03125 41.53125 -31.59375 C 41.390625 -32.15625 41.21875 -33.40625 41.203125 -33.828125 C 41.140625 -36.078125 42.53125 -36.25 43.234375 -36.265625 C 44.921875 -36.328125 45.625 -35.359375 46.5 -34.53125 C 49.25 -31.53125 49.96875 -30.859375 50.6875 -30.453125 L 52.953125 -29.125 C 53.8125 -28.59375 55.375 -27.5 56.90625 -27.546875 C 57.890625 -27.578125 58.71875 -28.3125 62.53125 -32.0625 L 64.15625 -33.640625 C 65.671875 -35.09375 65.390625 -35.078125 67.296875 -36.828125 C 68.671875 -37.96875 69.5 -38.5625 70.0625 -38.578125 C 70.625 -38.59375 72.15625 -38.5 72.109375 -35.140625 L 72.078125 -31.625 C 72 -29.390625 72.34375 -27.15625 72.265625 -24.90625 C 72.296875 -23.921875 72.1875 -22.796875 72.21875 -21.828125 C 72.21875 -21.6875 72.21875 -21.40625 72.234375 -21.265625 C 72.234375 -20.84375 72.109375 -20.421875 72.125 -20.015625 C 72.140625 -19.453125 72.15625 -19.03125 72.171875 -18.484375 C 72.34375 -17.359375 72.6875 -15.40625 72.734375 -13.734375 L 72.78125 -6.71875 C 72.8125 -5.734375 73 -4.34375 74.4375 -3.125 C 75.578125 -2.171875 77.28125 -1.515625 80.5 -1.75 L 90.15625 -2.59375 C 92.375 -2.796875 93.921875 -2.5625 98.125 -2.546875 C 98.96875 -2.5625 99.8125 -2.453125 100.65625 -2.46875 C 101.21875 -2.484375 101.625 -2.5 102.1875 -2.515625 C 103.59375 -2.5625 105.828125 -2.765625 107.46875 -4.078125 C 109.25 -5.515625 109.5625 -9.03125 109.359375 -11.5625 L 108.6875 -19.9375 C 108.484375 -22.171875 108.5625 -24.546875 108.484375 -26.796875 C 108.453125 -27.90625 108.4375 -28.890625 108.25 -30.015625 C 108.03125 -33.234375 107.84375 -34.46875 107.515625 -41.625 C 107.28125 -44.984375 107.1875 -48.203125 107.234375 -51.5625 C 107.234375 -55.90625 107.671875 -60.375 107.40625 -64.71875 L 107.046875 -71.859375 C 107.046875 -72.28125 107.03125 -72.5625 107.015625 -72.984375 C 106.984375 -74.109375 106.828125 -75.078125 106.78125 -76.203125 C 106.78125 -76.625 106.75 -77.46875 106.75 -77.609375 L 106.75 -82.359375 L 106.921875 -86.015625 C 107.03125 -87.28125 107.15625 -88.125 107.234375 -90.21875 C 107.21875 -90.5 107.21875 -90.640625 107.203125 -90.921875 C 107.1875 -91.90625 106.5625 -93.5625 106 -94.390625 C 104.828125 -95.75 102 -96.9375 98.21875 -96.6875 L 88.703125 -96.125 C 88.296875 -96.125 88.015625 -96.109375 87.59375 -96.09375 C 86.625 -96.0625 85.5 -95.890625 84.515625 -95.875 C 83.6875 -95.84375 82.84375 -95.828125 82 -95.796875 C 78.5 -95.84375 80.3125 -95.890625 77.515625 -95.953125 C 77.234375 -95.9375 76.953125 -95.9375 76.671875 -95.921875 C 75.140625 -95.875 73.03125 -95.53125 70.203125 -91.828125 C 68.046875 -88.953125 65.515625 -84.40625 64.984375 -83.546875 C 62.046875 -78.40625 59.078125 -73.984375 56.84375 -73.921875 C 56.28125 -73.890625 55.421875 -74.296875 54.859375 -74.703125 C 54.15625 -75.109375 52.703125 -76.609375 52.28125 -77.015625 C 51.5625 -77.828125 51.84375 -77.828125 49.109375 -80.4375 C 45.9375 -83.5625 44.34375 -85.1875 42.875 -87.546875 C 41.546875 -89.59375 40.65625 -91.40625 39.078125 -92.875 C 37.640625 -94.234375 36.0625 -94.890625 32.5625 -94.796875 C 30.75 -94.75 29.21875 -94.5625 27.125 -94.359375 C 23.34375 -93.96875 22.078125 -94.359375 18.5625 -94.390625 L 11.296875 -94.59375 C 9.328125 -94.671875 6.953125 -94.203125 5.734375 -93.03125 C 4.09375 -91.578125 3.203125 -88.21875 3.4375 -84.859375 Z M 3.671875 -81.78125 "/></g></g></g><g fill="#4056a1" fill-opacity="1"><g transform="translate(1145.497611, 694.584501)"><g><path d="M 12.265625 -65.765625 C 9.8125 -58.265625 10.15625 -56.46875 9.4375 -52.109375 C 8.828125 -48.59375 7.828125 -45.0625 6.546875 -40.53125 C 5.140625 -35.71875 5.140625 -35.296875 4.390625 -32.625 C 4 -31.484375 3.21875 -29.21875 2.59375 -26.828125 C 1.0625 -21.59375 0.578125 -18.78125 0.21875 -17.09375 C -0.40625 -14.28125 -0.953125 -13.421875 -1.46875 -11.875 C -1.859375 -10.59375 -2.09375 -9.1875 -2.046875 -7.796875 C -1.96875 -4.71875 -0.921875 -2.765625 0.234375 -1.84375 C 2.671875 0.34375 6.71875 -0.328125 9.9375 -0.28125 L 18.21875 -0.25 L 21.140625 -0.328125 C 26.75 -0.484375 22.953125 -0.796875 27.703125 -0.796875 C 28.40625 -0.8125 29.109375 -0.703125 29.8125 -0.859375 C 30.515625 -1.015625 31.890625 -1.625 32.4375 -2.203125 C 32.984375 -2.640625 33.234375 -3.46875 34.4375 -5.765625 L 36.5625 -9.75 C 36.703125 -9.890625 36.828125 -10.171875 36.96875 -10.3125 C 37.109375 -10.453125 37.09375 -10.59375 37.234375 -10.734375 C 38.046875 -11.890625 39.71875 -12.078125 40.984375 -12.109375 C 41.828125 -12.140625 42.234375 -12 45.1875 -11.953125 L 49.953125 -11.8125 C 53.734375 -11.625 56.90625 -13.125 60.3125 -11.96875 C 62.71875 -11.1875 63.46875 -9.671875 64.34375 -8.015625 L 65.53125 -5.671875 C 66.875 -2.90625 68.578125 -2.109375 69.5625 -1.859375 C 71.265625 -1.484375 75.03125 -2.296875 80.90625 -2.328125 L 89.453125 -2.4375 C 90.015625 -2.453125 90.421875 -2.46875 90.984375 -2.484375 C 91.53125 -2.5 92.109375 -2.375 92.671875 -2.390625 C 93.09375 -2.390625 93.375 -2.40625 93.796875 -2.421875 C 97.6875 -2.671875 98.5 -3.671875 99.171875 -4.953125 C 100.109375 -6.53125 99.96875 -6.796875 99.9375 -7.921875 C 99.921875 -8.203125 99.90625 -8.609375 99.90625 -8.890625 C 99.890625 -9.453125 99.421875 -11.28125 98.8125 -12.796875 C 98.359375 -13.625 98.0625 -14.3125 97.59375 -15.703125 C 97.296875 -16.53125 97 -17.21875 96.84375 -17.921875 C 95.453125 -22.359375 94.75 -26.953125 93.09375 -31.390625 L 92.1875 -33.890625 C 90.5 -38.609375 90.046875 -40.140625 89.078125 -44.171875 C 87.203125 -51.6875 86.875 -52.796875 86.578125 -53.765625 L 85.96875 -55.296875 C 85.046875 -57.640625 85.34375 -57.09375 84.765625 -58.1875 C 84.625 -58.46875 84.46875 -58.75 84.328125 -59.015625 C 84.171875 -59.703125 84.015625 -59.984375 83.21875 -63.046875 L 81.65625 -68.609375 C 80.890625 -71.390625 79.6875 -74.171875 78.484375 -76.78125 C 77.734375 -78.4375 76.96875 -80.25 76.515625 -82.046875 L 75.734375 -84.84375 C 74.640625 -88.453125 73.703125 -91.640625 71.140625 -93.390625 C 68.421875 -95.265625 64.78125 -95.4375 62.953125 -95.390625 C 61.5625 -95.34375 60.015625 -95.15625 58.609375 -95.125 C 56.796875 -95.078125 51.765625 -94.921875 49.53125 -95 L 47.140625 -95.078125 L 42.796875 -95.09375 C 41.671875 -95.0625 40.703125 -94.890625 39.59375 -94.859375 C 38.609375 -94.828125 37.484375 -94.65625 36.5 -94.625 C 30.640625 -94.03125 35.9375 -94.890625 28.65625 -94.40625 C 25.859375 -94.1875 23.484375 -93.96875 21.5625 -92.515625 C 19.09375 -90.640625 17.921875 -87.234375 17.6875 -86.25 C 16.15625 -81.015625 14.828125 -73.828125 13.9375 -71 Z M 44.34375 -41.765625 C 43.5 -41.734375 42.359375 -41.84375 41.625 -42.953125 C 41.1875 -43.625 41.15625 -44.890625 41.140625 -45.3125 C 41.109375 -46.4375 41.65625 -46.875 42.140625 -49.40625 C 42.515625 -51.09375 42.609375 -52.640625 43 -54.0625 C 43.375 -55.46875 43.890625 -57.015625 44.515625 -59.265625 C 44.765625 -60.40625 45.140625 -61.953125 45.828125 -62.53125 C 45.96875 -62.671875 46.65625 -63.25 47.5 -63.28125 C 48.046875 -63.296875 48.75 -63.171875 49.328125 -62.625 C 49.90625 -62.09375 50.65625 -60.84375 50.953125 -60.15625 C 51.40625 -58.90625 53.546875 -51.828125 53.875 -50.453125 L 54.828125 -46.828125 C 55.140625 -45.71875 55.453125 -44.59375 54.640625 -43.46875 C 53.828125 -42.453125 52.59375 -42 47.703125 -41.859375 Z M 44.34375 -41.765625 "/></g></g></g><g fill="#4056a1" fill-opacity="1"><g transform="translate(1243.613541, 691.759984)"><g><path d="M 4.84375 -60.65625 C 4.640625 -47.765625 4.734375 -44.828125 4.828125 -41.328125 L 5.421875 -25.5 C 5.59375 -19.90625 5.328125 -14.453125 4.9375 -8.84375 C 4.8125 -8.125 4.84375 -7.28125 4.859375 -6.578125 C 4.921875 -4.625 5.515625 -2.953125 6.390625 -2.015625 C 7.109375 -1.1875 8.6875 -0.25 10.640625 -0.3125 L 21.6875 -0.765625 C 24.484375 -0.84375 24.625 -0.5625 35.96875 -0.890625 C 38.640625 -0.96875 39.609375 -1.28125 40.703125 -2.296875 C 41.53125 -3.03125 42.0625 -3.875 42.015625 -5.703125 C 41.984375 -6.546875 41.828125 -7.21875 41.65625 -8.0625 C 41.5 -9.046875 41.3125 -10.171875 41.296875 -11.140625 C 41.28125 -11.28125 41.28125 -11.5625 41.265625 -12.125 L 41.1875 -14.640625 L 41.265625 -16.890625 C 41.3125 -19.953125 41.296875 -20.65625 41.296875 -20.9375 L 40.890625 -25.140625 C 40.5 -28.890625 41.03125 -30.03125 41.15625 -30.453125 C 41.671875 -31.734375 42.21875 -32.171875 42.78125 -32.1875 C 43.484375 -32.21875 44.625 -31.6875 45.1875 -31.140625 C 46.203125 -30.328125 46.359375 -29.484375 47.53125 -28.125 L 48.546875 -26.890625 C 51.015625 -23.875 49.296875 -24.953125 53.046875 -20.859375 C 56.515625 -17.1875 56.09375 -17.171875 57.703125 -14.828125 C 61.65625 -9.0625 62.21875 -8.65625 62.953125 -7.96875 C 65.390625 -5.671875 66.578125 -3.609375 68.84375 -2.40625 C 70.140625 -1.734375 71.40625 -1.625 75.46875 -1.75 L 76.578125 -1.78125 C 78.265625 -1.828125 79.515625 -2 82.03125 -2.21875 C 83.984375 -2.421875 84.828125 -2.4375 86.09375 -2.484375 L 88.75 -2.546875 C 89.453125 -2.578125 89.875 -2.453125 91 -2.34375 C 92.390625 -2.375 92.8125 -2.25 93.515625 -2.265625 C 93.65625 -2.265625 93.65625 -2.265625 93.796875 -2.28125 C 94.765625 -2.3125 95.75 -2.46875 97.53125 -3.65625 C 98.625 -4.671875 99.28125 -5.9375 99.375 -7.484375 C 99.375 -7.765625 99.359375 -8.1875 99.359375 -8.453125 C 99.34375 -8.59375 99.34375 -8.734375 99.34375 -8.875 C 99.296875 -10.28125 98.84375 -11.40625 98.65625 -13.34375 L 98.421875 -16.28125 C 98.421875 -16.421875 98.421875 -16.421875 98.421875 -16.5625 C 98.34375 -19.09375 98.265625 -21.59375 98.203125 -24.109375 C 98.078125 -28.59375 98.21875 -33.09375 98.09375 -37.578125 C 98.09375 -37.859375 98.078125 -37.984375 98.078125 -38.265625 C 98.046875 -39.390625 97.859375 -40.78125 97.609375 -44.703125 C 97.21875 -48.328125 97.046875 -49.296875 97.015625 -50.5625 C 96.921875 -53.640625 97.359375 -53.515625 97.359375 -57.984375 C 97.34375 -58.828125 97.328125 -59.53125 97.296875 -60.359375 C 97.265625 -61.484375 97.375 -62.765625 97.34375 -63.875 C 97.28125 -65.984375 96.921875 -68.34375 96.859375 -70.734375 C 96.828125 -71.703125 96.796875 -72.6875 96.78125 -73.671875 C 96.671875 -82.0625 97.515625 -82.234375 97.234375 -87.28125 C 97.15625 -89.65625 96.796875 -92.3125 94.796875 -94.1875 C 93.0625 -95.828125 90.953125 -96.328125 88.015625 -96.25 C 87.46875 -96.234375 87.046875 -96.21875 86.484375 -96.203125 C 85.21875 -96.171875 84.234375 -96.140625 81.4375 -95.921875 L 79.203125 -95.71875 C 78.921875 -95.703125 78.5 -95.703125 76.953125 -95.65625 C 76.265625 -95.625 75.5625 -95.75 74.859375 -95.734375 C 73.3125 -95.828125 71.625 -95.921875 70.078125 -95.875 L 67.703125 -95.8125 C 66.015625 -95.765625 64.359375 -95.140625 63.8125 -94.84375 C 62.703125 -94.390625 60.640625 -92.8125 60.609375 -89.15625 C 60.625 -88.875 60.625 -88.453125 60.640625 -88.1875 C 60.6875 -86.640625 61.171875 -84.140625 61.25 -81.609375 L 61.484375 -73.640625 C 61.5 -72.9375 61.390625 -72.09375 61.546875 -71.390625 C 61.546875 -71.109375 61.703125 -70.6875 61.71875 -70.40625 C 61.875 -69.734375 61.75 -69.15625 61.765625 -68.453125 C 61.796875 -67.75 61.8125 -66.765625 61.265625 -66.203125 C 61 -65.921875 60.296875 -65.609375 59.875 -65.609375 C 59.03125 -65.578125 58.0625 -65.96875 57.625 -66.515625 L 54.125 -70.890625 C 49.34375 -76.9375 53.515625 -72.703125 49.453125 -78.1875 L 45.65625 -83.265625 C 44.203125 -85.1875 44.46875 -85.328125 40.671875 -90.84375 C 40.078125 -91.65625 39.359375 -92.734375 37.796875 -93.671875 C 35.796875 -95.03125 33.96875 -95.109375 31.171875 -95.015625 C 23.1875 -94.796875 25.453125 -93.890625 14.671875 -94.140625 C 11.296875 -94.1875 7.21875 -94.609375 5.328125 -92.75 C 4.5 -92.015625 3.15625 -89.90625 3.28125 -85.421875 C 3.421875 -80.375 5.203125 -77.484375 5.046875 -72.703125 Z M 4.84375 -60.65625 "/></g></g></g><path fill="#4056a1" d="M 331.222656 726.238281 L 1170.28125 748.050781 C 1199.496094 748.808594 1222.5625 773.109375 1221.804688 802.320312 L 1219.050781 908.113281 C 1218.292969 937.328125 1193.996094 960.394531 1164.78125 959.636719 L 325.722656 937.824219 C 296.507812 937.066406 273.441406 912.765625 274.199219 883.550781 L 276.949219 777.757812 C 277.710938 748.546875 302.007812 725.476562 331.222656 726.238281 Z M 331.222656 726.238281 " fill-opacity="1" fill-rule="nonzero"/><g fill="#efe2ba" fill-opacity="1"><g transform="translate(330.436473, 875.752939)"><g><path d="M 7.90625 -72.765625 C 7.96875 -69.546875 7.46875 -66.484375 7.390625 -63.265625 C 7.296875 -59.90625 7.359375 -56.6875 7.265625 -53.3125 C 7.109375 -47.4375 6.921875 -51.234375 6.578125 -42.546875 C 6.578125 -42.265625 6.5625 -42 6.5625 -41.71875 C 6.4375 -32.046875 7.078125 -35.390625 6.96875 -30.921875 C 6.953125 -30.78125 6.953125 -30.5 6.953125 -30.359375 C 6.921875 -29.515625 6.90625 -28.53125 6.734375 -27.6875 C 6.546875 -25.875 6.234375 -24.203125 6.171875 -22.390625 L 6.125 -15.109375 C 6.0625 -12.171875 5.90625 -11.90625 5.734375 -10.21875 C 5.5625 -8.96875 5.203125 -5.890625 5.1875 -5.0625 C 5.15625 -3.796875 5.25 -2.375 6.46875 -1.09375 C 7.984375 0.484375 9.78125 0.671875 10.765625 0.703125 C 11.75 0.734375 12.59375 0.75 13.578125 0.640625 C 14.703125 0.515625 15.828125 0.40625 16.9375 0.4375 L 20.71875 0.53125 C 21.140625 0.546875 21.5625 0.703125 21.984375 0.71875 C 22.8125 0.875 23.78125 1.046875 24.609375 1.0625 C 25.734375 1.09375 27.015625 0.984375 28.125 0.875 C 29.25 0.765625 30.375 0.796875 31.484375 0.8125 C 33.171875 0.859375 34.71875 1.046875 36.390625 1.09375 C 38.765625 1.140625 40.453125 0.765625 41.890625 -0.3125 C 42.734375 -0.84375 43.328125 -1.671875 43.5 -3.359375 C 43.515625 -3.640625 43.515625 -3.78125 43.53125 -4.0625 C 43.296875 -6.015625 43.03125 -6.734375 42.921875 -7.71875 L 42.6875 -9.53125 C 42.59375 -10.8125 42.640625 -12.484375 42.65625 -13.046875 C 42.671875 -14.03125 42.84375 -15.96875 45.28125 -17.171875 C 46.828125 -17.984375 48.65625 -18.078125 50.203125 -17.890625 L 52.4375 -17.703125 C 55.5 -17.46875 62.796875 -17.84375 66.46875 -18.578125 C 76.046875 -20.703125 81.609375 -24.765625 84.328125 -27.359375 L 90.078125 -32.8125 C 90.375 -33.078125 93.828125 -36.640625 95.0625 -41.09375 C 96.140625 -45.265625 96.203125 -47.359375 96.703125 -50.15625 C 97.03125 -52.109375 97.5 -53.78125 97.40625 -55.734375 L 97.125 -61.21875 C 96.921875 -64.03125 95.71875 -66.140625 95.203125 -67.703125 L 94.15625 -70.671875 C 93.625 -72.21875 91.734375 -74.515625 91.453125 -74.796875 C 90.640625 -75.8125 88.71875 -77.671875 82 -83.171875 C 78.015625 -86.5 77.1875 -86.65625 68.578125 -89.265625 C 65.8125 -90.03125 65.109375 -90.484375 61.203125 -91.28125 C 58.140625 -91.921875 54.390625 -92.859375 44.171875 -93.125 C 40.953125 -93.203125 37.84375 -93.015625 34.625 -93.09375 C 33.375 -93.140625 32.109375 -93.171875 30.84375 -93.203125 C 29.59375 -93.234375 28.046875 -93.125 25.953125 -93.046875 C 24.140625 -92.953125 23 -92.84375 21.890625 -92.875 C 19.78125 -92.921875 17.703125 -93.40625 15.453125 -93.453125 C 14.0625 -93.5 11.671875 -93.5625 9.8125 -92.0625 C 8.53125 -90.96875 7.34375 -88.484375 7.296875 -86.390625 C 7.265625 -85.265625 7.75 -82.59375 7.8125 -79.90625 Z M 53.171875 -62.21875 C 56.65625 -61.5625 59.703125 -60.21875 61.34375 -58.375 C 62.421875 -57.078125 62.8125 -55.9375 62.765625 -54.40625 C 62.71875 -52.578125 62.265625 -51.0625 60.96875 -49.6875 C 58.8125 -47.640625 56.15625 -47.71875 54.1875 -47.34375 C 52.5 -47.109375 49.8125 -46.328125 47.703125 -46.390625 C 46.59375 -46.421875 44.640625 -46.75 43.8125 -47.609375 C 43.28125 -48.046875 42.875 -48.890625 42.90625 -50.296875 C 42.953125 -51.703125 43.265625 -52.9375 43.296875 -54.34375 C 43.34375 -55.890625 43.09375 -57.4375 43.421875 -58.828125 C 43.734375 -60.359375 43.734375 -60.21875 44.15625 -60.90625 C 44.890625 -61.875 45.328125 -62.703125 49.953125 -62.59375 C 51.078125 -62.5625 52.046875 -62.390625 53.171875 -62.21875 Z M 53.171875 -62.21875 "/></g></g></g><g fill="#efe2ba" fill-opacity="1"><g transform="translate(426.600202, 878.252802)"><g><path d="M 43.890625 -93.40625 C 36.71875 -92.484375 29.640625 -89.3125 27.5 -88.234375 C 24.8125 -86.90625 21.953125 -84.3125 17.078125 -80.09375 C 12.78125 -76.421875 13.390625 -78.375 7.90625 -67.3125 C 6.296875 -64 5.140625 -62.90625 4.453125 -58.015625 C 3.109375 -49.375 2.578125 -45.046875 2.484375 -41.40625 C 2.34375 -36.21875 2.984375 -34.25 3.875 -30.859375 C 6.296875 -21.40625 2.28125 -28.21875 14.46875 -12.515625 C 17.59375 -8.515625 23.21875 -4.03125 27.90625 -1.65625 C 32.328125 0.5625 41.234375 3.3125 57.328125 3.71875 C 60.703125 3.8125 67.71875 2.890625 71.671875 1.859375 C 73.921875 1.21875 76.046875 0.28125 78.3125 -0.34375 C 79.71875 -0.71875 81.265625 -1.109375 82.546875 -1.640625 C 84.671875 -2.5625 94.234375 -9.046875 95.8125 -10.53125 C 99.25 -13.828125 100.359375 -18.265625 102.578125 -23.09375 C 105.703125 -29.46875 106.265625 -30.4375 106.515625 -34.625 C 106.546875 -36.015625 106.59375 -37.421875 106.765625 -38.828125 C 106.96875 -41.203125 107.59375 -43.703125 107.65625 -46.09375 C 107.828125 -52.390625 105.921875 -59.71875 104.328125 -63.6875 C 101.96875 -69.609375 97.890625 -74.34375 94.09375 -79.21875 C 91.921875 -81.9375 91.109375 -82.796875 85.6875 -85.171875 C 76 -89.5 71.4375 -92 67.40625 -92.796875 C 65.75 -93.125 57.640625 -94.171875 55.125 -94.234375 C 54 -94.265625 51.0625 -94.34375 43.890625 -93.40625 Z M 39.015625 -51.515625 C 39.625 -52.890625 41.078125 -55.25 42.359375 -56.328125 C 43.65625 -57.421875 45.484375 -57.796875 46.90625 -58.46875 C 48.3125 -59.125 50.171875 -60.1875 51.3125 -60.578125 C 52.140625 -60.84375 53.703125 -60.9375 54.40625 -60.921875 C 57.484375 -60.84375 62.875 -58.75 65.515625 -57.28125 C 67.03125 -56.390625 68.65625 -54.953125 69.984375 -52.25 C 70.796875 -50.828125 71.96875 -47.578125 71.890625 -44.625 C 71.859375 -43.234375 71.375 -41.140625 70.34375 -39.359375 C 69.328125 -37.6875 65.734375 -33.859375 64.3125 -32.640625 C 61.71875 -30.328125 59.5 -30.65625 57.109375 -30.578125 C 55.5625 -30.484375 53.328125 -30.265625 51.78125 -30.296875 C 48.28125 -30.390625 46.203125 -31.578125 44.828125 -32.453125 C 41.9375 -34.34375 41.9375 -34.484375 38.3125 -40.46875 C 37.90625 -41.046875 37.09375 -42.453125 37.1875 -45.8125 C 37.21875 -46.9375 38.421875 -50.265625 39.015625 -51.515625 Z M 39.015625 -51.515625 "/></g></g></g><g fill="#efe2ba" fill-opacity="1"><g transform="translate(534.521932, 881.058325)"><g><path d="M 23.4375 -93.25 C 18.6875 -93.09375 12.65625 -93.390625 9.9375 -91.203125 C 9.359375 -90.65625 7.359375 -88.765625 7.234375 -84.140625 C 7.1875 -82.1875 7.421875 -80.203125 7.359375 -78.25 C 7.328125 -76.5625 7.28125 -74.890625 7.234375 -73.203125 C 7.1875 -71.671875 7.46875 -66.609375 7.453125 -65.921875 C 7.546875 -64.375 7.53125 -63.828125 7.65625 -63.125 C 7.625 -61.71875 7.609375 -61.015625 7.578125 -60.046875 L 7.390625 -47.578125 C 7.3125 -39.171875 6.578125 -32.171875 6.359375 -29.25 C 6.328125 -27.84375 6.15625 -26.59375 6.25 -25.1875 C 6.3125 -21.828125 6.59375 -21.828125 6.515625 -19.03125 C 6.453125 -16.5 6.3125 -11.46875 5.8125 -8.125 L 5.484375 -5.734375 C 5.140625 -3.515625 6.21875 -2.078125 7.03125 -1.21875 C 8.265625 0.078125 8.96875 0.375 11.625 0.4375 L 13.296875 0.484375 C 14.421875 0.515625 15.546875 0.125 17.078125 0.15625 C 17.21875 0.171875 17.5 0.171875 17.640625 0.171875 C 22.25 0.4375 23.078125 1.015625 25.75 0.953125 L 32.890625 0.859375 C 34.4375 0.890625 35.828125 1.21875 37.65625 1.265625 C 37.796875 1.265625 38.078125 1.265625 38.21875 1.28125 C 39.890625 1.3125 40.59375 1.0625 41.453125 0.375 C 42.453125 -0.4375 43.03125 -1.265625 43.359375 -3.21875 C 43.375 -3.5 43.375 -3.921875 43.390625 -4.203125 C 43.40625 -4.609375 43.265625 -4.890625 43.140625 -5.328125 C 43 -5.75 43.015625 -6.171875 42.890625 -6.59375 L 42.515625 -8.140625 C 42.265625 -8.984375 42.265625 -9.125 42.296875 -10.53125 C 42.34375 -12.203125 42.703125 -14.875 45.78125 -14.796875 C 48.4375 -14.71875 51.15625 -11.6875 53.890625 -9.53125 C 56.921875 -7.21875 65.03125 -1.390625 67.796875 -0.0625 C 69.59375 0.828125 72.359375 1.875 79.21875 2.0625 L 89.171875 2.3125 C 91.546875 2.375 93.109375 1.578125 93.984375 0.609375 C 95.265625 -0.75 95.453125 -2.421875 95.5 -4.09375 C 95.640625 -9.421875 94.546875 -5.109375 95.109375 -10.828125 L 95.484375 -14.1875 C 95.5 -15.03125 95.53125 -15.875 95.6875 -16.71875 C 95.703125 -17.140625 95.859375 -17.6875 95.859375 -18.09375 C 95.890625 -18.9375 95.90625 -19.765625 95.921875 -20.609375 C 95.96875 -22.28125 95.890625 -24.40625 94.390625 -25.828125 C 93.5625 -26.5625 91.890625 -27.296875 90.21875 -27.34375 C 85.875 -27.453125 89.359375 -26.671875 82.5 -26.84375 C 81.375 -26.875 78.59375 -27.234375 77.484375 -28.09375 C 76.515625 -28.96875 76.390625 -29.515625 76.40625 -30.078125 C 76.4375 -30.921875 77.015625 -31.609375 77.4375 -31.75 L 80.84375 -33.328125 C 82.984375 -34.265625 87.09375 -36.265625 89 -39.578125 L 91.921875 -44.53125 C 94.859375 -49.5 95.609375 -57.0625 95.65625 -59.015625 C 95.703125 -60.421875 95.125 -64.765625 94.328125 -66.875 C 93.9375 -68.015625 93.265625 -69.15625 92.59375 -70.28125 C 91.796875 -71.703125 91.140625 -73.265625 90.46875 -74.6875 C 89.125 -77.234375 87.390625 -80.234375 84.390625 -83.109375 C 80.140625 -87.15625 76.40625 -88.640625 74.734375 -89.25 C 72.09375 -90.15625 66.125 -91.71875 60.8125 -92 C 59.828125 -92.03125 58.859375 -92.046875 57.875 -92.078125 C 56.1875 -92.125 54.359375 -92.03125 52.6875 -92.203125 C 50.3125 -92.40625 49.1875 -92.84375 46.25 -92.921875 C 42.75 -93.015625 40.21875 -92.390625 37 -92.46875 C 34.328125 -92.546875 31.671875 -92.46875 29.03125 -92.96875 C 27.90625 -93.140625 26.78125 -93.15625 25.671875 -93.1875 Z M 43.28125 -59.125 C 43.3125 -59.953125 43.453125 -60.21875 44.453125 -61.609375 C 45.046875 -62.296875 45.75 -62.84375 48.265625 -62.765625 C 49.8125 -62.734375 50.234375 -62.296875 51.21875 -62.140625 L 55.953125 -61.59375 C 56.65625 -61.5625 57.75 -60.703125 58.171875 -60.40625 C 59.953125 -58.96875 60.875 -56.96875 60.828125 -55.015625 C 60.703125 -50.390625 56.75 -48.8125 55.03125 -48.171875 C 52.359375 -47.25 48.84375 -46.640625 47.03125 -46.6875 C 46.328125 -46.703125 44.921875 -47.015625 44.375 -47.453125 C 43.828125 -47.890625 43.4375 -48.875 43.3125 -49.4375 C 43.328125 -49.859375 43.328125 -50.140625 43.34375 -50.5625 C 43.34375 -50.84375 43.21875 -51.125 43.21875 -51.40625 C 42.96875 -52.671875 43.140625 -53.796875 43.171875 -55.0625 Z M 43.28125 -59.125 "/></g></g></g><g fill="#efe2ba" fill-opacity="1"><g transform="translate(631.525503, 883.58002)"><g><path d="M 1.5625 -70.96875 C 1.34375 -67.90625 2.015625 -66.765625 2.421875 -66.203125 C 3.625 -64.359375 4.609375 -64.046875 10.484375 -63.328125 L 13.6875 -62.96875 C 15.078125 -62.796875 16.484375 -62.890625 17.71875 -61.59375 C 18.8125 -60.578125 19.734375 -58.328125 19.53125 -55.953125 L 18.859375 -46.578125 C 18.828125 -45.046875 19.09375 -44.75 19.03125 -41.9375 C 19 -40.828125 18.96875 -39.5625 18.4375 -35.796875 C 17.53125 -27.828125 18.109375 -28.515625 18.046875 -26.28125 L 17.984375 -18.453125 C 17.859375 -7.953125 17.453125 -13.703125 17.234375 -5.71875 C 17.203125 -4.609375 17.171875 -3.34375 18.8125 -1.46875 C 20.1875 0.109375 21.5625 0.703125 24.484375 0.78125 C 27.296875 0.84375 26.171875 0.6875 29.53125 0.765625 L 35.546875 0.921875 C 40.59375 1.0625 42 1.375 44.65625 1.4375 C 50.109375 1.578125 50.671875 1.3125 52.546875 -0.59375 C 53.984375 -2.09375 54.421875 -2.9375 54.484375 -5.3125 C 54.53125 -6.71875 54.265625 -7.703125 54.15625 -8.53125 C 53.90625 -9.8125 53.671875 -11.5 53.71875 -13.3125 L 54.078125 -26.59375 C 54.234375 -32.625 54.203125 -37.109375 54.859375 -41.015625 C 55.015625 -41.84375 55.1875 -43.25 55.234375 -44.78125 C 55.265625 -46.1875 55 -46.765625 55.125 -51.25 C 55.234375 -55.71875 55.453125 -58.796875 57.890625 -60.546875 C 59.59375 -61.78125 62.28125 -62.125 64.515625 -62.0625 C 67.03125 -62 66.875 -61.578125 69.796875 -61.515625 C 71.765625 -61.453125 72.90625 -61.984375 73.484375 -62.40625 C 75.046875 -63.75 75.09375 -65.140625 75.109375 -65.984375 C 75.1875 -68.921875 74.96875 -71.71875 74.90625 -74.671875 C 74.9375 -75.9375 74.828125 -77.0625 75 -78.3125 C 75.1875 -79.84375 75.6875 -82.640625 75.75 -85.15625 C 75.796875 -86.84375 75.421875 -88.9375 73.78125 -90.109375 C 72.265625 -91.28125 68.9375 -92.0625 65.4375 -92.15625 C 54.9375 -92.4375 59.125 -91.484375 51.984375 -91.8125 L 32.8125 -92.71875 C 28.046875 -92.984375 28.171875 -92.5625 23 -92.703125 L 20.625 -92.765625 C 20.0625 -92.78125 19.21875 -92.796875 16.4375 -93.15625 C 14.34375 -93.34375 11.953125 -93.8125 9.71875 -93.875 C 8.875 -93.890625 5.515625 -93.984375 3.8125 -92.5 C 2.375 -91.40625 1.890625 -89.046875 1.84375 -87.078125 C 1.8125 -86.25 1.890625 -83.28125 1.984375 -82.03125 C 2.125 -81.46875 2.109375 -81.1875 2.09375 -80.625 L 2.03125 -77.96875 Z M 1.5625 -70.96875 "/></g></g></g><g fill="#efe2ba" fill-opacity="1"><g transform="translate(704.453142, 885.47584)"><g><path d="M 7.53125 -74.46875 C 7.5 -73.0625 7.75 -71.78125 7.703125 -70.390625 C 7.703125 -70.109375 7.6875 -69.6875 7.6875 -69.40625 C 7.671875 -68.84375 7.65625 -68.140625 7.640625 -67.59375 C 7.390625 -58.359375 5.78125 -50 6.3125 -43.390625 L 6.53125 -40.453125 C 6.71875 -37.921875 6.8125 -35.953125 6.765625 -34.140625 C 6.625 -28.53125 6.125 -30.375 5.9375 -23.515625 C 5.84375 -19.609375 6.109375 -19.890625 6 -15.6875 L 5.796875 -12.75 L 5.484375 -5.734375 C 5.421875 -3.5 6.34375 -1.671875 7.171875 -0.9375 C 8 -0.21875 9.65625 0.390625 11.90625 0.453125 C 14.140625 0.515625 14.984375 0.25 18.90625 0.34375 C 23.09375 0.453125 22.53125 0.859375 25.1875 0.796875 L 27.578125 0.71875 C 27.984375 0.734375 28.265625 0.734375 28.6875 0.75 C 28.96875 0.75 29.25 0.765625 29.671875 0.765625 C 29.953125 0.78125 30.234375 0.78125 30.515625 0.65625 C 30.65625 0.65625 30.9375 0.515625 31.078125 0.53125 C 31.21875 0.53125 31.21875 0.53125 31.34375 0.53125 C 31.625 0.546875 31.625 0.546875 31.765625 0.546875 L 38.90625 1.015625 C 39.609375 1.03125 40.46875 0.34375 40.90625 -0.203125 C 42.0625 -1.5625 42.234375 -2.6875 42.25 -3.390625 C 42.265625 -3.671875 42.265625 -3.953125 42.28125 -4.234375 C 42.296875 -4.78125 42.15625 -5.203125 42.171875 -5.765625 C 42.1875 -5.90625 42.1875 -5.90625 42.1875 -6.046875 L 42.25 -14.03125 C 42.28125 -15.296875 42.015625 -15.578125 41.8125 -18.53125 C 41.84375 -19.78125 41.859375 -20.625 41.875 -21.3125 C 42.015625 -26.625 43.578125 -28 45.015625 -28.796875 C 48.140625 -30.390625 49.25 -29.8125 54.015625 -29.6875 L 58.484375 -29.578125 C 64.375 -29.421875 67.171875 -29.359375 69.421875 -30.546875 C 71.125 -31.484375 73.28125 -33.390625 73.203125 -36.0625 L 72.921875 -46.15625 C 72.921875 -46.296875 72.9375 -46.578125 72.9375 -46.71875 C 72.953125 -47.140625 72.8125 -47.703125 72.828125 -48.109375 C 72.84375 -48.390625 72.84375 -48.671875 72.859375 -49.09375 C 72.859375 -49.515625 72.875 -49.9375 72.890625 -50.359375 C 72.90625 -51.0625 73.0625 -51.890625 73.09375 -52.59375 C 73.140625 -54.703125 72.453125 -55.546875 72.046875 -55.984375 C 70.6875 -57.421875 69.578125 -57.59375 68.59375 -57.609375 L 66.5 -57.53125 C 64.953125 -57.421875 62.84375 -57.0625 61.03125 -57.109375 C 60.890625 -57.109375 60.609375 -57.125 60.328125 -57.125 L 57.953125 -57.1875 C 57.53125 -57.203125 57.390625 -57.203125 56.6875 -57.21875 C 56.125 -57.375 56.265625 -57.375 55 -57.40625 L 46.609375 -57.484375 C 46.046875 -57.5 45.0625 -57.953125 44.65625 -58.515625 C 43.71875 -59.796875 43.59375 -60.359375 43.609375 -61.0625 C 43.640625 -62.1875 44.078125 -63.015625 44.9375 -63.6875 C 46.078125 -64.5 47.484375 -64.328125 48.3125 -64.296875 L 50.703125 -64.09375 C 51.953125 -63.921875 53.34375 -63.46875 55.578125 -63.40625 C 57.546875 -63.359375 59.796875 -63.71875 61.484375 -63.6875 L 68.46875 -63.640625 C 69.171875 -63.625 70.84375 -63.859375 72.5625 -64.796875 C 74.6875 -66 75.15625 -67.515625 75.203125 -69.484375 C 75.265625 -71.859375 74.859375 -72.4375 74.90625 -74.671875 L 74.96875 -76.640625 C 75 -77.75 75.015625 -78.734375 75.046875 -79.859375 C 75.09375 -81.671875 75 -83.640625 75.046875 -85.453125 L 75.0625 -85.734375 C 74.828125 -87.5625 74.28125 -88.40625 73.890625 -88.984375 C 71.984375 -91.5625 69.078125 -92.0625 66.140625 -92.28125 C 61.515625 -92.53125 63.75 -91.921875 56.734375 -91.96875 C 55.34375 -92 53.796875 -92.046875 52.390625 -92.078125 C 50.4375 -92.125 48.46875 -92.171875 46.515625 -92.234375 C 44.28125 -92.28125 42.046875 -92.625 39.953125 -92.828125 C 31.84375 -93.578125 30.546875 -92.5 23.140625 -92.84375 L 17.28125 -93.125 C 16.71875 -93.140625 16.296875 -93.15625 16.015625 -93.15625 C 15.328125 -93.1875 15.046875 -93.328125 14.484375 -93.34375 C 6.9375 -94.515625 7.609375 -87.90625 7.546875 -85.390625 Z M 7.53125 -74.46875 "/></g></g></g><g fill="#efe2ba" fill-opacity="1"><g transform="translate(779.340477, 887.422604)"><g><path d="M 43.890625 -93.40625 C 36.71875 -92.484375 29.640625 -89.3125 27.5 -88.234375 C 24.8125 -86.90625 21.953125 -84.3125 17.078125 -80.09375 C 12.78125 -76.421875 13.390625 -78.375 7.90625 -67.3125 C 6.296875 -64 5.140625 -62.90625 4.453125 -58.015625 C 3.109375 -49.375 2.578125 -45.046875 2.484375 -41.40625 C 2.34375 -36.21875 2.984375 -34.25 3.875 -30.859375 C 6.296875 -21.40625 2.28125 -28.21875 14.46875 -12.515625 C 17.59375 -8.515625 23.21875 -4.03125 27.90625 -1.65625 C 32.328125 0.5625 41.234375 3.3125 57.328125 3.71875 C 60.703125 3.8125 67.71875 2.890625 71.671875 1.859375 C 73.921875 1.21875 76.046875 0.28125 78.3125 -0.34375 C 79.71875 -0.71875 81.265625 -1.109375 82.546875 -1.640625 C 84.671875 -2.5625 94.234375 -9.046875 95.8125 -10.53125 C 99.25 -13.828125 100.359375 -18.265625 102.578125 -23.09375 C 105.703125 -29.46875 106.265625 -30.4375 106.515625 -34.625 C 106.546875 -36.015625 106.59375 -37.421875 106.765625 -38.828125 C 106.96875 -41.203125 107.59375 -43.703125 107.65625 -46.09375 C 107.828125 -52.390625 105.921875 -59.71875 104.328125 -63.6875 C 101.96875 -69.609375 97.890625 -74.34375 94.09375 -79.21875 C 91.921875 -81.9375 91.109375 -82.796875 85.6875 -85.171875 C 76 -89.5 71.4375 -92 67.40625 -92.796875 C 65.75 -93.125 57.640625 -94.171875 55.125 -94.234375 C 54 -94.265625 51.0625 -94.34375 43.890625 -93.40625 Z M 39.015625 -51.515625 C 39.625 -52.890625 41.078125 -55.25 42.359375 -56.328125 C 43.65625 -57.421875 45.484375 -57.796875 46.90625 -58.46875 C 48.3125 -59.125 50.171875 -60.1875 51.3125 -60.578125 C 52.140625 -60.84375 53.703125 -60.9375 54.40625 -60.921875 C 57.484375 -60.84375 62.875 -58.75 65.515625 -57.28125 C 67.03125 -56.390625 68.65625 -54.953125 69.984375 -52.25 C 70.796875 -50.828125 71.96875 -47.578125 71.890625 -44.625 C 71.859375 -43.234375 71.375 -41.140625 70.34375 -39.359375 C 69.328125 -37.6875 65.734375 -33.859375 64.3125 -32.640625 C 61.71875 -30.328125 59.5 -30.65625 57.109375 -30.578125 C 55.5625 -30.484375 53.328125 -30.265625 51.78125 -30.296875 C 48.28125 -30.390625 46.203125 -31.578125 44.828125 -32.453125 C 41.9375 -34.34375 41.9375 -34.484375 38.3125 -40.46875 C 37.90625 -41.046875 37.09375 -42.453125 37.1875 -45.8125 C 37.21875 -46.9375 38.421875 -50.265625 39.015625 -51.515625 Z M 39.015625 -51.515625 "/></g></g></g><g fill="#efe2ba" fill-opacity="1"><g transform="translate(887.262208, 890.228127)"><g><path d="M 6.078125 -13.28125 C 6.0625 -12.59375 5.90625 -11.765625 5.890625 -11.0625 C 5.734375 -10.21875 5.71875 -9.234375 5.6875 -8.40625 C 5.46875 0.421875 11.484375 0.578125 14.40625 0.796875 C 14.96875 0.8125 15.53125 0.828125 16.09375 0.84375 C 17.640625 0.734375 19.1875 0.359375 22.671875 0.453125 C 23.09375 0.453125 23.515625 0.46875 23.9375 0.484375 C 24.765625 0.5 25.75 0.53125 26.59375 0.546875 C 27.703125 0.578125 28.828125 0.609375 29.953125 0.640625 C 31.765625 0.6875 33.734375 0.875 35.546875 0.921875 C 43.109375 1.125 45.640625 0.90625 51.8125 0.921875 C 52.375 0.9375 52.9375 0.953125 53.484375 0.96875 C 55.171875 1.015625 55.859375 1.453125 59.5 1.546875 C 64.40625 1.671875 66.59375 -2.046875 66.71875 -6.671875 C 66.78125 -9.328125 66.4375 -11.859375 66.5 -14.53125 C 66.59375 -18.3125 66.828125 -21.9375 67.078125 -25.71875 C 67.09375 -26.265625 67.109375 -26.828125 67.109375 -27.390625 C 67.0625 -30.609375 65.203125 -34.578125 62.25 -34.65625 C 60.71875 -34.703125 59.3125 -34.453125 57.78125 -34.484375 C 56.65625 -34.515625 55.546875 -34.96875 54.296875 -35 C 51.0625 -35.09375 49.375 -34.703125 47.6875 -34.75 C 42.09375 -34.90625 41.8125 -40.65625 41.875 -42.890625 C 41.9375 -44.984375 42.125 -46.953125 42.171875 -49.046875 C 42.203125 -49.75 42.21875 -50.453125 42.234375 -51.15625 C 42.265625 -52.40625 42.15625 -53.671875 42.1875 -54.9375 C 42.203125 -55.359375 42.21875 -55.78125 42.21875 -56.1875 C 42.34375 -60.953125 42.515625 -62.078125 42.828125 -63.46875 C 43.03125 -65.421875 43.046875 -66.25 43.15625 -70.734375 C 43.21875 -72.828125 43.265625 -74.921875 43.328125 -77.03125 C 43.359375 -78.421875 43.40625 -79.828125 43.4375 -81.234375 C 43.453125 -82.0625 43.484375 -82.90625 43.5 -83.75 C 43.484375 -88.25 42.75 -92.75 33.375 -93 C 32.8125 -93 32.25 -93.015625 29.453125 -92.8125 C 26.359375 -92.75 27.609375 -92.4375 25.09375 -92.5 C 23.28125 -92.546875 20.21875 -93.046875 16.4375 -93.15625 C 8.3125 -93.359375 7.6875 -90.421875 7.28125 -75.171875 C 7.203125 -71.796875 7.375 -68.4375 7.296875 -65.09375 C 7.265625 -64.265625 7.25 -63.421875 7.21875 -62.578125 C 7.140625 -59.5 6.65625 -56.421875 6.578125 -53.328125 C 6.5625 -52.640625 6.546875 -51.9375 6.515625 -51.234375 C 6.46875 -49.28125 6.28125 -47.328125 6.234375 -45.375 C 6.203125 -44.390625 6.1875 -43.546875 6.15625 -42.5625 C 6.078125 -34.015625 6.671875 -35.953125 6.484375 -28.671875 Z M 6.078125 -13.28125 "/></g></g></g><g fill="#efe2ba" fill-opacity="1"><g transform="translate(954.030882, 891.963839)"><g><path d="M 7.859375 -76.125 C 7.828125 -74.734375 7.9375 -73.890625 7.875 -71.65625 C 7.84375 -69.96875 7.65625 -68.421875 7.609375 -66.75 C 7.578125 -65.359375 7.546875 -64.109375 7.515625 -62.703125 L 7.125 -48 C 6.921875 -40.015625 7.765625 -39.859375 7.171875 -33.71875 C 6.96875 -31.1875 6.625 -28.390625 6.546875 -25.734375 L 6.40625 -20.421875 C 6.3125 -16.5 6.5625 -15.671875 6.34375 -12.453125 C 6.140625 -10.0625 5.8125 -8.265625 5.75 -6.15625 C 5.6875 -3.640625 5.9375 -2.359375 6.90625 -1.375 C 8.40625 0.21875 11.46875 0.859375 13.421875 0.765625 L 22.953125 0.59375 L 29.671875 0.765625 C 30.234375 0.78125 30.9375 0.9375 31.484375 0.953125 C 32.1875 0.984375 33.03125 1 33.734375 1.015625 C 34.578125 1.046875 35.546875 1.203125 36.390625 1.234375 C 37.65625 1.265625 39.75 1.3125 41.609375 -0.1875 C 43.171875 -1.390625 43.515625 -3.640625 43.6875 -4.75 C 43.6875 -5.171875 43.703125 -5.59375 43.71875 -6.015625 C 43.625 -7.84375 43.578125 -6.015625 43.25 -9.53125 C 43.03125 -12.046875 42.78125 -13.59375 42.828125 -15.140625 C 42.890625 -17.234375 43.21875 -19.328125 43.40625 -21.421875 C 43.4375 -22.40625 43.46875 -23.375 43.484375 -24.359375 C 43.5 -24.640625 43.5 -24.921875 43.515625 -25.203125 C 43.65625 -30.9375 43.203125 -29.40625 43.3125 -33.75 L 43.625 -45.78125 C 43.671875 -47.609375 43.859375 -49.140625 44.015625 -50.125 C 44.1875 -51.25 44.59375 -55.859375 44.625 -57.390625 C 44.765625 -62.4375 44.078125 -67.765625 44.28125 -71.25 L 44.6875 -76.015625 C 44.71875 -77 45.03125 -78.25 45.09375 -80.5 C 45.109375 -81.203125 45.125 -82.03125 45.140625 -82.734375 C 45.21875 -85.40625 45.3125 -88.765625 42.5625 -91.0625 C 39.828125 -93.234375 35.046875 -93.21875 31.6875 -93.03125 L 29.03125 -92.828125 C 28.171875 -92.703125 25.09375 -92.5 23.140625 -92.5625 C 19.21875 -92.65625 17.5625 -93.40625 14.625 -93.484375 C 11.953125 -93.546875 10.828125 -93.015625 9.8125 -92.0625 C 8.375 -90.6875 7.65625 -89.171875 7.71875 -86.640625 Z M 7.859375 -76.125 "/></g></g></g><g fill="#efe2ba" fill-opacity="1"><g transform="translate(1003.022567, 893.237422)"><g><path d="M 43.890625 -93.40625 C 36.71875 -92.484375 29.640625 -89.3125 27.5 -88.234375 C 24.8125 -86.90625 21.953125 -84.3125 17.078125 -80.09375 C 12.78125 -76.421875 13.390625 -78.375 7.90625 -67.3125 C 6.296875 -64 5.140625 -62.90625 4.453125 -58.015625 C 3.109375 -49.375 2.578125 -45.046875 2.484375 -41.40625 C 2.34375 -36.21875 2.984375 -34.25 3.875 -30.859375 C 6.296875 -21.40625 2.28125 -28.21875 14.46875 -12.515625 C 17.59375 -8.515625 23.21875 -4.03125 27.90625 -1.65625 C 32.328125 0.5625 41.234375 3.3125 57.328125 3.71875 C 60.703125 3.8125 67.71875 2.890625 71.671875 1.859375 C 73.921875 1.21875 76.046875 0.28125 78.3125 -0.34375 C 79.71875 -0.71875 81.265625 -1.109375 82.546875 -1.640625 C 84.671875 -2.5625 94.234375 -9.046875 95.8125 -10.53125 C 99.25 -13.828125 100.359375 -18.265625 102.578125 -23.09375 C 105.703125 -29.46875 106.265625 -30.4375 106.515625 -34.625 C 106.546875 -36.015625 106.59375 -37.421875 106.765625 -38.828125 C 106.96875 -41.203125 107.59375 -43.703125 107.65625 -46.09375 C 107.828125 -52.390625 105.921875 -59.71875 104.328125 -63.6875 C 101.96875 -69.609375 97.890625 -74.34375 94.09375 -79.21875 C 91.921875 -81.9375 91.109375 -82.796875 85.6875 -85.171875 C 76 -89.5 71.4375 -92 67.40625 -92.796875 C 65.75 -93.125 57.640625 -94.171875 55.125 -94.234375 C 54 -94.265625 51.0625 -94.34375 43.890625 -93.40625 Z M 39.015625 -51.515625 C 39.625 -52.890625 41.078125 -55.25 42.359375 -56.328125 C 43.65625 -57.421875 45.484375 -57.796875 46.90625 -58.46875 C 48.3125 -59.125 50.171875 -60.1875 51.3125 -60.578125 C 52.140625 -60.84375 53.703125 -60.9375 54.40625 -60.921875 C 57.484375 -60.84375 62.875 -58.75 65.515625 -57.28125 C 67.03125 -56.390625 68.65625 -54.953125 69.984375 -52.25 C 70.796875 -50.828125 71.96875 -47.578125 71.890625 -44.625 C 71.859375 -43.234375 71.375 -41.140625 70.34375 -39.359375 C 69.328125 -37.6875 65.734375 -33.859375 64.3125 -32.640625 C 61.71875 -30.328125 59.5 -30.65625 57.109375 -30.578125 C 55.5625 -30.484375 53.328125 -30.265625 51.78125 -30.296875 C 48.28125 -30.390625 46.203125 -31.578125 44.828125 -32.453125 C 41.9375 -34.34375 41.9375 -34.484375 38.3125 -40.46875 C 37.90625 -41.046875 37.09375 -42.453125 37.1875 -45.8125 C 37.21875 -46.9375 38.421875 -50.265625 39.015625 -51.515625 Z M 39.015625 -51.515625 "/></g></g></g><g fill="#efe2ba" fill-opacity="1"><g transform="translate(1110.944297, 896.042944)"><g><path d="M 17.5625 -93.671875 C 15.875 -93.71875 14.625 -93.484375 13.765625 -93.078125 C 13.34375 -92.8125 12.765625 -92.546875 12.203125 -92.140625 C 8.921875 -89.984375 7.15625 -86.390625 7.03125 -81.90625 L 8.109375 -69.265625 L 8.875 -50.046875 C 9.671875 -43.03125 9.96875 -38.40625 10.046875 -36.015625 L 10.140625 -29.421875 C 10.109375 -28.15625 10.359375 -27.046875 10.90625 -26.046875 C 11.703125 -24.484375 12.953125 -23.609375 14.625 -23.578125 C 14.765625 -23.5625 15.75 -23.671875 17.703125 -23.765625 L 26.796875 -23.515625 L 27.921875 -23.359375 L 31.96875 -23.125 C 33.796875 -22.9375 35.1875 -22.75 36.15625 -22.734375 C 39.65625 -22.640625 41.796875 -23.421875 42.6875 -25.21875 C 43.84375 -27.28125 43.5625 -27.15625 44.171875 -34.28125 L 44.9375 -41.96875 L 44.859375 -44.640625 L 45.109375 -48.828125 C 45.25 -54.015625 45.609375 -57.375 46.078125 -59.1875 C 47.46875 -63.765625 48.078125 -66.40625 48.25 -67.234375 C 48.90625 -70.71875 49.265625 -74.078125 49.359375 -77.578125 C 49.453125 -81.078125 49.109375 -83.890625 48.1875 -86.015625 C 47.65625 -87.296875 46.84375 -88.578125 45.625 -90 C 44.140625 -91.875 41.765625 -92.78125 38.546875 -92.859375 C 37.5625 -92.890625 36.453125 -92.90625 35.1875 -92.8125 L 27.484375 -93 Z M 9.34375 -4.25 C 9.3125 -2.5625 10.125 -1.28125 11.640625 -0.40625 C 12.890625 0.1875 14.140625 0.515625 15.6875 0.546875 L 23.796875 0.625 C 24.34375 0.640625 25.328125 0.796875 26.875 0.984375 C 27.140625 1.125 27.28125 1.125 27.421875 1.140625 L 29.8125 0.921875 L 37.796875 1.265625 C 38.5 1.28125 39.46875 1.03125 40.75 0.5 C 42.328125 -0.453125 43.046875 -2.109375 43.109375 -4.484375 L 43 -11.078125 L 43.234375 -14.296875 C 43.28125 -16.53125 42.078125 -18.390625 40.40625 -18.578125 L 35.078125 -18.421875 C 33.25 -18.625 32.265625 -18.640625 31.84375 -18.65625 C 27.375 -18.625 24.703125 -18.703125 24.015625 -18.71875 L 22.625 -18.75 C 16.765625 -19.328125 13.8125 -19.546875 13.671875 -19.546875 C 12.125 -19.171875 10.984375 -18.5 10.25 -17.25 C 9.8125 -16.40625 9.5 -15.03125 9.453125 -13.203125 C 9.4375 -12.375 9.515625 -10.546875 9.59375 -7.875 Z M 9.34375 -4.25 "/></g></g></g></svg>