<svg xmlns="http://www.w3.org/2000/svg" xmlns:xlink="http://www.w3.org/1999/xlink" width="2000" zoomAndPan="magnify" viewBox="0 0 1500 1499.999933" height="2000" preserveAspectRatio="xMidYMid meet" version="1.0"><defs><clipPath id="f20471a41c"><path d="M 33.175781 140 L 369 140 L 369 942 L 33.175781 942 Z M 33.175781 140 " clip-rule="nonzero"/></clipPath><clipPath id="9a78ba8729"><path d="M 288 1278 L 995 1278 L 995 1458.738281 L 288 1458.738281 Z M 288 1278 " clip-rule="nonzero"/></clipPath></defs><path fill="#4056a1" d="M 1314.601562 1178.925781 C 1313.023438 1178.925781 1311.4375 1178.425781 1310.089844 1177.398438 C 1306.820312 1174.902344 1306.195312 1170.230469 1308.6875 1166.964844 C 1324.976562 1145.621094 1340.1875 1123.121094 1353.902344 1100.09375 C 1356.003906 1096.5625 1360.574219 1095.402344 1364.105469 1097.503906 C 1367.640625 1099.609375 1368.796875 1104.175781 1366.695312 1107.710938 C 1352.691406 1131.226562 1337.15625 1154.203125 1320.523438 1175.996094 C 1319.058594 1177.914062 1316.84375 1178.925781 1314.601562 1178.925781 Z M 1397.925781 1038.96875 C 1396.90625 1038.96875 1395.871094 1038.757812 1394.882812 1038.3125 C 1391.128906 1036.628906 1389.453125 1032.226562 1391.136719 1028.472656 C 1402.121094 1003.988281 1411.785156 978.609375 1419.859375 953.039062 C 1421.097656 949.117188 1425.277344 946.941406 1429.199219 948.179688 C 1433.121094 949.417969 1435.296875 953.597656 1434.058594 957.519531 C 1425.8125 983.636719 1415.941406 1009.558594 1404.722656 1034.566406 C 1403.484375 1037.332031 1400.769531 1038.96875 1397.925781 1038.96875 Z M 1446.984375 883.632812 C 1446.519531 883.632812 1446.046875 883.585938 1445.570312 883.496094 C 1441.535156 882.71875 1438.890625 878.816406 1439.667969 874.78125 C 1444.722656 848.488281 1448.3125 821.558594 1450.328125 794.746094 C 1450.632812 790.648438 1454.199219 787.574219 1458.308594 787.882812 C 1462.40625 788.1875 1465.480469 791.761719 1465.171875 795.863281 C 1463.113281 823.242188 1459.453125 850.742188 1454.289062 877.59375 C 1453.601562 881.152344 1450.484375 883.632812 1446.984375 883.632812 Z M 1459.230469 721.15625 C 1455.25 721.15625 1451.949219 718.007812 1451.796875 713.996094 C 1450.765625 687.125 1448.179688 660.09375 1444.109375 633.65625 C 1443.484375 629.59375 1446.273438 625.789062 1450.335938 625.164062 C 1454.398438 624.539062 1458.199219 627.328125 1458.824219 631.390625 C 1462.980469 658.390625 1465.621094 685.988281 1466.675781 713.425781 C 1466.832031 717.535156 1463.628906 720.992188 1459.519531 721.148438 C 1459.425781 721.152344 1459.328125 721.15625 1459.230469 721.15625 Z M 1434.417969 560.210938 C 1431.152344 560.210938 1428.15625 558.042969 1427.246094 554.738281 C 1420.140625 528.898438 1411.441406 503.195312 1401.390625 478.335938 C 1399.847656 474.527344 1401.6875 470.1875 1405.5 468.644531 C 1409.3125 467.105469 1413.652344 468.945312 1415.191406 472.757812 C 1425.457031 498.144531 1434.34375 524.398438 1441.601562 550.789062 C 1442.691406 554.753906 1440.363281 558.851562 1436.398438 559.941406 C 1435.738281 560.125 1435.074219 560.210938 1434.417969 560.210938 Z M 1373.417969 409.292969 C 1370.78125 409.292969 1368.226562 407.890625 1366.875 405.414062 C 1354.039062 381.898438 1339.679688 358.855469 1324.203125 336.929688 C 1321.832031 333.570312 1322.628906 328.925781 1325.992188 326.554688 C 1329.347656 324.183594 1333.992188 324.980469 1336.363281 328.339844 C 1352.171875 350.734375 1366.835938 374.265625 1379.945312 398.28125 C 1381.914062 401.886719 1380.585938 406.410156 1376.976562 408.378906 C 1375.84375 409 1374.621094 409.292969 1373.417969 409.292969 Z M 1279.515625 276.25 C 1277.46875 276.25 1275.429688 275.414062 1273.960938 273.765625 C 1256.089844 253.765625 1236.871094 234.578125 1216.832031 216.746094 C 1213.761719 214.011719 1213.488281 209.308594 1216.222656 206.234375 C 1218.957031 203.164062 1223.660156 202.890625 1226.730469 205.625 C 1247.191406 223.835938 1266.816406 243.421875 1285.0625 263.847656 C 1287.800781 266.914062 1287.535156 271.621094 1284.472656 274.359375 C 1283.050781 275.628906 1281.28125 276.25 1279.515625 276.25 Z M 1157.84375 167.96875 C 1156.363281 167.96875 1154.871094 167.53125 1153.570312 166.613281 C 1131.605469 151.171875 1108.53125 136.851562 1084.980469 124.054688 C 1081.367188 122.089844 1080.03125 117.570312 1081.992188 113.957031 C 1083.957031 110.347656 1088.476562 109.011719 1092.089844 110.972656 C 1116.140625 124.042969 1139.703125 138.667969 1162.132812 154.433594 C 1165.496094 156.800781 1166.304688 161.441406 1163.9375 164.804688 C 1162.492188 166.867188 1160.1875 167.96875 1157.84375 167.96875 Z M 1157.84375 167.96875 " fill-opacity="1" fill-rule="nonzero"/><g clip-path="url(#f20471a41c)"><path fill="#4056a1" d="M 67.152344 941.734375 C 63.902344 941.734375 60.914062 939.589844 59.988281 936.308594 C 52.566406 909.964844 46.597656 882.878906 42.253906 855.808594 C 41.605469 851.75 44.367188 847.929688 48.425781 847.277344 C 52.484375 846.625 56.304688 849.390625 56.957031 853.449219 C 61.207031 879.957031 67.050781 906.476562 74.320312 932.265625 C 75.433594 936.222656 73.132812 940.335938 69.175781 941.453125 C 68.5 941.640625 67.820312 941.734375 67.152344 941.734375 Z M 41.328125 780.925781 C 37.367188 780.925781 34.074219 777.808594 33.894531 773.8125 C 33.417969 763.074219 33.175781 752.160156 33.175781 741.378906 C 33.175781 724.742188 33.753906 707.933594 34.890625 691.410156 C 35.171875 687.308594 38.722656 684.214844 42.828125 684.492188 C 46.929688 684.777344 50.027344 688.328125 49.742188 692.433594 C 48.628906 708.613281 48.0625 725.082031 48.0625 741.378906 C 48.0625 751.941406 48.300781 762.628906 48.769531 773.148438 C 48.953125 777.257812 45.773438 780.734375 41.664062 780.917969 C 41.550781 780.921875 41.4375 780.925781 41.328125 780.925781 Z M 52.578125 618.457031 C 52.125 618.457031 51.671875 618.414062 51.210938 618.328125 C 47.167969 617.578125 44.5 613.691406 45.25 609.652344 C 50.257812 582.695312 56.890625 555.761719 64.96875 529.59375 C 66.183594 525.664062 70.351562 523.464844 74.277344 524.675781 C 78.207031 525.890625 80.40625 530.058594 79.195312 533.984375 C 71.285156 559.605469 64.789062 585.976562 59.886719 612.371094 C 59.222656 615.953125 56.09375 618.457031 52.578125 618.457031 Z M 100.617188 462.808594 C 99.613281 462.808594 98.59375 462.605469 97.617188 462.175781 C 93.855469 460.515625 92.152344 456.121094 93.8125 452.359375 C 104.855469 427.316406 117.492188 402.625 131.371094 378.980469 C 133.449219 375.433594 138.011719 374.246094 141.558594 376.328125 C 145.101562 378.40625 146.289062 382.96875 144.210938 386.515625 C 130.621094 409.667969 118.246094 433.84375 107.433594 458.367188 C 106.207031 461.152344 103.476562 462.808594 100.617188 462.808594 Z M 183.042969 322.328125 C 181.484375 322.328125 179.910156 321.839844 178.570312 320.828125 C 175.285156 318.355469 174.628906 313.6875 177.101562 310.402344 C 193.578125 288.53125 211.5 267.375 230.375 247.511719 C 233.207031 244.53125 237.921875 244.414062 240.898438 247.246094 C 243.878906 250.078125 244 254.789062 241.167969 257.769531 C 222.679688 277.21875 205.128906 297.941406 188.996094 319.359375 C 187.53125 321.304688 185.300781 322.328125 183.042969 322.328125 Z M 295.25 204.265625 C 293.121094 204.265625 291.007812 203.359375 289.535156 201.597656 C 286.898438 198.445312 287.316406 193.75 290.472656 191.113281 C 311.496094 173.53125 333.746094 156.988281 356.613281 141.945312 C 360.046875 139.683594 364.664062 140.636719 366.925781 144.070312 C 369.183594 147.507812 368.230469 152.121094 364.796875 154.382812 C 342.402344 169.113281 320.609375 185.316406 300.023438 202.53125 C 298.628906 203.699219 296.9375 204.265625 295.25 204.265625 Z M 295.25 204.265625 " fill-opacity="1" fill-rule="nonzero"/></g><g clip-path="url(#9a78ba8729)"><path fill="#4056a1" d="M 750.191406 1458.398438 C 748.960938 1458.398438 747.734375 1458.394531 746.507812 1458.390625 C 742.394531 1458.371094 739.078125 1455.023438 739.097656 1450.910156 C 739.117188 1446.8125 742.449219 1443.5 746.542969 1443.5 C 746.554688 1443.5 746.566406 1443.5 746.578125 1443.5 C 773.457031 1443.632812 800.617188 1442.234375 827.199219 1439.335938 C 831.289062 1438.894531 834.960938 1441.84375 835.40625 1445.929688 C 835.851562 1450.015625 832.902344 1453.691406 828.8125 1454.136719 C 802.886719 1456.964844 776.4375 1458.398438 750.191406 1458.398438 Z M 665.105469 1453.347656 C 664.8125 1453.347656 664.515625 1453.332031 664.214844 1453.296875 C 636.964844 1450.039062 609.65625 1445.164062 583.046875 1438.8125 C 579.046875 1437.855469 576.578125 1433.839844 577.535156 1429.839844 C 578.488281 1425.839844 582.503906 1423.375 586.503906 1424.328125 C 612.558594 1430.550781 639.300781 1435.324219 665.980469 1438.511719 C 670.0625 1439 672.976562 1442.703125 672.488281 1446.785156 C 672.039062 1450.570312 668.824219 1453.347656 665.105469 1453.347656 Z M 908.441406 1440.6875 C 905.042969 1440.6875 901.976562 1438.347656 901.1875 1434.894531 C 900.277344 1430.886719 902.785156 1426.894531 906.792969 1425.980469 C 932.945312 1420.023438 959.027344 1412.472656 984.3125 1403.53125 C 988.1875 1402.160156 992.441406 1404.191406 993.8125 1408.066406 C 995.179688 1411.945312 993.148438 1416.199219 989.273438 1417.566406 C 963.449219 1426.699219 936.8125 1434.414062 910.101562 1440.496094 C 909.542969 1440.625 908.988281 1440.6875 908.441406 1440.6875 Z M 506.652344 1415.503906 C 505.800781 1415.503906 504.941406 1415.359375 504.097656 1415.050781 C 478.382812 1405.652344 452.921875 1394.644531 428.429688 1382.324219 C 424.757812 1380.476562 423.277344 1376 425.125 1372.328125 C 426.972656 1368.65625 431.449219 1367.175781 435.121094 1369.023438 C 459.101562 1381.085938 484.03125 1391.867188 509.207031 1401.066406 C 513.070312 1402.476562 515.054688 1406.75 513.644531 1410.613281 C 512.542969 1413.628906 509.6875 1415.503906 506.652344 1415.503906 Z M 361.125 1342.324219 C 359.722656 1342.324219 358.304688 1341.929688 357.042969 1341.101562 C 334.160156 1326.070312 311.894531 1309.542969 290.859375 1291.972656 C 287.703125 1289.335938 287.28125 1284.644531 289.917969 1281.488281 C 292.550781 1278.332031 297.246094 1277.910156 300.402344 1280.546875 C 321.003906 1297.753906 342.808594 1313.9375 365.21875 1328.65625 C 368.652344 1330.914062 369.609375 1335.527344 367.351562 1338.964844 C 365.921875 1341.140625 363.546875 1342.324219 361.125 1342.324219 Z M 361.125 1342.324219 " fill-opacity="1" fill-rule="nonzero"/></g><path fill="#efe2ba" d="M 1271.171875 741.382812 C 1271.171875 749.90625 1270.960938 758.429688 1270.542969 766.945312 C 1270.125 775.460938 1269.5 783.960938 1268.664062 792.445312 C 1267.828125 800.929688 1266.785156 809.390625 1265.53125 817.824219 C 1264.28125 826.257812 1262.824219 834.65625 1261.160156 843.019531 C 1259.496094 851.382812 1257.628906 859.699219 1255.558594 867.96875 C 1253.488281 876.238281 1251.214844 884.453125 1248.738281 892.613281 C 1246.261719 900.773438 1243.589844 908.867188 1240.71875 916.894531 C 1237.84375 924.921875 1234.777344 932.875 1231.515625 940.75 C 1228.25 948.628906 1224.796875 956.421875 1221.152344 964.128906 C 1217.507812 971.835938 1213.675781 979.449219 1209.65625 986.96875 C 1205.636719 994.488281 1201.433594 1001.90625 1197.050781 1009.21875 C 1192.667969 1016.53125 1188.109375 1023.734375 1183.371094 1030.820312 C 1178.632812 1037.910156 1173.726562 1044.878906 1168.648438 1051.726562 C 1163.566406 1058.578125 1158.324219 1065.296875 1152.914062 1071.886719 C 1147.507812 1078.476562 1141.9375 1084.933594 1136.210938 1091.25 C 1130.488281 1097.566406 1124.609375 1103.742188 1118.582031 1109.769531 C 1112.550781 1115.796875 1106.378906 1121.675781 1100.0625 1127.402344 C 1093.742188 1133.128906 1087.289062 1138.695312 1080.699219 1144.105469 C 1074.105469 1149.511719 1067.386719 1154.757812 1060.539062 1159.835938 C 1053.691406 1164.914062 1046.722656 1169.824219 1039.632812 1174.558594 C 1032.542969 1179.296875 1025.34375 1183.855469 1018.027344 1188.238281 C 1010.714844 1192.625 1003.300781 1196.824219 995.78125 1200.84375 C 988.261719 1204.863281 980.648438 1208.695312 972.941406 1212.339844 C 965.230469 1215.988281 957.4375 1219.441406 949.5625 1222.703125 C 941.683594 1225.964844 933.734375 1229.035156 925.703125 1231.90625 C 917.675781 1234.777344 909.582031 1237.453125 901.425781 1239.925781 C 893.265625 1242.402344 885.050781 1244.675781 876.78125 1246.746094 C 868.507812 1248.820312 860.191406 1250.6875 851.832031 1252.351562 C 843.46875 1254.011719 835.070312 1255.472656 826.636719 1256.722656 C 818.203125 1257.972656 809.742188 1259.015625 801.257812 1259.851562 C 792.773438 1260.6875 784.269531 1261.316406 775.753906 1261.734375 C 767.238281 1262.152344 758.71875 1262.359375 750.191406 1262.359375 C 741.664062 1262.359375 733.144531 1262.152344 724.628906 1261.734375 C 716.113281 1261.316406 707.613281 1260.6875 699.128906 1259.851562 C 690.640625 1259.015625 682.183594 1257.972656 673.75 1256.722656 C 665.316406 1255.472656 656.917969 1254.011719 648.554688 1252.351562 C 640.191406 1250.6875 631.875 1248.820312 623.605469 1246.746094 C 615.332031 1244.675781 607.117188 1242.402344 598.960938 1239.925781 C 590.800781 1237.453125 582.707031 1234.777344 574.679688 1231.90625 C 566.652344 1229.035156 558.699219 1225.964844 550.820312 1222.703125 C 542.945312 1219.441406 535.152344 1215.988281 527.445312 1212.339844 C 519.738281 1208.695312 512.125 1204.863281 504.605469 1200.84375 C 497.085938 1196.824219 489.667969 1192.625 482.355469 1188.238281 C 475.042969 1183.855469 467.839844 1179.296875 460.75 1174.558594 C 453.660156 1169.824219 446.691406 1164.914062 439.84375 1159.835938 C 432.996094 1154.757812 426.277344 1149.511719 419.6875 1144.105469 C 413.09375 1138.695312 406.640625 1133.128906 400.324219 1127.402344 C 394.007812 1121.675781 387.832031 1115.796875 381.804688 1109.769531 C 375.773438 1103.742188 369.898438 1097.566406 364.171875 1091.25 C 358.445312 1084.933594 352.878906 1078.476562 347.46875 1071.886719 C 342.058594 1065.296875 336.816406 1058.578125 331.738281 1051.726562 C 326.660156 1044.878906 321.75 1037.910156 317.011719 1030.820312 C 312.277344 1023.734375 307.714844 1016.53125 303.332031 1009.21875 C 298.949219 1001.90625 294.75 994.488281 290.730469 986.96875 C 286.710938 979.449219 282.878906 971.835938 279.230469 964.128906 C 275.585938 956.421875 272.132812 948.628906 268.871094 940.75 C 265.605469 932.875 262.539062 924.921875 259.667969 916.894531 C 256.792969 908.867188 254.121094 900.773438 251.644531 892.613281 C 249.171875 884.453125 246.898438 876.238281 244.824219 867.96875 C 242.753906 859.699219 240.886719 851.382812 239.222656 843.019531 C 237.558594 834.65625 236.101562 826.257812 234.851562 817.824219 C 233.601562 809.390625 232.558594 800.929688 231.722656 792.445312 C 230.886719 783.960938 230.257812 775.460938 229.839844 766.945312 C 229.421875 758.429688 229.210938 749.90625 229.210938 741.382812 C 229.210938 732.855469 229.421875 724.332031 229.839844 715.816406 C 230.257812 707.300781 230.886719 698.800781 231.722656 690.316406 C 232.558594 681.832031 233.601562 673.371094 234.851562 664.9375 C 236.101562 656.503906 237.558594 648.105469 239.222656 639.742188 C 240.886719 631.378906 242.753906 623.0625 244.824219 614.792969 C 246.898438 606.523438 249.171875 598.308594 251.644531 590.148438 C 254.121094 581.988281 256.792969 573.894531 259.667969 565.867188 C 262.539062 557.839844 265.605469 549.886719 268.871094 542.011719 C 272.132812 534.132812 275.585938 526.339844 279.230469 518.632812 C 282.878906 510.925781 286.710938 503.3125 290.730469 495.792969 C 294.75 488.273438 298.949219 480.855469 303.332031 473.542969 C 307.714844 466.230469 312.277344 459.03125 317.011719 451.941406 C 321.75 444.851562 326.660156 437.882812 331.738281 431.035156 C 336.816406 424.183594 342.058594 417.464844 347.46875 410.875 C 352.878906 404.285156 358.445312 397.828125 364.171875 391.511719 C 369.898438 385.195312 375.773438 379.023438 381.804688 372.992188 C 387.832031 366.964844 394.007812 361.085938 400.324219 355.359375 C 406.640625 349.632812 413.09375 344.066406 419.6875 338.660156 C 426.277344 333.25 432.996094 328.003906 439.84375 322.925781 C 446.691406 317.847656 453.660156 312.9375 460.75 308.203125 C 467.839844 303.464844 475.042969 298.90625 482.355469 294.523438 C 489.667969 290.136719 497.085938 285.9375 504.605469 281.917969 C 512.125 277.898438 519.738281 274.066406 527.445312 270.421875 C 535.152344 266.777344 542.945312 263.320312 550.820312 260.058594 C 558.699219 256.796875 566.652344 253.726562 574.679688 250.855469 C 582.707031 247.984375 590.800781 245.308594 598.960938 242.835938 C 607.117188 240.359375 615.332031 238.085938 623.605469 236.015625 C 631.875 233.941406 640.191406 232.074219 648.554688 230.410156 C 656.917969 228.75 665.316406 227.292969 673.75 226.039062 C 682.183594 224.789062 690.640625 223.746094 699.128906 222.910156 C 707.613281 222.074219 716.113281 221.449219 724.628906 221.027344 C 733.144531 220.609375 741.664062 220.402344 750.191406 220.402344 C 758.71875 220.402344 767.238281 220.609375 775.753906 221.027344 C 784.269531 221.449219 792.773438 222.074219 801.257812 222.910156 C 809.742188 223.746094 818.203125 224.789062 826.636719 226.039062 C 835.070312 227.292969 843.46875 228.75 851.832031 230.410156 C 860.191406 232.074219 868.507812 233.941406 876.78125 236.015625 C 885.050781 238.085938 893.265625 240.359375 901.425781 242.835938 C 909.582031 245.308594 917.675781 247.984375 925.703125 250.855469 C 933.734375 253.726562 941.683594 256.796875 949.5625 260.058594 C 957.441406 263.320312 965.230469 266.777344 972.941406 270.421875 C 980.648438 274.066406 988.261719 277.898438 995.78125 281.917969 C 1003.300781 285.9375 1010.714844 290.136719 1018.03125 294.523438 C 1025.34375 298.90625 1032.542969 303.464844 1039.632812 308.203125 C 1046.722656 312.9375 1053.691406 317.847656 1060.539062 322.925781 C 1067.386719 328.003906 1074.105469 333.25 1080.699219 338.660156 C 1087.289062 344.066406 1093.742188 349.632812 1100.0625 355.359375 C 1106.378906 361.085938 1112.550781 366.964844 1118.582031 372.992188 C 1124.609375 379.023438 1130.488281 385.195312 1136.210938 391.511719 C 1141.9375 397.828125 1147.507812 404.285156 1152.914062 410.875 C 1158.324219 417.464844 1163.566406 424.183594 1168.648438 431.035156 C 1173.726562 437.882812 1178.632812 444.851562 1183.371094 451.941406 C 1188.109375 459.03125 1192.667969 466.230469 1197.050781 473.542969 C 1201.433594 480.855469 1205.636719 488.273438 1209.65625 495.792969 C 1213.675781 503.3125 1217.507812 510.925781 1221.152344 518.632812 C 1224.796875 526.339844 1228.25 534.132812 1231.515625 542.011719 C 1234.777344 549.886719 1237.84375 557.839844 1240.71875 565.867188 C 1243.589844 573.894531 1246.261719 581.988281 1248.738281 590.148438 C 1251.214844 598.308594 1253.488281 606.523438 1255.558594 614.792969 C 1257.628906 623.0625 1259.496094 631.378906 1261.160156 639.742188 C 1262.824219 648.105469 1264.28125 656.503906 1265.53125 664.9375 C 1266.785156 673.371094 1267.828125 681.832031 1268.664062 690.316406 C 1269.5 698.800781 1270.125 707.300781 1270.542969 715.816406 C 1270.960938 724.332031 1271.171875 732.855469 1271.171875 741.382812 Z M 1271.171875 741.382812 " fill-opacity="1" fill-rule="nonzero"/><path fill="#c5cbe3" d="M 515.121094 1217.953125 L 176.722656 1217.953125 C 152.242188 1217.953125 132.398438 1198.105469 132.398438 1173.625 L 132.398438 837.863281 C 132.398438 824.335938 138.578125 811.546875 149.175781 803.136719 L 318.375 668.914062 C 334.507812 656.113281 357.335938 656.113281 373.46875 668.914062 L 542.667969 803.136719 C 553.269531 811.546875 559.445312 824.335938 559.445312 837.863281 L 559.445312 1173.625 C 559.445312 1198.105469 539.601562 1217.953125 515.121094 1217.953125 Z M 515.121094 1217.953125 " fill-opacity="1" fill-rule="nonzero"/><path fill="#4056a1" d="M 515.121094 1225.394531 L 176.726562 1225.394531 C 148.179688 1225.394531 124.953125 1202.171875 124.953125 1173.625 L 124.953125 837.863281 C 124.953125 821.96875 132.09375 807.183594 144.550781 797.304688 L 313.746094 663.082031 C 332.691406 648.054688 359.152344 648.054688 378.097656 663.082031 L 547.292969 797.304688 C 559.75 807.183594 566.890625 821.96875 566.890625 837.863281 L 566.890625 1173.625 C 566.890625 1202.171875 543.667969 1225.394531 515.121094 1225.394531 Z M 345.921875 666.71875 C 337.835938 666.71875 329.746094 669.394531 323 674.746094 L 153.804688 808.96875 C 144.929688 816.007812 139.84375 826.539062 139.84375 837.863281 L 139.84375 1173.625 C 139.84375 1193.964844 156.386719 1210.507812 176.726562 1210.507812 L 515.121094 1210.507812 C 535.457031 1210.507812 552.003906 1193.964844 552.003906 1173.625 L 552.003906 837.863281 C 552.003906 826.539062 546.914062 816.007812 538.042969 808.96875 L 368.84375 674.746094 C 362.097656 669.394531 354.007812 666.71875 345.921875 666.71875 Z M 345.921875 666.71875 " fill-opacity="1" fill-rule="nonzero"/><path fill="#ffffff" d="M 394.589844 802.867188 C 394.589844 804.460938 394.511719 806.050781 394.355469 807.636719 C 394.199219 809.222656 393.964844 810.796875 393.652344 812.359375 C 393.34375 813.925781 392.953125 815.46875 392.492188 816.992188 C 392.03125 818.519531 391.492188 820.015625 390.882812 821.488281 C 390.273438 822.960938 389.59375 824.402344 388.839844 825.808594 C 388.089844 827.214844 387.273438 828.578125 386.386719 829.902344 C 385.5 831.230469 384.550781 832.507812 383.542969 833.738281 C 382.53125 834.972656 381.460938 836.152344 380.335938 837.277344 C 379.207031 838.40625 378.027344 839.472656 376.796875 840.484375 C 375.5625 841.496094 374.285156 842.445312 372.960938 843.332031 C 371.632812 844.214844 370.269531 845.035156 368.863281 845.785156 C 367.457031 846.535156 366.019531 847.21875 364.546875 847.828125 C 363.074219 848.4375 361.574219 848.972656 360.050781 849.4375 C 358.523438 849.898438 356.980469 850.285156 355.417969 850.597656 C 353.851562 850.90625 352.277344 851.140625 350.691406 851.296875 C 349.105469 851.453125 347.515625 851.53125 345.921875 851.53125 C 344.328125 851.53125 342.738281 851.453125 341.152344 851.296875 C 339.566406 851.140625 337.992188 850.90625 336.429688 850.597656 C 334.863281 850.285156 333.320312 849.898438 331.796875 849.4375 C 330.269531 848.972656 328.769531 848.4375 327.296875 847.828125 C 325.828125 847.21875 324.386719 846.535156 322.980469 845.785156 C 321.574219 845.035156 320.210938 844.214844 318.886719 843.332031 C 317.558594 842.445312 316.28125 841.496094 315.050781 840.484375 C 313.816406 839.472656 312.636719 838.40625 311.511719 837.277344 C 310.382812 836.152344 309.316406 834.972656 308.304688 833.738281 C 307.292969 832.507812 306.34375 831.230469 305.457031 829.902344 C 304.574219 828.578125 303.753906 827.214844 303.003906 825.808594 C 302.25 824.402344 301.570312 822.960938 300.960938 821.488281 C 300.351562 820.015625 299.816406 818.519531 299.351562 816.992188 C 298.890625 815.46875 298.503906 813.925781 298.191406 812.359375 C 297.882812 810.796875 297.648438 809.222656 297.492188 807.636719 C 297.335938 806.050781 297.257812 804.460938 297.257812 802.867188 C 297.257812 801.273438 297.335938 799.683594 297.492188 798.097656 C 297.648438 796.511719 297.882812 794.9375 298.191406 793.371094 C 298.503906 791.808594 298.890625 790.265625 299.351562 788.738281 C 299.816406 787.214844 300.351562 785.714844 300.960938 784.242188 C 301.570312 782.769531 302.25 781.332031 303.003906 779.925781 C 303.753906 778.519531 304.574219 777.15625 305.457031 775.828125 C 306.34375 774.503906 307.292969 773.226562 308.304688 771.992188 C 309.316406 770.761719 310.382812 769.582031 311.511719 768.453125 C 312.636719 767.328125 313.816406 766.257812 315.050781 765.246094 C 316.28125 764.238281 317.558594 763.289062 318.886719 762.402344 C 320.210938 761.515625 321.574219 760.699219 322.980469 759.949219 C 324.386719 759.195312 325.828125 758.515625 327.300781 757.90625 C 328.769531 757.296875 330.269531 756.757812 331.796875 756.296875 C 333.320312 755.832031 334.863281 755.445312 336.429688 755.136719 C 337.992188 754.824219 339.566406 754.589844 341.152344 754.433594 C 342.738281 754.277344 344.328125 754.199219 345.921875 754.199219 C 347.515625 754.199219 349.105469 754.277344 350.691406 754.433594 C 352.277344 754.589844 353.851562 754.824219 355.417969 755.136719 C 356.980469 755.445312 358.523438 755.832031 360.050781 756.296875 C 361.574219 756.757812 363.074219 757.296875 364.546875 757.90625 C 366.019531 758.515625 367.457031 759.195312 368.863281 759.949219 C 370.269531 760.699219 371.632812 761.515625 372.960938 762.402344 C 374.285156 763.289062 375.5625 764.238281 376.796875 765.246094 C 378.027344 766.257812 379.207031 767.328125 380.335938 768.453125 C 381.460938 769.582031 382.53125 770.761719 383.542969 771.992188 C 384.550781 773.226562 385.5 774.503906 386.386719 775.828125 C 387.273438 777.15625 388.089844 778.519531 388.839844 779.925781 C 389.59375 781.332031 390.273438 782.769531 390.882812 784.242188 C 391.492188 785.714844 392.03125 787.214844 392.492188 788.738281 C 392.953125 790.265625 393.34375 791.808594 393.652344 793.371094 C 393.964844 794.9375 394.199219 796.511719 394.355469 798.097656 C 394.511719 799.683594 394.589844 801.273438 394.589844 802.867188 Z M 394.589844 802.867188 " fill-opacity="1" fill-rule="nonzero"/><path fill="#4056a1" d="M 345.921875 858.976562 C 314.984375 858.976562 289.8125 833.804688 289.8125 802.867188 C 289.8125 771.925781 314.984375 746.757812 345.921875 746.757812 C 376.863281 746.757812 402.03125 771.925781 402.03125 802.867188 C 402.03125 833.804688 376.859375 858.976562 345.921875 858.976562 Z M 345.921875 761.644531 C 323.191406 761.644531 304.699219 780.136719 304.699219 802.867188 C 304.699219 825.597656 323.191406 844.089844 345.921875 844.089844 C 368.652344 844.089844 387.144531 825.597656 387.144531 802.867188 C 387.144531 780.136719 368.652344 761.644531 345.921875 761.644531 Z M 345.921875 761.644531 " fill-opacity="1" fill-rule="nonzero"/><path fill="#4056a1" d="M 345.921875 782.960938 C 341.8125 782.960938 338.480469 779.628906 338.480469 775.515625 L 338.480469 605.1875 C 338.480469 601.074219 341.8125 597.742188 345.921875 597.742188 C 350.035156 597.742188 353.367188 601.074219 353.367188 605.1875 L 353.367188 775.515625 C 353.367188 779.628906 350.035156 782.960938 345.921875 782.960938 Z M 345.921875 782.960938 " fill-opacity="1" fill-rule="nonzero"/><path fill="#4056a1" d="M 356 1117.503906 L 339.203125 1117.503906 C 310.867188 1117.503906 287.816406 1094.449219 287.816406 1066.113281 C 287.816406 1062.003906 291.148438 1058.671875 295.257812 1058.671875 C 299.371094 1058.671875 302.703125 1062.003906 302.703125 1066.113281 C 302.703125 1086.242188 319.078125 1102.613281 339.203125 1102.613281 L 356 1102.613281 C 376.125 1102.613281 392.5 1086.242188 392.5 1066.113281 C 392.5 1045.988281 376.125 1029.613281 356 1029.613281 L 335.84375 1029.613281 C 307.507812 1029.613281 284.457031 1006.558594 284.457031 978.222656 C 284.457031 949.886719 307.507812 926.832031 335.84375 926.832031 L 352.640625 926.832031 C 380.976562 926.832031 404.03125 949.886719 404.03125 978.222656 C 404.03125 982.335938 400.699219 985.667969 396.585938 985.667969 C 392.476562 985.667969 389.140625 982.335938 389.140625 978.222656 C 389.140625 958.097656 372.769531 941.722656 352.640625 941.722656 L 335.847656 941.722656 C 315.71875 941.722656 299.34375 958.097656 299.34375 978.222656 C 299.34375 998.351562 315.71875 1014.722656 335.847656 1014.722656 L 356 1014.722656 C 384.335938 1014.722656 407.390625 1037.777344 407.390625 1066.113281 C 407.390625 1094.449219 384.335938 1117.503906 356 1117.503906 Z M 356 1117.503906 " fill-opacity="1" fill-rule="nonzero"/><path fill="#4056a1" d="M 345.921875 941.722656 C 341.8125 941.722656 338.480469 938.390625 338.480469 934.28125 L 338.480469 898.320312 C 338.480469 894.207031 341.8125 890.875 345.921875 890.875 C 350.035156 890.875 353.367188 894.207031 353.367188 898.320312 L 353.367188 934.28125 C 353.367188 938.390625 350.035156 941.722656 345.921875 941.722656 Z M 345.921875 941.722656 " fill-opacity="1" fill-rule="nonzero"/><path fill="#4056a1" d="M 345.921875 1153.464844 C 341.8125 1153.464844 338.480469 1150.132812 338.480469 1146.019531 L 338.480469 1110.058594 C 338.480469 1105.949219 341.8125 1102.617188 345.921875 1102.617188 C 350.035156 1102.617188 353.367188 1105.949219 353.367188 1110.058594 L 353.367188 1146.019531 C 353.367188 1150.132812 350.035156 1153.464844 345.921875 1153.464844 Z M 345.921875 1153.464844 " fill-opacity="1" fill-rule="nonzero"/><path fill="#ffffff" d="M 750.1875 1082.632812 C 750.1875 1084.929688 750.132812 1087.222656 750.019531 1089.515625 C 749.90625 1091.808594 749.738281 1094.097656 749.515625 1096.382812 C 749.289062 1098.667969 749.007812 1100.945312 748.671875 1103.21875 C 748.332031 1105.488281 747.941406 1107.75 747.492188 1110.003906 C 747.046875 1112.253906 746.542969 1114.492188 745.984375 1116.722656 C 745.425781 1118.949219 744.816406 1121.160156 744.148438 1123.355469 C 743.480469 1125.554688 742.761719 1127.734375 741.988281 1129.894531 C 741.214844 1132.058594 740.390625 1134.199219 739.511719 1136.320312 C 738.632812 1138.441406 737.703125 1140.539062 736.71875 1142.613281 C 735.738281 1144.691406 734.707031 1146.738281 733.625 1148.765625 C 732.542969 1150.789062 731.410156 1152.785156 730.230469 1154.757812 C 729.050781 1156.726562 727.820312 1158.664062 726.546875 1160.574219 C 725.269531 1162.484375 723.949219 1164.359375 722.582031 1166.203125 C 721.214844 1168.046875 719.800781 1169.855469 718.34375 1171.632812 C 716.886719 1173.40625 715.390625 1175.144531 713.847656 1176.84375 C 712.304688 1178.546875 710.722656 1180.207031 709.101562 1181.832031 C 707.476562 1183.457031 705.8125 1185.039062 704.113281 1186.582031 C 702.410156 1188.121094 700.671875 1189.621094 698.898438 1191.078125 C 697.125 1192.535156 695.316406 1193.945312 693.46875 1195.3125 C 691.625 1196.683594 689.75 1198.003906 687.839844 1199.277344 C 685.933594 1200.554688 683.992188 1201.78125 682.023438 1202.960938 C 680.054688 1204.144531 678.058594 1205.273438 676.03125 1206.355469 C 674.007812 1207.4375 671.957031 1208.472656 669.882812 1209.453125 C 667.804688 1210.433594 665.707031 1211.363281 663.585938 1212.242188 C 661.464844 1213.121094 659.324219 1213.949219 657.164062 1214.722656 C 655 1215.496094 652.820312 1216.214844 650.625 1216.882812 C 648.425781 1217.546875 646.214844 1218.160156 643.988281 1218.71875 C 641.761719 1219.277344 639.519531 1219.777344 637.269531 1220.226562 C 635.019531 1220.675781 632.757812 1221.066406 630.484375 1221.402344 C 628.214844 1221.742188 625.9375 1222.023438 623.652344 1222.246094 C 621.367188 1222.472656 619.078125 1222.640625 616.785156 1222.753906 C 614.492188 1222.867188 612.195312 1222.921875 609.902344 1222.921875 C 607.605469 1222.921875 605.308594 1222.867188 603.015625 1222.753906 C 600.722656 1222.640625 598.433594 1222.472656 596.148438 1222.246094 C 593.863281 1222.023438 591.585938 1221.742188 589.316406 1221.402344 C 587.046875 1221.066406 584.785156 1220.675781 582.53125 1220.226562 C 580.28125 1219.777344 578.039062 1219.277344 575.8125 1218.71875 C 573.585938 1218.160156 571.375 1217.546875 569.175781 1216.882812 C 566.980469 1216.214844 564.800781 1215.496094 562.640625 1214.722656 C 560.476562 1213.949219 558.335938 1213.121094 556.214844 1212.242188 C 554.09375 1211.363281 551.996094 1210.433594 549.917969 1209.453125 C 547.84375 1208.472656 545.792969 1207.4375 543.769531 1206.355469 C 541.746094 1205.273438 539.746094 1204.144531 537.777344 1202.960938 C 535.808594 1201.78125 533.871094 1200.554688 531.960938 1199.277344 C 530.050781 1198.003906 528.175781 1196.683594 526.332031 1195.3125 C 524.488281 1193.945312 522.675781 1192.535156 520.902344 1191.078125 C 519.128906 1189.621094 517.390625 1188.121094 515.6875 1186.582031 C 513.988281 1185.039062 512.324219 1183.457031 510.703125 1181.832031 C 509.078125 1180.207031 507.496094 1178.546875 505.953125 1176.84375 C 504.410156 1175.144531 502.914062 1173.40625 501.457031 1171.632812 C 500 1169.855469 498.585938 1168.046875 497.21875 1166.203125 C 495.851562 1164.359375 494.53125 1162.484375 493.253906 1160.574219 C 491.980469 1158.664062 490.75 1156.726562 489.570312 1154.757812 C 488.390625 1152.785156 487.257812 1150.789062 486.175781 1148.765625 C 485.09375 1146.738281 484.0625 1144.691406 483.082031 1142.613281 C 482.101562 1140.539062 481.167969 1138.441406 480.292969 1136.320312 C 479.414062 1134.199219 478.585938 1132.058594 477.8125 1129.894531 C 477.039062 1127.734375 476.320312 1125.554688 475.652344 1123.355469 C 474.988281 1121.160156 474.375 1118.949219 473.816406 1116.722656 C 473.257812 1114.492188 472.753906 1112.253906 472.308594 1110.003906 C 471.859375 1107.75 471.46875 1105.488281 471.128906 1103.21875 C 470.792969 1100.945312 470.511719 1098.667969 470.289062 1096.382812 C 470.0625 1094.097656 469.894531 1091.808594 469.78125 1089.515625 C 469.667969 1087.222656 469.613281 1084.929688 469.613281 1082.632812 C 469.613281 1080.335938 469.667969 1078.042969 469.78125 1075.75 C 469.894531 1073.457031 470.0625 1071.167969 470.289062 1068.882812 C 470.511719 1066.597656 470.792969 1064.320312 471.128906 1062.050781 C 471.46875 1059.777344 471.859375 1057.515625 472.308594 1055.265625 C 472.753906 1053.011719 473.257812 1050.773438 473.816406 1048.546875 C 474.375 1046.320312 474.988281 1044.105469 475.652344 1041.910156 C 476.320312 1039.714844 477.039062 1037.535156 477.8125 1035.371094 C 478.585938 1033.210938 479.414062 1031.070312 480.292969 1028.949219 C 481.167969 1026.828125 482.101562 1024.726562 483.082031 1022.652344 C 484.0625 1020.578125 485.09375 1018.527344 486.175781 1016.503906 C 487.257812 1014.476562 488.390625 1012.480469 489.570312 1010.511719 C 490.75 1008.542969 491.980469 1006.601562 493.253906 1004.691406 C 494.53125 1002.785156 495.851562 1000.90625 497.21875 999.0625 C 498.585938 997.21875 500 995.410156 501.457031 993.636719 C 502.914062 991.859375 504.410156 990.121094 505.953125 988.421875 C 507.496094 986.71875 509.078125 985.058594 510.703125 983.433594 C 512.324219 981.8125 513.988281 980.226562 515.6875 978.6875 C 517.390625 977.144531 519.128906 975.644531 520.902344 974.1875 C 522.675781 972.734375 524.488281 971.320312 526.332031 969.953125 C 528.175781 968.585938 530.050781 967.261719 531.960938 965.988281 C 533.871094 964.710938 535.808594 963.484375 537.777344 962.304688 C 539.746094 961.125 541.746094 959.992188 543.769531 958.910156 C 545.792969 957.828125 547.84375 956.796875 549.917969 955.8125 C 551.996094 954.832031 554.09375 953.902344 556.214844 953.023438 C 558.335938 952.144531 560.476562 951.320312 562.640625 950.546875 C 564.800781 949.773438 566.980469 949.050781 569.175781 948.386719 C 571.375 947.71875 573.585938 947.105469 575.8125 946.550781 C 578.039062 945.992188 580.28125 945.488281 582.53125 945.039062 C 584.785156 944.59375 587.046875 944.199219 589.316406 943.863281 C 591.585938 943.527344 593.863281 943.246094 596.148438 943.019531 C 598.433594 942.796875 600.722656 942.625 603.015625 942.515625 C 605.308594 942.402344 607.605469 942.34375 609.902344 942.34375 C 612.195312 942.34375 614.492188 942.402344 616.785156 942.515625 C 619.078125 942.625 621.367188 942.796875 623.652344 943.019531 C 625.9375 943.246094 628.214844 943.527344 630.484375 943.863281 C 632.757812 944.199219 635.019531 944.59375 637.269531 945.039062 C 639.519531 945.488281 641.761719 945.992188 643.988281 946.550781 C 646.214844 947.105469 648.425781 947.71875 650.625 948.386719 C 652.820312 949.050781 655 949.773438 657.164062 950.546875 C 659.324219 951.320312 661.464844 952.144531 663.585938 953.023438 C 665.707031 953.902344 667.804688 954.832031 669.882812 955.8125 C 671.957031 956.796875 674.007812 957.828125 676.03125 958.910156 C 678.058594 959.992188 680.054688 961.125 682.023438 962.304688 C 683.992188 963.484375 685.933594 964.710938 687.839844 965.988281 C 689.75 967.261719 691.625 968.585938 693.46875 969.953125 C 695.316406 971.320312 697.125 972.734375 698.898438 974.1875 C 700.671875 975.644531 702.410156 977.144531 704.113281 978.6875 C 705.8125 980.226562 707.476562 981.8125 709.101562 983.433594 C 710.722656 985.058594 712.304688 986.71875 713.847656 988.421875 C 715.390625 990.121094 716.886719 991.859375 718.34375 993.636719 C 719.800781 995.410156 721.214844 997.21875 722.582031 999.0625 C 723.949219 1000.90625 725.269531 1002.785156 726.546875 1004.691406 C 727.820312 1006.601562 729.050781 1008.542969 730.230469 1010.511719 C 731.410156 1012.480469 732.542969 1014.476562 733.625 1016.503906 C 734.707031 1018.527344 735.738281 1020.578125 736.71875 1022.652344 C 737.703125 1024.726562 738.632812 1026.828125 739.511719 1028.949219 C 740.390625 1031.070312 741.214844 1033.210938 741.988281 1035.371094 C 742.761719 1037.535156 743.480469 1039.714844 744.148438 1041.910156 C 744.816406 1044.105469 745.425781 1046.320312 745.984375 1048.546875 C 746.542969 1050.773438 747.046875 1053.011719 747.492188 1055.265625 C 747.941406 1057.515625 748.332031 1059.777344 748.671875 1062.050781 C 749.007812 1064.320312 749.289062 1066.597656 749.515625 1068.882812 C 749.738281 1071.167969 749.90625 1073.457031 750.019531 1075.75 C 750.132812 1078.042969 750.1875 1080.335938 750.1875 1082.632812 Z M 750.1875 1082.632812 " fill-opacity="1" fill-rule="nonzero"/><path fill="#4056a1" d="M 609.902344 1230.367188 C 570.441406 1230.367188 533.339844 1215 505.4375 1187.097656 C 477.535156 1159.191406 462.167969 1122.09375 462.167969 1082.632812 C 462.167969 1043.171875 477.535156 1006.074219 505.4375 978.171875 C 533.339844 950.269531 570.441406 934.902344 609.902344 934.902344 C 649.359375 934.902344 686.460938 950.269531 714.363281 978.171875 C 742.265625 1006.074219 757.632812 1043.171875 757.632812 1082.632812 C 757.632812 1122.09375 742.265625 1159.191406 714.363281 1187.097656 C 686.460938 1215 649.363281 1230.367188 609.902344 1230.367188 Z M 609.902344 949.789062 C 536.648438 949.789062 477.054688 1009.382812 477.054688 1082.632812 C 477.054688 1155.882812 536.648438 1215.476562 609.902344 1215.476562 C 683.152344 1215.476562 742.746094 1155.882812 742.746094 1082.632812 C 742.746094 1009.382812 683.152344 949.789062 609.902344 949.789062 Z M 609.902344 949.789062 " fill-opacity="1" fill-rule="nonzero"/><path fill="#94b143" d="M 741.332031 983.40625 C 729.515625 971.589844 710.367188 971.589844 698.550781 983.40625 L 604.226562 1077.730469 L 569.1875 1042.699219 C 557.371094 1030.882812 538.226562 1030.882812 526.410156 1042.699219 C 514.597656 1054.507812 514.597656 1073.65625 526.410156 1085.472656 L 580.269531 1139.332031 C 586.832031 1145.890625 595.652344 1148.675781 604.226562 1147.941406 C 612.796875 1148.675781 621.617188 1145.890625 628.179688 1139.332031 L 741.332031 1026.183594 C 753.140625 1014.367188 753.140625 995.222656 741.332031 983.40625 Z M 741.332031 983.40625 " fill-opacity="1" fill-rule="nonzero"/><path fill="#4056a1" d="M 601.550781 1155.503906 C 591.5625 1155.503906 582.03125 1151.621094 575.007812 1144.59375 L 521.144531 1090.738281 C 514.027344 1083.613281 510.105469 1074.148438 510.105469 1064.082031 C 510.105469 1054.015625 514.027344 1044.550781 521.148438 1037.433594 C 535.84375 1022.738281 559.753906 1022.738281 574.453125 1037.4375 L 604.222656 1067.203125 L 693.285156 978.140625 C 707.984375 963.445312 731.898438 963.445312 746.59375 978.140625 C 761.285156 992.835938 761.285156 1016.75 746.59375 1031.445312 L 633.441406 1144.59375 C 625.789062 1152.242188 615.171875 1156.164062 604.222656 1155.40625 C 603.332031 1155.472656 602.4375 1155.503906 601.550781 1155.503906 Z M 547.800781 1041.28125 C 541.710938 1041.28125 535.980469 1043.65625 531.671875 1047.964844 C 527.367188 1052.269531 524.996094 1057.992188 524.996094 1064.085938 C 524.996094 1070.175781 527.367188 1075.902344 531.675781 1080.210938 L 585.535156 1134.066406 C 590.222656 1138.753906 596.804688 1141.109375 603.589844 1140.527344 C 604.011719 1140.492188 604.4375 1140.492188 604.859375 1140.527344 C 611.648438 1141.109375 618.230469 1138.753906 622.914062 1134.066406 L 736.066406 1020.921875 C 744.953125 1012.03125 744.953125 997.5625 736.066406 988.667969 C 727.175781 979.777344 712.707031 979.777344 703.816406 988.667969 L 609.488281 1082.996094 C 606.582031 1085.902344 601.867188 1085.902344 598.960938 1082.996094 L 563.925781 1047.964844 C 559.613281 1043.65625 553.886719 1041.28125 547.800781 1041.28125 Z M 547.800781 1041.28125 " fill-opacity="1" fill-rule="nonzero"/><path fill="#c5cbe3" d="M 1068.109375 1165.625 C 1140.378906 1165.625 1198.96875 1107.039062 1198.96875 1034.769531 L 1198.96875 945.59375 C 1198.96875 920.902344 1191.238281 897.023438 1179.167969 877.296875 L 1096.3125 838.167969 L 1033.816406 838.167969 C 974.941406 851.988281 931.160156 883.582031 931.160156 945.597656 L 931.160156 1034.328125 C 931.160156 1105.058594 988.097656 1162.738281 1059.449219 1165.628906 Z M 1068.109375 1165.625 " fill-opacity="1" fill-rule="nonzero"/><path fill="#4056a1" d="M 1068.109375 1173.070312 L 1059.445312 1173.070312 C 1059.347656 1173.070312 1059.246094 1173.070312 1059.144531 1173.0625 C 1022.667969 1171.585938 988.605469 1156.515625 963.230469 1130.628906 C 937.746094 1104.632812 923.714844 1070.429688 923.714844 1034.328125 L 923.714844 945.59375 C 923.714844 914.265625 934.335938 888.296875 955.28125 868.410156 C 973.347656 851.261719 999.199219 838.648438 1032.113281 830.921875 C 1032.671875 830.789062 1033.242188 830.726562 1033.816406 830.726562 L 1096.308594 830.726562 C 1097.410156 830.726562 1098.496094 830.96875 1099.488281 831.4375 L 1182.34375 870.566406 C 1183.65625 871.1875 1184.757812 872.175781 1185.515625 873.414062 C 1198.992188 895.4375 1206.410156 921.070312 1206.410156 945.597656 L 1206.410156 1034.769531 C 1206.410156 1111.027344 1144.371094 1173.070312 1068.109375 1173.070312 Z M 1059.601562 1158.183594 L 1068.109375 1158.183594 C 1136.160156 1158.183594 1191.523438 1102.820312 1191.523438 1034.769531 L 1191.523438 945.597656 C 1191.523438 924.46875 1185.292969 902.347656 1173.945312 883.066406 L 1094.640625 845.617188 L 1034.683594 845.617188 C 970.929688 860.804688 938.601562 894.4375 938.601562 945.597656 L 938.601562 1034.332031 C 938.601562 1100.984375 991.738281 1155.359375 1059.601562 1158.183594 Z M 1059.601562 1158.183594 " fill-opacity="1" fill-rule="nonzero"/><path fill="#ffffff" d="M 1266.195312 697.195312 C 1252.414062 695.820312 1238.886719 692.363281 1226.089844 686.914062 L 1187.203125 670.355469 C 1168.679688 662.464844 1148.714844 658.511719 1128.582031 658.746094 L 1086.542969 659.230469 C 1067.648438 659.449219 1048.789062 660.929688 1030.089844 663.664062 L 972.617188 672.066406 C 959.710938 673.949219 950.859375 686.050781 952.96875 698.921875 L 952.980469 698.984375 C 953.546875 702.453125 954.859375 705.617188 956.722656 708.339844 L 956.710938 708.3125 C 948.199219 712.898438 943.097656 722.53125 944.757812 732.632812 L 944.765625 732.695312 C 945.402344 736.566406 946.960938 740.058594 949.183594 742.980469 L 949.175781 742.957031 C 938.292969 746.371094 931.261719 757.363281 933.167969 768.984375 L 933.175781 769.046875 C 935.226562 781.550781 946.921875 790.105469 959.460938 788.273438 L 1010.960938 780.746094 L 1116.527344 786.78125 L 1141.929688 789.878906 C 1165.109375 792.65625 1168.097656 825.722656 1145.585938 831.914062 L 1048.585938 831.449219 C 1037.695312 831.398438 1028.835938 840.214844 1028.835938 851.105469 C 1028.835938 862.695312 1038.199219 872.101562 1049.789062 872.15625 L 1171.585938 872.742188 C 1184.148438 872.804688 1196.671875 870.371094 1208.054688 865.0625 C 1224.980469 857.167969 1239.96875 845.597656 1251.90625 831.171875 C 1257.25 824.714844 1261.703125 817.570312 1265.476562 810.085938 L 1266.164062 808.722656 Z M 1266.195312 697.195312 " fill-opacity="1" fill-rule="nonzero"/><path fill="#4056a1" d="M 1172.058594 880.191406 C 1171.890625 880.191406 1171.71875 880.191406 1171.550781 880.191406 L 1049.753906 879.601562 C 1034.117188 879.527344 1021.394531 866.746094 1021.394531 851.105469 C 1021.394531 843.84375 1024.226562 837.023438 1029.375 831.898438 C 1034.492188 826.804688 1041.277344 824.007812 1048.488281 824.007812 C 1048.535156 824.007812 1048.578125 824.007812 1048.621094 824.007812 L 1144.503906 824.464844 C 1151.699219 822.050781 1153.886719 815.738281 1153.492188 810.488281 C 1153.085938 805.027344 1149.582031 798.292969 1141.042969 797.269531 L 1115.863281 794.199219 L 1011.289062 788.21875 L 960.535156 795.636719 C 959.0625 795.851562 957.589844 795.957031 956.140625 795.957031 C 941.398438 795.957031 928.277344 785.183594 925.828125 770.25 C 925.824219 770.234375 925.8125 770.160156 925.8125 770.144531 C 923.84375 758.148438 929.277344 746.292969 938.96875 739.707031 C 938.265625 737.832031 937.742188 735.882812 937.417969 733.898438 C 937.414062 733.882812 937.402344 733.808594 937.402344 733.792969 C 935.683594 723.335938 939.515625 712.890625 947.167969 705.992188 C 946.472656 704.125 945.957031 702.1875 945.628906 700.1875 C 944.273438 691.914062 946.238281 683.695312 951.148438 676.976562 C 956.0625 670.261719 963.300781 665.898438 971.535156 664.695312 L 1029.011719 656.296875 C 1047.96875 653.527344 1067.296875 652.007812 1086.453125 651.785156 L 1128.492188 651.300781 C 1149.769531 651.050781 1170.523438 655.160156 1190.117188 663.503906 L 1229.003906 680.0625 C 1241.09375 685.210938 1253.855469 688.484375 1266.929688 689.785156 C 1271.019531 690.195312 1274.007812 693.84375 1273.597656 697.933594 C 1273.191406 702.023438 1269.535156 705.007812 1265.453125 704.601562 C 1250.875 703.148438 1236.648438 699.5 1223.171875 693.761719 L 1184.285156 677.203125 C 1166.597656 669.667969 1147.871094 665.960938 1128.664062 666.1875 L 1086.625 666.671875 C 1068.128906 666.886719 1049.464844 668.351562 1031.164062 671.027344 L 973.6875 679.429688 C 969.4375 680.050781 965.703125 682.300781 963.167969 685.765625 C 960.632812 689.234375 959.617188 693.476562 960.3125 697.714844 C 960.691406 700.019531 961.507812 702.101562 962.753906 703.972656 C 962.945312 704.238281 963.121094 704.515625 963.277344 704.808594 C 965.136719 708.296875 963.953125 712.640625 960.574219 714.691406 C 960.355469 714.824219 960.132812 714.941406 959.90625 715.050781 C 954.152344 718.332031 951.023438 724.859375 952.101562 731.425781 C 952.101562 731.441406 952.113281 731.519531 952.117188 731.53125 C 952.515625 733.960938 953.457031 736.21875 954.914062 738.214844 C 955.535156 738.96875 956.007812 739.839844 956.296875 740.792969 C 957.34375 744.242188 955.773438 747.957031 952.566406 749.597656 C 952.066406 749.851562 951.554688 750.042969 951.03125 750.179688 C 943.765625 752.65625 939.261719 760.152344 940.511719 767.777344 C 940.511719 767.792969 940.527344 767.871094 940.527344 767.882812 C 941.90625 776.28125 949.914062 782.144531 958.382812 780.90625 L 1009.882812 773.378906 C 1010.378906 773.304688 1010.882812 773.28125 1011.382812 773.3125 L 1116.949219 779.347656 C 1117.109375 779.359375 1117.265625 779.371094 1117.425781 779.390625 L 1142.828125 782.488281 C 1159.203125 784.449219 1167.445312 797.40625 1168.339844 809.378906 C 1169.390625 823.441406 1161.039062 835.382812 1147.558594 839.089844 C 1146.914062 839.265625 1146.253906 839.355469 1145.585938 839.355469 C 1145.574219 839.355469 1145.5625 839.355469 1145.550781 839.355469 L 1048.550781 838.894531 C 1048.53125 838.894531 1048.511719 838.894531 1048.492188 838.894531 C 1045.238281 838.894531 1042.183594 840.15625 1039.878906 842.449219 C 1037.558594 844.757812 1036.28125 847.832031 1036.28125 851.105469 C 1036.28125 858.574219 1042.355469 864.675781 1049.824219 864.714844 L 1171.621094 865.300781 C 1171.765625 865.300781 1171.910156 865.300781 1172.054688 865.300781 C 1183.917969 865.300781 1194.96875 862.949219 1204.910156 858.316406 C 1220.753906 850.921875 1235.023438 839.894531 1246.171875 826.425781 C 1250.804688 820.828125 1255.0625 814.207031 1258.828125 806.734375 L 1259.515625 805.367188 C 1261.371094 801.699219 1265.84375 800.222656 1269.515625 802.074219 C 1273.1875 803.925781 1274.664062 808.402344 1272.8125 812.074219 L 1272.121094 813.4375 C 1267.855469 821.898438 1262.984375 829.464844 1257.644531 835.917969 C 1245.09375 851.078125 1229.039062 863.488281 1211.203125 871.804688 C 1199.28125 877.371094 1186.109375 880.191406 1172.058594 880.191406 Z M 1172.058594 880.191406 " fill-opacity="1" fill-rule="nonzero"/><path fill="#ffffff" d="M 1113.230469 692.539062 L 1078.328125 692.945312 C 1059.433594 693.164062 1040.574219 694.644531 1021.875 697.375 L 964.402344 705.777344 C 961.628906 706.179688 959.042969 707.058594 956.710938 708.316406 Z M 1113.230469 692.539062 " fill-opacity="1" fill-rule="nonzero"/><path fill="#4056a1" d="M 956.714844 715.761719 C 954.066406 715.761719 951.5 714.34375 950.15625 711.84375 C 948.207031 708.226562 949.558594 703.710938 953.179688 701.761719 C 956.335938 700.0625 959.75 698.933594 963.324219 698.410156 L 1020.800781 690.011719 C 1039.757812 687.238281 1059.085938 685.722656 1078.242188 685.5 L 1113.144531 685.097656 C 1117.25 685.019531 1120.628906 688.34375 1120.675781 692.453125 C 1120.722656 696.566406 1117.429688 699.9375 1113.316406 699.984375 L 1078.417969 700.386719 C 1059.917969 700.601562 1041.257812 702.066406 1022.953125 704.742188 L 965.476562 713.144531 C 963.625 713.414062 961.863281 713.996094 960.238281 714.871094 C 959.117188 715.472656 957.90625 715.761719 956.714844 715.761719 Z M 956.714844 715.761719 " fill-opacity="1" fill-rule="nonzero"/><path fill="#ffffff" d="M 993.542969 736.175781 L 952.8125 742.128906 C 951.558594 742.3125 950.34375 742.589844 949.175781 742.957031 Z M 993.542969 736.175781 " fill-opacity="1" fill-rule="nonzero"/><path fill="#4056a1" d="M 949.171875 750.402344 C 946.003906 750.402344 943.070312 748.367188 942.070312 745.1875 C 940.839844 741.261719 943.019531 737.085938 946.945312 735.855469 C 948.5 735.367188 950.113281 735 951.738281 734.761719 L 992.464844 728.808594 C 996.535156 728.214844 1000.3125 731.027344 1000.90625 735.097656 C 1001.503906 739.164062 998.6875 742.945312 994.617188 743.539062 L 953.890625 749.492188 C 953.042969 749.617188 952.207031 749.808594 951.402344 750.058594 C 950.660156 750.292969 949.910156 750.402344 949.171875 750.402344 Z M 949.171875 750.402344 " fill-opacity="1" fill-rule="nonzero"/><path fill="#c5cbe3" d="M 1123.914062 725.289062 L 1006.210938 725.289062 C 996.355469 725.289062 990.195312 735.960938 995.121094 744.496094 L 1033.15625 831.546875 L 1096.96875 831.546875 L 1135.003906 744.496094 C 1139.929688 735.960938 1133.769531 725.289062 1123.914062 725.289062 Z M 1123.914062 725.289062 " fill-opacity="1" fill-rule="nonzero"/><path fill="#4056a1" d="M 1096.96875 838.988281 L 1033.15625 838.988281 C 1030.195312 838.988281 1027.519531 837.238281 1026.335938 834.527344 L 988.449219 747.816406 C 985.015625 741.5625 985.09375 734.175781 988.675781 727.96875 C 992.335938 721.632812 998.890625 717.847656 1006.210938 717.847656 L 1123.914062 717.847656 C 1131.234375 717.847656 1137.789062 721.632812 1141.449219 727.96875 C 1145.03125 734.175781 1145.105469 741.5625 1141.671875 747.816406 L 1103.789062 834.527344 C 1102.605469 837.238281 1099.925781 838.988281 1096.96875 838.988281 Z M 1038.027344 824.101562 L 1092.097656 824.101562 L 1128.179688 741.515625 C 1128.292969 741.261719 1128.417969 741.015625 1128.554688 740.773438 C 1129.953125 738.355469 1129.019531 736.222656 1128.554688 735.414062 C 1128.089844 734.609375 1126.707031 732.734375 1123.914062 732.734375 L 1006.210938 732.734375 C 1003.417969 732.734375 1002.035156 734.609375 1001.566406 735.414062 C 1001.101562 736.222656 1000.171875 738.355469 1001.566406 740.773438 C 1001.707031 741.015625 1001.832031 741.261719 1001.941406 741.515625 Z M 1038.027344 824.101562 " fill-opacity="1" fill-rule="nonzero"/><path fill="#94b143" d="M 1370.21875 858.871094 L 1278.824219 858.871094 C 1271.847656 858.871094 1266.195312 853.214844 1266.195312 846.238281 L 1266.195312 673.472656 C 1266.195312 666.496094 1271.851562 660.84375 1278.824219 660.84375 L 1392.285156 660.84375 Z M 1370.21875 858.871094 " fill-opacity="1" fill-rule="nonzero"/><path fill="#4056a1" d="M 1370.21875 866.316406 L 1278.824219 866.316406 C 1267.757812 866.316406 1258.75 857.308594 1258.75 846.238281 L 1258.75 673.472656 C 1258.75 662.402344 1267.757812 653.398438 1278.824219 653.398438 L 1392.28125 653.398438 C 1396.394531 653.398438 1399.726562 656.730469 1399.726562 660.839844 C 1399.726562 664.953125 1396.394531 668.285156 1392.28125 668.285156 L 1278.824219 668.285156 C 1275.964844 668.285156 1273.636719 670.613281 1273.636719 673.472656 L 1273.636719 846.238281 C 1273.636719 849.097656 1275.964844 851.425781 1278.824219 851.425781 L 1370.21875 851.425781 C 1374.328125 851.425781 1377.660156 854.757812 1377.660156 858.871094 C 1377.660156 862.980469 1374.328125 866.316406 1370.21875 866.316406 Z M 1370.21875 866.316406 " fill-opacity="1" fill-rule="nonzero"/><path fill="#ffffff" d="M 906.699219 1239.777344 C 924.671875 1214.632812 958.636719 1199.339844 992.066406 1199.339844 C 1021.035156 1199.339844 1045.074219 1212.820312 1063.152344 1230.792969 L 1097.902344 1230.792969 C 1110.804688 1230.792969 1121.265625 1240.480469 1121.265625 1253.253906 C 1121.265625 1260.230469 1118.144531 1266.289062 1113.214844 1270.347656 L 1167.632812 1218.578125 C 1173.238281 1212.992188 1180.609375 1210.214844 1187.976562 1210.214844 C 1195.34375 1210.214844 1202.714844 1212.988281 1208.320312 1218.578125 C 1219.535156 1229.683594 1219.535156 1247.722656 1208.320312 1258.828125 L 1142.574219 1323.921875 C 1135.835938 1330.59375 1127.402344 1334.128906 1117.867188 1334.128906 L 906.699219 1334.128906 Z M 906.699219 1239.777344 " fill-opacity="1" fill-rule="nonzero"/><path fill="#4056a1" d="M 1117.867188 1341.574219 L 906.699219 1341.574219 C 902.585938 1341.574219 899.253906 1338.242188 899.253906 1334.128906 C 899.253906 1330.019531 902.589844 1326.6875 906.699219 1326.6875 L 1117.867188 1326.6875 C 1125.390625 1326.6875 1131.941406 1323.976562 1137.339844 1318.632812 L 1203.082031 1253.539062 C 1207.082031 1249.578125 1209.285156 1244.308594 1209.285156 1238.703125 C 1209.285156 1233.097656 1207.082031 1227.828125 1203.082031 1223.867188 C 1199.058594 1219.859375 1193.699219 1217.660156 1187.976562 1217.660156 C 1182.25 1217.660156 1176.890625 1219.859375 1172.882812 1223.851562 C 1172.84375 1223.894531 1172.804688 1223.933594 1172.761719 1223.972656 L 1120.847656 1273.359375 C 1119.949219 1274.328125 1118.980469 1275.242188 1117.945312 1276.09375 C 1114.851562 1278.644531 1110.292969 1278.285156 1107.640625 1275.28125 C 1104.984375 1272.28125 1105.179688 1267.71875 1108.082031 1264.953125 L 1110.230469 1262.914062 C 1112.558594 1260.265625 1113.820312 1256.910156 1113.820312 1253.257812 C 1113.820312 1244.832031 1106.824219 1238.238281 1097.898438 1238.238281 L 1063.152344 1238.238281 C 1061.183594 1238.238281 1059.296875 1237.457031 1057.902344 1236.070312 C 1044.464844 1222.710938 1022.132812 1206.785156 992.0625 1206.785156 C 960.089844 1206.785156 928.957031 1221.433594 912.753906 1244.105469 C 910.363281 1247.449219 905.714844 1248.226562 902.367188 1245.832031 C 899.023438 1243.441406 898.25 1238.792969 900.640625 1235.449219 C 919.550781 1208.992188 955.4375 1191.898438 992.066406 1191.898438 C 1018.953125 1191.898438 1044.515625 1202.757812 1066.175781 1223.347656 L 1097.902344 1223.347656 C 1112.640625 1223.347656 1124.65625 1232.914062 1127.863281 1246.136719 L 1162.441406 1213.242188 C 1169.25 1206.488281 1178.316406 1202.769531 1187.976562 1202.769531 C 1197.667969 1202.769531 1206.757812 1206.511719 1213.574219 1213.304688 C 1220.40625 1220.066406 1224.175781 1229.09375 1224.175781 1238.703125 C 1224.175781 1248.3125 1220.40625 1257.339844 1213.558594 1264.117188 L 1147.8125 1329.210938 C 1139.644531 1337.296875 1129.289062 1341.574219 1117.867188 1341.574219 Z M 1117.867188 1341.574219 " fill-opacity="1" fill-rule="nonzero"/><path fill="#ffffff" d="M 1113.214844 1270.347656 C 1109.113281 1273.722656 1103.757812 1275.722656 1097.902344 1275.722656 L 1005.542969 1275.722656 Z M 1113.214844 1270.347656 " fill-opacity="1" fill-rule="nonzero"/><path fill="#4056a1" d="M 1097.898438 1283.164062 L 1005.542969 1283.164062 C 1001.433594 1283.164062 998.097656 1279.832031 998.097656 1275.722656 C 998.097656 1271.609375 1001.433594 1268.277344 1005.542969 1268.277344 L 1097.898438 1268.277344 C 1101.84375 1268.277344 1105.601562 1266.972656 1108.480469 1264.601562 C 1111.65625 1261.988281 1116.347656 1262.445312 1118.960938 1265.617188 C 1121.574219 1268.789062 1121.121094 1273.480469 1117.945312 1276.09375 C 1112.410156 1280.652344 1105.289062 1283.164062 1097.898438 1283.164062 Z M 1097.898438 1283.164062 " fill-opacity="1" fill-rule="nonzero"/><path fill="#94b143" d="M 800.34375 1176.210938 L 894.066406 1176.210938 C 901.042969 1176.210938 906.699219 1181.867188 906.699219 1188.84375 L 906.699219 1363.046875 C 906.699219 1370.023438 901.042969 1375.675781 894.066406 1375.675781 L 765.339844 1375.675781 Z M 800.34375 1176.210938 " fill-opacity="1" fill-rule="nonzero"/><path fill="#4056a1" d="M 894.066406 1383.121094 L 765.339844 1383.121094 C 761.226562 1383.121094 757.894531 1379.789062 757.894531 1375.679688 C 757.894531 1371.566406 761.226562 1368.234375 765.339844 1368.234375 L 894.066406 1368.234375 C 896.925781 1368.234375 899.253906 1365.90625 899.253906 1363.046875 L 899.253906 1188.847656 C 899.253906 1185.984375 896.925781 1183.660156 894.066406 1183.660156 L 800.34375 1183.660156 C 796.234375 1183.660156 792.902344 1180.324219 792.902344 1176.214844 C 792.902344 1172.105469 796.234375 1168.769531 800.34375 1168.769531 L 894.066406 1168.769531 C 905.136719 1168.769531 914.140625 1177.777344 914.140625 1188.847656 L 914.140625 1363.046875 C 914.144531 1374.117188 905.136719 1383.121094 894.066406 1383.121094 Z M 894.066406 1383.121094 " fill-opacity="1" fill-rule="nonzero"/><path fill="#4056a1" d="M 1071.914062 1073.625 L 1060.496094 1073.625 C 1039.917969 1073.625 1023.175781 1056.882812 1023.175781 1036.304688 C 1023.175781 1032.195312 1026.507812 1028.863281 1030.621094 1028.863281 C 1034.730469 1028.863281 1038.0625 1032.195312 1038.0625 1036.304688 C 1038.0625 1048.675781 1048.125 1058.738281 1060.496094 1058.738281 L 1071.914062 1058.738281 C 1084.28125 1058.738281 1094.34375 1048.671875 1094.34375 1036.304688 C 1094.34375 1023.9375 1084.28125 1013.875 1071.914062 1013.875 L 1058.210938 1013.875 C 1037.632812 1013.875 1020.890625 997.132812 1020.890625 976.554688 C 1020.890625 955.976562 1037.632812 939.234375 1058.210938 939.234375 L 1069.628906 939.234375 C 1090.207031 939.234375 1106.949219 955.976562 1106.949219 976.554688 C 1106.949219 980.664062 1103.617188 984 1099.503906 984 C 1095.394531 984 1092.0625 980.664062 1092.0625 976.554688 C 1092.0625 964.1875 1081.996094 954.125 1069.628906 954.125 L 1058.210938 954.125 C 1045.84375 954.125 1035.78125 964.1875 1035.78125 976.554688 C 1035.78125 988.921875 1045.84375 998.984375 1058.210938 998.984375 L 1071.914062 998.984375 C 1092.492188 998.984375 1109.234375 1015.726562 1109.234375 1036.304688 C 1109.234375 1056.882812 1092.492188 1073.625 1071.914062 1073.625 Z M 1071.914062 1073.625 " fill-opacity="1" fill-rule="nonzero"/><path fill="#4056a1" d="M 1065.0625 954.125 C 1060.949219 954.125 1057.617188 950.789062 1057.617188 946.679688 L 1057.617188 922.234375 C 1057.617188 918.121094 1060.949219 914.789062 1065.0625 914.789062 C 1069.171875 914.789062 1072.503906 918.121094 1072.503906 922.234375 L 1072.503906 946.679688 C 1072.507812 950.792969 1069.171875 954.125 1065.0625 954.125 Z M 1065.0625 954.125 " fill-opacity="1" fill-rule="nonzero"/><path fill="#4056a1" d="M 1065.0625 1098.074219 C 1060.949219 1098.074219 1057.617188 1094.742188 1057.617188 1090.628906 L 1057.617188 1066.183594 C 1057.617188 1062.070312 1060.949219 1058.738281 1065.0625 1058.738281 C 1069.171875 1058.738281 1072.503906 1062.070312 1072.503906 1066.183594 L 1072.503906 1090.628906 C 1072.507812 1094.742188 1069.171875 1098.074219 1065.0625 1098.074219 Z M 1065.0625 1098.074219 " fill-opacity="1" fill-rule="nonzero"/><path fill="#94b143" d="M 908.089844 174.050781 L 908.089844 313.191406 C 908.089844 325.046875 898.480469 334.660156 886.621094 334.660156 L 574.75 334.660156 C 562.894531 334.660156 553.28125 325.046875 553.28125 313.191406 L 553.28125 174.050781 Z M 908.089844 174.050781 " fill-opacity="1" fill-rule="nonzero"/><path fill="#4056a1" d="M 886.621094 342.105469 L 574.75 342.105469 C 558.808594 342.105469 545.835938 329.136719 545.835938 313.191406 L 545.835938 174.050781 C 545.835938 169.941406 549.171875 166.605469 553.28125 166.605469 C 557.390625 166.605469 560.726562 169.941406 560.726562 174.050781 L 560.726562 313.191406 C 560.726562 320.925781 567.015625 327.214844 574.75 327.214844 L 886.621094 327.214844 C 894.355469 327.214844 900.644531 320.925781 900.644531 313.191406 L 900.644531 174.050781 C 900.644531 169.941406 903.980469 166.605469 908.089844 166.605469 C 912.199219 166.605469 915.535156 169.941406 915.535156 174.050781 L 915.535156 313.191406 C 915.535156 329.132812 902.5625 342.105469 886.621094 342.105469 Z M 886.621094 342.105469 " fill-opacity="1" fill-rule="nonzero"/><path fill="#94b143" d="M 457.535156 128.574219 L 720.273438 51.199219 C 727.070312 49.195312 734.300781 49.195312 741.097656 51.199219 L 1003.835938 128.578125 C 1012.449219 131.113281 1012.449219 143.316406 1003.835938 145.851562 L 741.097656 223.230469 C 734.300781 225.230469 727.070312 225.230469 720.273438 223.230469 L 457.535156 145.851562 C 448.921875 143.316406 448.921875 131.113281 457.535156 128.574219 Z M 457.535156 128.574219 " fill-opacity="1" fill-rule="nonzero"/><path fill="#4056a1" d="M 730.6875 232.179688 C 726.476562 232.179688 722.265625 231.578125 718.171875 230.371094 L 455.433594 152.996094 C 448.375 150.914062 443.632812 144.574219 443.632812 137.214844 C 443.632812 129.855469 448.375 123.515625 455.433594 121.4375 L 457.535156 128.578125 L 455.433594 121.4375 L 718.171875 44.058594 C 726.359375 41.648438 735.015625 41.648438 743.199219 44.058594 L 1005.941406 121.4375 C 1013 123.515625 1017.742188 129.855469 1017.742188 137.214844 C 1017.742188 144.574219 1013 150.914062 1005.941406 152.996094 L 743.199219 230.371094 C 739.105469 231.578125 734.894531 232.179688 730.6875 232.179688 Z M 730.6875 57.136719 C 727.890625 57.136719 725.097656 57.539062 722.378906 58.339844 L 459.640625 135.714844 C 459.332031 135.804688 458.519531 136.046875 458.519531 137.214844 C 458.519531 138.378906 459.332031 138.621094 459.640625 138.710938 L 722.378906 216.085938 C 727.8125 217.6875 733.558594 217.6875 738.992188 216.085938 L 1001.734375 138.710938 C 1002.039062 138.621094 1002.855469 138.382812 1002.855469 137.214844 C 1002.855469 136.046875 1002.039062 135.804688 1001.734375 135.714844 L 738.992188 58.339844 C 736.277344 57.539062 733.480469 57.136719 730.6875 57.136719 Z M 730.6875 57.136719 " fill-opacity="1" fill-rule="nonzero"/><path fill="#ffffff" d="M 1031.066406 318.433594 L 430.304688 318.433594 C 413.421875 318.433594 399.738281 332.117188 399.738281 348.996094 L 399.738281 581.246094 C 399.738281 598.128906 413.421875 611.808594 430.304688 611.808594 L 1031.066406 611.808594 C 1047.949219 611.808594 1061.632812 598.128906 1061.632812 581.246094 L 1061.632812 348.996094 C 1061.632812 332.117188 1047.949219 318.433594 1031.066406 318.433594 Z M 1031.066406 318.433594 " fill-opacity="1" fill-rule="nonzero"/><path fill="#4056a1" d="M 1031.066406 619.253906 L 430.304688 619.253906 C 409.347656 619.253906 392.296875 602.203125 392.296875 581.246094 L 392.296875 349 C 392.296875 328.039062 409.347656 310.992188 430.304688 310.992188 L 1031.066406 310.992188 C 1052.027344 310.992188 1069.078125 328.039062 1069.078125 349 L 1069.078125 581.246094 C 1069.078125 602.203125 1052.027344 619.253906 1031.066406 619.253906 Z M 430.304688 325.878906 C 417.554688 325.878906 407.183594 336.25 407.183594 348.996094 L 407.183594 581.246094 C 407.183594 593.996094 417.554688 604.367188 430.304688 604.367188 L 1031.066406 604.367188 C 1043.816406 604.367188 1054.1875 593.996094 1054.1875 581.246094 L 1054.1875 348.996094 C 1054.1875 336.25 1043.816406 325.878906 1031.066406 325.878906 Z M 430.304688 325.878906 " fill-opacity="1" fill-rule="nonzero"/><path fill="#c5cbe3" d="M 817.871094 463.480469 C 817.871094 465.308594 817.835938 467.136719 817.765625 468.964844 C 817.695312 470.792969 817.589844 472.617188 817.449219 474.4375 C 817.3125 476.261719 817.136719 478.074219 816.925781 479.886719 C 816.71875 481.695312 816.472656 483.5 816.195312 485.292969 C 815.917969 487.085938 815.605469 488.871094 815.257812 490.648438 C 814.910156 492.421875 814.53125 494.183594 814.117188 495.9375 C 813.703125 497.6875 813.253906 499.425781 812.773438 501.148438 C 812.292969 502.871094 811.78125 504.578125 811.234375 506.265625 C 810.6875 507.957031 810.109375 509.628906 809.5 511.285156 C 808.890625 512.9375 808.25 514.574219 807.574219 516.1875 C 806.902344 517.800781 806.199219 519.390625 805.464844 520.960938 C 804.734375 522.53125 803.96875 524.078125 803.175781 525.597656 C 802.382812 527.121094 801.5625 528.613281 800.714844 530.085938 C 799.863281 531.554688 798.984375 532.996094 798.082031 534.410156 C 797.175781 535.824219 796.242188 537.210938 795.285156 538.566406 C 794.328125 539.921875 793.34375 541.246094 792.335938 542.539062 C 791.324219 543.835938 790.292969 545.097656 789.234375 546.324219 C 788.179688 547.554688 787.097656 548.75 785.996094 549.910156 C 784.890625 551.070312 783.765625 552.195312 782.621094 553.285156 C 781.476562 554.375 780.308594 555.429688 779.121094 556.445312 C 777.9375 557.460938 776.730469 558.441406 775.507812 559.382812 C 774.285156 560.324219 773.042969 561.222656 771.785156 562.085938 C 770.527344 562.949219 769.25 563.773438 767.960938 564.554688 C 766.671875 565.335938 765.367188 566.078125 764.050781 566.777344 C 762.730469 567.476562 761.402344 568.136719 760.058594 568.753906 C 758.714844 569.371094 757.359375 569.941406 755.996094 570.472656 C 754.628906 571.003906 753.253906 571.492188 751.871094 571.9375 C 750.484375 572.382812 749.09375 572.785156 747.695312 573.140625 C 746.296875 573.496094 744.890625 573.808594 743.480469 574.078125 C 742.066406 574.347656 740.652344 574.570312 739.230469 574.75 C 737.8125 574.929688 736.390625 575.066406 734.964844 575.15625 C 733.539062 575.242188 732.113281 575.289062 730.6875 575.289062 C 729.257812 575.289062 727.832031 575.242188 726.40625 575.15625 C 724.984375 575.066406 723.558594 574.929688 722.140625 574.75 C 720.71875 574.570312 719.304688 574.347656 717.894531 574.078125 C 716.480469 573.808594 715.078125 573.496094 713.675781 573.140625 C 712.277344 572.785156 710.886719 572.382812 709.5 571.9375 C 708.117188 571.492188 706.742188 571.003906 705.378906 570.472656 C 704.011719 569.945312 702.65625 569.371094 701.3125 568.753906 C 699.972656 568.136719 698.640625 567.476562 697.320312 566.777344 C 696.003906 566.078125 694.699219 565.335938 693.410156 564.554688 C 692.121094 563.773438 690.847656 562.949219 689.585938 562.085938 C 688.328125 561.222656 687.089844 560.324219 685.863281 559.382812 C 684.640625 558.441406 683.433594 557.460938 682.25 556.445312 C 681.0625 555.429688 679.894531 554.375 678.75 553.285156 C 677.605469 552.195312 676.480469 551.070312 675.375 549.910156 C 674.273438 548.75 673.195312 547.554688 672.136719 546.324219 C 671.078125 545.097656 670.046875 543.835938 669.039062 542.539062 C 668.027344 541.246094 667.042969 539.921875 666.085938 538.566406 C 665.128906 537.210938 664.195312 535.824219 663.292969 534.410156 C 662.386719 532.996094 661.507812 531.554688 660.660156 530.085938 C 659.808594 528.613281 658.988281 527.121094 658.195312 525.597656 C 657.402344 524.078125 656.640625 522.53125 655.90625 520.960938 C 655.171875 519.390625 654.46875 517.800781 653.796875 516.1875 C 653.125 514.574219 652.480469 512.9375 651.871094 511.285156 C 651.261719 509.628906 650.683594 507.957031 650.136719 506.265625 C 649.59375 504.578125 649.078125 502.871094 648.597656 501.148438 C 648.117188 499.425781 647.667969 497.6875 647.253906 495.9375 C 646.839844 494.183594 646.460938 492.421875 646.113281 490.648438 C 645.769531 488.871094 645.457031 487.085938 645.175781 485.292969 C 644.898438 483.496094 644.65625 481.695312 644.445312 479.886719 C 644.234375 478.074219 644.0625 476.261719 643.921875 474.4375 C 643.78125 472.617188 643.675781 470.792969 643.605469 468.964844 C 643.535156 467.136719 643.5 465.308594 643.5 463.480469 C 643.5 461.648438 643.535156 459.820312 643.605469 457.992188 C 643.675781 456.167969 643.78125 454.339844 643.921875 452.519531 C 644.0625 450.699219 644.234375 448.882812 644.445312 447.074219 C 644.65625 445.265625 644.898438 443.460938 645.175781 441.667969 C 645.457031 439.871094 645.769531 438.085938 646.113281 436.3125 C 646.460938 434.539062 646.839844 432.773438 647.253906 431.023438 C 647.671875 429.273438 648.117188 427.535156 648.597656 425.8125 C 649.078125 424.089844 649.59375 422.382812 650.136719 420.691406 C 650.683594 419 651.261719 417.328125 651.871094 415.675781 C 652.480469 414.019531 653.125 412.386719 653.796875 410.773438 C 654.46875 409.160156 655.171875 407.566406 655.90625 406 C 656.640625 404.429688 657.402344 402.882812 658.195312 401.363281 C 658.988281 399.839844 659.808594 398.34375 660.660156 396.875 C 661.507812 395.40625 662.386719 393.964844 663.292969 392.550781 C 664.195312 391.132812 665.128906 389.75 666.085938 388.394531 C 667.042969 387.039062 668.027344 385.710938 669.039062 384.417969 C 670.046875 383.125 671.078125 381.863281 672.136719 380.636719 C 673.195312 379.40625 674.273438 378.210938 675.375 377.050781 C 676.480469 375.890625 677.605469 374.765625 678.75 373.675781 C 679.894531 372.582031 681.0625 371.53125 682.25 370.515625 C 683.433594 369.496094 684.640625 368.519531 685.863281 367.578125 C 687.089844 366.636719 688.328125 365.734375 689.585938 364.875 C 690.847656 364.011719 692.121094 363.1875 693.410156 362.40625 C 694.699219 361.625 696.003906 360.882812 697.320312 360.183594 C 698.640625 359.480469 699.972656 358.824219 701.3125 358.207031 C 702.65625 357.589844 704.011719 357.015625 705.378906 356.484375 C 706.742188 355.953125 708.117188 355.464844 709.5 355.023438 C 710.886719 354.578125 712.277344 354.175781 713.675781 353.820312 C 715.078125 353.460938 716.480469 353.148438 717.894531 352.882812 C 719.304688 352.613281 720.71875 352.386719 722.140625 352.210938 C 723.558594 352.03125 724.984375 351.894531 726.40625 351.804688 C 727.832031 351.714844 729.257812 351.671875 730.6875 351.671875 C 732.113281 351.671875 733.539062 351.714844 734.964844 351.804688 C 736.390625 351.894531 737.8125 352.03125 739.230469 352.210938 C 740.652344 352.386719 742.066406 352.613281 743.476562 352.882812 C 744.890625 353.148438 746.296875 353.460938 747.695312 353.820312 C 749.09375 354.175781 750.484375 354.578125 751.871094 355.023438 C 753.253906 355.464844 754.628906 355.953125 755.996094 356.484375 C 757.359375 357.015625 758.714844 357.589844 760.058594 358.207031 C 761.402344 358.824219 762.730469 359.480469 764.050781 360.183594 C 765.367188 360.882812 766.671875 361.625 767.960938 362.40625 C 769.25 363.1875 770.527344 364.011719 771.785156 364.875 C 773.042969 365.734375 774.285156 366.636719 775.507812 367.578125 C 776.730469 368.519531 777.9375 369.496094 779.121094 370.515625 C 780.308594 371.53125 781.476562 372.582031 782.621094 373.675781 C 783.765625 374.765625 784.890625 375.890625 785.996094 377.050781 C 787.097656 378.210938 788.179688 379.40625 789.234375 380.636719 C 790.292969 381.863281 791.324219 383.125 792.335938 384.417969 C 793.34375 385.710938 794.328125 387.039062 795.285156 388.394531 C 796.242188 389.75 797.175781 391.132812 798.082031 392.550781 C 798.984375 393.964844 799.863281 395.40625 800.714844 396.875 C 801.5625 398.34375 802.382812 399.839844 803.175781 401.363281 C 803.96875 402.882812 804.734375 404.429688 805.464844 406 C 806.199219 407.566406 806.902344 409.160156 807.574219 410.773438 C 808.25 412.386719 808.890625 414.019531 809.5 415.675781 C 810.109375 417.328125 810.6875 419 811.234375 420.691406 C 811.78125 422.382812 812.292969 424.089844 812.773438 425.8125 C 813.253906 427.535156 813.703125 429.273438 814.117188 431.023438 C 814.53125 432.773438 814.910156 434.539062 815.257812 436.3125 C 815.605469 438.085938 815.917969 439.871094 816.195312 441.667969 C 816.472656 443.460938 816.71875 445.265625 816.925781 447.074219 C 817.136719 448.882812 817.3125 450.699219 817.449219 452.519531 C 817.589844 454.339844 817.695312 456.167969 817.765625 457.992188 C 817.835938 459.820312 817.871094 461.648438 817.871094 463.480469 Z M 817.871094 463.480469 " fill-opacity="1" fill-rule="nonzero"/><path fill="#4056a1" d="M 730.6875 582.734375 C 705.054688 582.734375 681.074219 570.085938 663.167969 547.121094 C 645.683594 524.699219 636.058594 494.996094 636.058594 463.480469 C 636.058594 431.964844 645.683594 402.261719 663.167969 379.84375 C 681.074219 356.875 705.054688 344.230469 730.6875 344.230469 C 756.316406 344.230469 780.296875 356.878906 798.203125 379.84375 C 815.6875 402.261719 825.3125 431.964844 825.3125 463.480469 C 825.3125 494.996094 815.6875 524.699219 798.203125 547.121094 C 780.296875 570.085938 756.316406 582.734375 730.6875 582.734375 Z M 730.6875 359.113281 C 686.71875 359.113281 650.945312 405.933594 650.945312 463.480469 C 650.945312 521.027344 686.71875 567.84375 730.6875 567.84375 C 774.65625 567.84375 810.425781 521.027344 810.425781 463.480469 C 810.425781 405.933594 774.65625 359.113281 730.6875 359.113281 Z M 730.6875 359.113281 " fill-opacity="1" fill-rule="nonzero"/><path fill="#4056a1" d="M 642.886719 577.5 L 493.875 577.5 C 489.765625 577.5 486.429688 574.167969 486.429688 570.058594 C 486.429688 545.277344 466.273438 525.121094 441.492188 525.121094 C 437.382812 525.121094 434.050781 521.789062 434.050781 517.675781 L 434.050781 412.566406 C 434.050781 408.453125 437.382812 405.121094 441.492188 405.121094 C 466.273438 405.121094 486.429688 384.964844 486.429688 360.1875 C 486.429688 356.078125 489.765625 352.746094 493.875 352.746094 L 642.886719 352.746094 C 647 352.746094 650.332031 356.078125 650.332031 360.1875 C 650.332031 364.300781 647 367.632812 642.886719 367.632812 L 500.859375 367.632812 C 497.488281 394.679688 475.984375 416.175781 448.9375 419.550781 L 448.9375 510.695312 C 475.984375 514.066406 497.484375 535.566406 500.859375 562.613281 L 642.886719 562.613281 C 647 562.613281 650.332031 565.945312 650.332031 570.058594 C 650.332031 574.167969 647 577.5 642.886719 577.5 Z M 642.886719 577.5 " fill-opacity="1" fill-rule="nonzero"/><path fill="#4056a1" d="M 967.496094 577.5 L 818.484375 577.5 C 814.375 577.5 811.042969 574.167969 811.042969 570.058594 C 811.042969 565.945312 814.375 562.613281 818.484375 562.613281 L 960.515625 562.613281 C 963.886719 535.566406 985.386719 514.066406 1012.433594 510.695312 L 1012.433594 419.550781 C 985.386719 416.175781 963.886719 394.679688 960.515625 367.632812 L 818.484375 367.632812 C 814.375 367.632812 811.042969 364.300781 811.042969 360.1875 C 811.042969 356.078125 814.375 352.746094 818.484375 352.746094 L 967.496094 352.746094 C 971.609375 352.746094 974.941406 356.078125 974.941406 360.1875 C 974.941406 384.964844 995.101562 405.121094 1019.878906 405.121094 C 1023.992188 405.121094 1027.324219 408.453125 1027.324219 412.566406 L 1027.324219 517.675781 C 1027.324219 521.789062 1023.988281 525.121094 1019.878906 525.121094 C 995.101562 525.121094 974.941406 545.277344 974.941406 570.058594 C 974.941406 574.167969 971.609375 577.5 967.496094 577.5 Z M 967.496094 577.5 " fill-opacity="1" fill-rule="nonzero"/></svg>