<?xml version="1.0" standalone="no"?>
<!DOCTYPE svg PUBLIC "-//W3C//DTD SVG 20010904//EN"
 "http://www.w3.org/TR/2001/REC-SVG-20010904/DTD/svg10.dtd">
<svg version="1.0" xmlns="http://www.w3.org/2000/svg"
 width="669.000000pt" height="1039.000000pt" viewBox="0 0 669.000000 1039.000000"
 preserveAspectRatio="xMidYMid meet">

<g transform="translate(0.000000,1039.000000) scale(0.100000,-0.100000)"
fill="#000000" stroke="none">
<path d="M0 5195 l0 -5195 2620 0 c2560 0 2620 1 2610 19 -7 14 -6 22 4 30 18
15 41 5 43 -19 1 -11 -2 -18 -7 -15 -5 3 -11 1 -15 -5 -4 -7 229 -10 714 -10
l721 0 0 5195 0 5195 -3345 0 -3345 0 0 -5195z m2321 2701 c1 -6 1 -14 1 -18
-1 -3 5 -9 13 -12 10 -3 12 0 8 11 -5 13 -2 15 15 11 11 -3 23 -1 26 6 3 6 5
0 5 -14 -2 -42 0 -45 16 -23 20 28 38 21 66 -25 20 -33 22 -35 29 -17 7 18 8
19 15 3 4 -10 13 -18 21 -18 8 0 14 -5 14 -11 0 -5 -4 -7 -10 -4 -5 3 -10 1
-10 -6 0 -8 -5 -7 -17 2 -17 13 -17 13 -3 -6 8 -11 21 -25 28 -30 10 -8 11
-17 3 -38 -14 -36 -14 -36 7 -30 16 4 18 0 14 -26 -5 -36 23 -75 34 -47 6 16
26 23 22 9 -6 -17 30 -53 45 -48 10 4 17 -1 22 -14 3 -12 10 -21 14 -21 4 0
15 -6 25 -13 17 -12 10 -17 -61 -45 -44 -18 -83 -32 -88 -32 -7 0 -77 -31
-137 -61 -10 -5 -24 -9 -32 -9 -7 0 -16 -10 -19 -21 -4 -16 -11 -20 -23 -15
-16 6 -16 4 2 -15 l19 -22 -25 13 c-21 11 -23 11 -14 -1 18 -22 10 -56 -17
-80 -23 -20 -24 -25 -23 -152 0 -199 9 -257 45 -295 22 -23 29 -41 30 -74 2
-62 -17 -107 -49 -114 -15 -4 -37 -13 -50 -21 -20 -12 -26 -11 -56 12 -18 13
-47 28 -64 31 -21 4 -32 12 -32 23 1 25 27 91 43 109 42 47 54 292 19 383 -6
15 -8 29 -5 33 5 5 -86 100 -130 135 -10 8 -68 21 -129 30 -61 9 -113 21 -115
27 -2 7 3 18 11 27 8 8 13 23 10 33 -3 13 4 25 24 38 15 10 29 28 29 39 1 11
8 24 14 28 10 6 10 11 -2 25 -12 16 -12 17 2 12 12 -5 16 1 15 20 0 36 14 82
25 82 5 0 9 14 9 30 0 17 6 33 14 36 8 3 16 17 19 32 5 26 58 68 70 56 3 -3
15 -3 27 1 12 4 19 9 16 13 -3 3 1 16 9 29 9 13 12 23 8 23 -5 0 -1 5 7 10 20
13 110 13 110 0 0 -5 11 -10 25 -10 22 0 29 9 27 31 -1 4 8 5 18 2 11 -3 21
-10 21 -17z m483 -532 c3 -9 13 -14 21 -11 9 4 12 1 9 -8 -3 -7 5 -24 17 -36
16 -16 18 -21 6 -16 -9 3 -17 3 -17 -2 0 -4 -23 -4 -52 -1 -29 4 -68 3 -88 -1
-47 -11 -100 -11 -100 0 0 5 -10 11 -22 14 -22 3 -21 4 7 17 60 26 161 58 186
59 16 1 29 -6 33 -15z m481 -55 c9 -17 15 -33 13 -35 -3 -2 -12 12 -21 31 -21
43 -13 47 8 4z m55 -113 c0 -12 -5 -7 -19 24 -11 24 -11 24 3 6 9 -11 16 -24
16 -30z m-1560 -6 c0 -5 -4 -10 -9 -10 -5 0 -17 -3 -25 -6 -12 -5 -15 -2 -10
10 7 17 44 22 44 6z m841 -76 c9 -12 6 -14 -22 -14 -57 0 -64 12 -33 50 l28
33 7 -27 c4 -15 13 -34 20 -42z m39 36 c0 -5 -5 -10 -11 -10 -5 0 -7 5 -4 10
3 6 8 10 11 10 2 0 4 -4 4 -10z m710 -12 c5 -13 18 -34 27 -48 l17 -25 -21 18
c-12 11 -26 32 -32 48 -12 34 -5 39 9 7z m-570 -108 c0 -33 -36 -43 -124 -37
-44 4 -84 11 -90 17 -7 7 -2 10 15 10 14 0 30 5 35 10 7 7 19 8 36 1 14 -5 28
-8 31 -5 2 3 19 6 37 9 18 2 35 6 38 9 11 12 22 5 22 -14z m-800 6 c0 -2 -7
-6 -15 -10 -8 -3 -15 -1 -15 4 0 6 7 10 15 10 8 0 15 -2 15 -4z m1460 -47 c15
-28 5 -23 -15 7 -9 15 -12 23 -6 20 6 -4 16 -16 21 -27z m-918 -10 c12 -6 51
-18 87 -25 74 -16 134 -11 199 17 45 20 89 24 108 11 21 -14 44 -57 44 -82 0
-14 7 -34 15 -44 12 -16 14 -39 9 -115 -4 -53 -13 -105 -21 -117 -7 -11 -10
-24 -6 -27 3 -4 1 -7 -6 -7 -8 0 -11 -7 -7 -15 3 -8 1 -15 -4 -15 -5 0 -15
-19 -21 -42 -13 -44 -29 -72 -29 -50 0 14 -72 62 -117 78 l-32 11 5 -36 c3
-20 7 -42 10 -50 2 -8 -1 -18 -8 -23 -20 -12 -28 -9 -28 11 0 11 -4 22 -10 26
-5 3 -7 12 -4 19 3 7 -3 19 -12 27 -12 9 -15 10 -10 2 4 -8 2 -13 -5 -13 -8 0
-7 -5 2 -17 10 -11 10 -14 2 -9 -7 4 -13 3 -13 -3 0 -5 5 -13 11 -16 12 -8
-14 -37 -43 -48 -10 -3 -18 -12 -18 -18 0 -9 -4 -9 -14 0 -10 8 -16 9 -21 1
-14 -22 -23 -9 -15 21 5 18 7 36 4 40 -3 5 0 9 6 9 7 0 10 6 7 14 -3 8 -3 17
1 21 4 4 7 35 7 70 0 36 6 69 14 78 16 20 6 54 -27 87 -31 32 -54 84 -45 106
4 10 0 21 -9 28 -28 21 -50 64 -43 86 7 23 9 24 37 9z m-477 -99 c-1 -22 -8
-47 -16 -56 -7 -9 -12 -33 -10 -55 1 -23 -2 -39 -8 -39 -6 0 -12 10 -12 23 -1
19 -2 19 -6 3 -3 -11 -11 -25 -17 -32 -7 -6 -18 -37 -26 -68 -7 -31 -16 -56
-19 -56 -4 0 -7 -9 -8 -21 -2 -22 -57 -81 -72 -77 -4 2 -18 -8 -31 -22 -15
-17 -20 -20 -16 -7 3 9 0 18 -7 19 -7 0 -17 2 -23 2 -6 1 -22 14 -36 29 -19
20 -25 36 -22 62 1 19 -1 35 -6 35 -11 0 -4 85 10 111 8 14 8 24 1 33 -16 19
3 31 79 46 36 8 103 34 155 61 49 27 90 48 91 49 1 0 0 -18 -1 -40z m-20 -340
c4 -6 11 -8 16 -5 5 4 9 -5 9 -19 0 -16 6 -26 15 -26 8 0 29 -15 47 -33 29
-28 37 -31 60 -23 14 5 31 20 37 33 12 27 19 28 45 8 16 -12 17 -18 8 -27 -7
-7 -12 -25 -12 -41 0 -23 7 -31 35 -43 39 -16 48 -37 13 -29 -125 28 -145 31
-167 23 -15 -5 -28 -4 -37 3 -10 8 -14 9 -14 0 0 -8 -5 -8 -19 1 -11 7 -18 15
-16 19 3 3 -7 19 -20 35 -14 16 -25 32 -25 37 0 12 18 8 23 -5 2 -7 8 -10 12
-5 5 4 0 14 -11 22 -16 13 -17 16 -4 25 8 5 11 10 7 10 -4 0 -19 -7 -32 -16
-24 -15 -24 -15 -19 12 8 45 34 68 49 44z m347 -82 c41 -20 52 -45 33 -74 -17
-27 -61 -34 -51 -9 3 8 1 15 -5 15 -13 0 -27 40 -21 62 5 21 10 22 44 6z m543
-29 c-5 -16 -4 -19 5 -14 18 11 8 -88 -13 -135 -16 -36 -40 -70 -49 -70 -12 0
-16 41 -8 77 4 21 11 64 15 96 3 31 10 55 15 52 5 -3 11 -1 15 5 12 19 26 10
20 -11z m-355 3 c0 -5 -7 -17 -15 -28 -14 -19 -14 -19 -15 2 0 11 3 24 7 27 9
10 23 9 23 -1z m-50 -42 c0 -5 -2 -10 -4 -10 -3 0 -8 5 -11 10 -3 6 -1 10 4
10 6 0 11 -4 11 -10z m-270 -100 c0 -5 -2 -10 -4 -10 -3 0 -8 5 -11 10 -3 6
-1 10 4 10 6 0 11 -4 11 -10z m230 -81 c0 -5 -4 -8 -9 -5 -5 4 -7 -4 -3 -16 5
-20 3 -21 -10 -10 -20 16 -41 12 -50 -10 -10 -26 -58 -35 -73 -15 -11 15 -13
15 -23 -6 -10 -21 -11 -21 -12 -2 -1 18 -1 19 -11 3 -14 -25 -36 -22 -55 7
-27 41 -13 55 48 51 29 -3 71 -1 93 4 59 12 105 11 105 -1z m-108 -289 c17 -5
40 -5 60 2 18 6 61 11 96 12 59 2 62 1 56 -18 -4 -12 -11 -27 -17 -34 -8 -11
-7 -16 7 -24 16 -9 15 -13 -14 -43 -41 -42 -102 -64 -127 -44 -11 9 -14 10 -9
2 4 -7 3 -13 -2 -13 -13 0 -24 29 -16 41 3 6 -6 8 -23 5 -15 -2 -33 -5 -39 -5
-7 -1 -14 -10 -17 -21 -4 -14 -12 -19 -35 -17 -17 1 -28 5 -25 10 2 4 -5 7
-16 7 -17 0 -33 24 -36 52 0 3 -3 10 -7 14 -4 4 -5 18 -1 32 4 18 3 23 -7 17
-9 -6 -10 -3 -1 13 6 11 16 22 23 24 18 6 119 -2 150 -12z m2405 -2445 c-4 -8
-11 -15 -17 -15 -7 0 -7 6 0 21 13 23 26 19 17 -6z m283 -20 c0 -14 -8 -29
-20 -35 -23 -12 -25 -3 -8 35 14 32 28 32 28 0z m-352 -45 c-18 -21 -35 -37
-37 -34 -2 2 3 12 12 22 10 10 17 23 17 28 0 15 22 34 32 28 4 -3 -7 -23 -24
-44z m532 10 c-10 -19 -50 -46 -50 -34 0 3 9 19 21 35 22 32 46 31 29 -1z
m170 21 c0 -5 -7 -14 -15 -21 -12 -10 -15 -10 -15 2 0 8 3 18 7 21 9 10 23 9
23 -2z m-230 -20 c0 -6 -4 -13 -10 -16 -5 -3 -10 1 -10 9 0 9 5 16 10 16 6 0
10 -4 10 -9z m-26 -58 c-6 -26 -6 -27 9 -9 8 11 27 21 42 23 29 4 28 5 8 -44
-2 -6 4 -13 14 -16 17 -4 17 -4 -2 -12 -11 -5 -38 -23 -61 -42 -23 -18 -45
-33 -50 -33 -5 0 -18 -10 -29 -22 -12 -15 -20 -18 -23 -10 -5 17 -32 15 -32
-3 0 -9 -9 -15 -22 -15 -13 0 -45 -12 -73 -25 -27 -14 -58 -25 -67 -25 -29 0
-21 29 10 36 32 8 62 32 62 50 0 7 16 21 35 30 19 9 35 20 35 25 0 5 15 15 33
23 17 8 50 32 72 54 22 22 41 40 43 41 1 1 0 -11 -4 -26z m-148 -20 c-4 -4
-11 -1 -16 7 -16 25 -11 35 7 17 9 -9 13 -20 9 -24z m-186 -70 c0 -11 -61 -45
-68 -38 -9 9 30 45 50 45 10 0 18 -3 18 -7z m-300 -8 c0 -3 -11 -18 -25 -33
-15 -16 -25 -21 -25 -13 0 16 29 51 42 51 4 0 8 -2 8 -5z m40 -34 c0 -5 -9
-11 -20 -14 -22 -6 -28 8 -7 16 19 8 27 8 27 -2z m40 -41 c12 0 20 -39 9 -46
-5 -3 -9 0 -9 6 0 6 -12 15 -26 20 -14 6 -22 15 -19 21 4 6 14 8 22 5 8 -3 18
-6 23 -6z m-50 -41 c0 -6 9 -8 20 -4 23 7 27 -7 6 -24 -12 -10 -20 -9 -40 4
-31 21 -33 35 -6 35 11 0 20 -5 20 -11z m60 -44 c0 -8 -7 -15 -15 -15 -26 0
-18 20 13 29 1 1 2 -6 2 -14z m-90 -15 c12 -8 9 -10 -12 -10 -16 0 -28 5 -28
10 0 13 20 13 40 0z m510 -2636 c0 4 14 -2 30 -14 17 -12 28 -26 25 -31 -3 -5
-1 -18 6 -30 8 -17 8 -23 -1 -29 -12 -8 -11 -24 6 -64 5 -14 4 -17 -4 -12 -8
4 -10 2 -6 -7 7 -20 -52 -68 -74 -59 -16 6 -16 7 1 10 9 2 17 10 17 17 0 8 6
18 14 22 15 8 39 113 26 113 -4 0 -10 13 -13 29 -4 19 -16 33 -36 42 -16 7
-27 17 -24 22 2 4 11 3 19 -4 8 -6 14 -8 14 -5z m-172 -24 c25 -17 28 -40 10
-70 -19 -31 2 -42 76 -42 36 0 73 -6 81 -12 15 -11 14 -14 -4 -38 -19 -24 -24
-25 -58 -16 -21 5 -69 17 -108 25 -38 9 -73 20 -76 25 -3 5 -13 3 -22 -6 -9
-10 -32 -16 -59 -16 -40 1 -42 2 -24 15 19 15 19 15 -2 15 -15 0 -22 6 -22 20
0 11 -7 23 -15 26 -12 5 -13 10 -4 20 6 8 9 20 6 28 -4 11 -1 13 11 9 10 -4
14 -2 9 3 -12 12 120 42 153 35 14 -3 35 -13 48 -21z m-426 -77 c26 -25 41
-72 18 -58 -5 3 -10 0 -10 -9 0 -8 6 -16 13 -19 9 -3 9 -7 -2 -20 -18 -23 -42
-22 -34 0 6 14 2 13 -21 -4 -40 -32 -90 -39 -121 -19 -34 23 -31 42 13 83 31
29 96 71 111 73 3 0 18 -12 33 -27z m498 -323 c0 -5 -7 -10 -16 -10 -8 0 -12
5 -9 10 3 6 10 10 16 10 5 0 9 -4 9 -10z"/>
<path d="M1925 7600 c3 -5 8 -10 11 -10 2 0 4 5 4 10 0 6 -5 10 -11 10 -5 0
-7 -4 -4 -10z"/>
<path d="M5126 3321 c-15 -6 -16 -10 -7 -15 8 -5 20 -2 29 8 17 17 9 19 -22 7z"/>
</g>
</svg>
